<?xml version="1.0" standalone="no"?>
<!DOCTYPE svg PUBLIC "-//W3C//DTD SVG 1.1//EN" "http://www.w3.org/Graphics/SVG/1.1/DTD/svg11.dtd" >
<svg>
<metadata>
Created by FontForge 20090914 at Mon Oct  6 12:20:34 2014
 By www-data
&#194;&#169; 2001 Microsoft Corporation. All rights reserved.
</metadata>
<defs>
<font id="Gautami" horiz-adv-x="0" >
  <font-face 
    font-family="Gautami"
    font-weight="400"
    font-stretch="normal"
    units-per-em="2048"
    panose-1="2 0 5 0 0 0 0 0 0 0"
    ascent="1638"
    descent="-410"
    bbox="-2994 -1664 3528 1892"
    underline-thickness="96"
    underline-position="-552"
    unicode-range="U+0020-U+25CC"
  />
<missing-glyph horiz-adv-x="1024" 
d="M128 0v1000h768v-1000h-768zM256 128h512v744h-512v-744z" />
    <glyph glyph-name=".notdef" horiz-adv-x="1024" 
d="M128 0v1000h768v-1000h-768zM256 128h512v744h-512v-744z" />
    <glyph glyph-name="space" unicode=" " horiz-adv-x="640" 
 />
    <glyph glyph-name="space" unicode="&#xa0;" horiz-adv-x="640" 
 />
    <glyph glyph-name="exclam" unicode="!" horiz-adv-x="338" 
d="M264 249h-150v719h150v-719zM289 80c0 -27.333 -9.83301 -50.833 -29.5 -70.5s-43.167 -29.5 -70.5 -29.5s-50.833 9.83301 -70.5 29.5s-29.5 43.167 -29.5 70.5s9.83301 50.833 29.5 70.5s43.167 29.5 70.5 29.5s50.833 -9.83301 70.5 -29.5s29.5 -43.167 29.5 -70.5z
" />
    <glyph glyph-name="quotedbl" unicode="&#x22;" horiz-adv-x="558" 
d="M494 1138c0 -28 -7.33301 -66.3311 -22 -114.998c-18 -56.667 -38.667 -97.667 -62 -123c-27.333 28.667 -49 70 -65 124c-12.667 43.333 -19 81.333 -19 114c0 23.333 8.16699 43.166 24.5 59.499s36.166 24.5 59.499 24.5c22.667 0 42.334 -8.33301 59.001 -25
s25 -36.334 25 -59.001zM232 1138c0 -30.667 -7 -69.3311 -21 -115.998c-16.667 -58 -37.667 -98.667 -63 -122c-25.333 28.667 -46.333 70 -63 124c-14 45.333 -21 83.333 -21 114c0 23.333 8.16699 43.166 24.5 59.499s36.166 24.5 59.499 24.5
c22.667 0 42.334 -8.33301 59.001 -25s25 -36.334 25 -59.001z" />
    <glyph glyph-name="numbersign" unicode="#" horiz-adv-x="902" 
d="M885 723l-25 -124h-179l-55 -210h180l-26 -123h-185l-63 -266h-129l64 266h-138l-64 -266h-128l63 266h-172l25 123h178l56 210h-181l25 124h187l63 266h129l-64 -266h138l64 266h128l-63 -266h172zM556 600h-141l-58 -211h141z" />
    <glyph glyph-name="percent" unicode="%" horiz-adv-x="940" 
d="M443 809c0 -52 -17.333 -97.5 -52 -136.5s-78 -58.5 -130 -58.5c-51.333 0 -94.333 20 -129 60c-33.333 38 -50 83 -50 135s17 97.833 51 137.5s76.667 59.5 128 59.5s95 -20 131 -60c34 -39.333 51 -85 51 -137zM890 965l-732 -985l-108 69l733 986zM859 201
c0 -52 -17.333 -97.5 -52 -136.5s-78 -58.5 -130 -58.5c-51.333 0 -94.333 20 -129 60c-33.333 38 -50 83 -50 135s17 97.833 51 137.5s76.667 59.5 128 59.5s95 -20 131 -60c34 -39.333 51 -85 51 -137zM337 809c0 23.333 -7.00098 44.333 -21.001 63s-32.333 28 -55 28
c-22 0 -40 -9.33301 -54 -28s-21 -39.667 -21 -63s6.66699 -43.666 20 -60.999c14 -19.333 32.333 -29 55 -29s41.334 9.66699 56.001 29c13.333 17.333 20 37.666 20 60.999zM752.999 201c0 23.333 -7.00098 44.333 -21.001 63s-32.333 28 -55 28
c-22 0 -40 -9.33301 -54 -28s-21 -39.667 -21 -63s6.66699 -43.666 20 -60.999c14 -19.333 32.333 -29 55 -29s41.334 9.66699 56.001 29c13.333 17.333 20 37.666 20 60.999z" />
    <glyph glyph-name="ampersand" unicode="&#x26;" horiz-adv-x="964" 
d="M906 100l-94.999 -95.001l-124 124c-67.333 -99.333 -169.666 -149 -306.999 -149c-88 0 -162.667 29.833 -224 89.5s-92 133.834 -92 222.501c0 117.333 56.667 213 170 287c-72 78.667 -108 146.334 -108 203.001c0 67.333 23.333 122.666 70 165.999
c45.333 41.333 101.666 62 168.999 62c68 0 124.667 -20.667 170 -62c48 -43.333 72 -98.666 72 -165.999c0 -90.667 -53 -166 -159 -226l197 -196c21.333 51.333 31.666 125.666 30.999 222.999h127c0 -132 -17.333 -240 -52 -324zM465.001 781.999
c0 64.667 -34.333 96.999 -103 96.999c-64 0 -96 -32.333 -96 -97c0 -33.333 32 -80.666 96 -141.999c68.667 32.667 103 80 103 142zM580.001 232.998l-256 257c-80 -55.333 -120 -120.333 -120 -195c0 -52 18.333 -92 55 -120c34 -26 79 -39 135 -39
c76 0 138 32.333 186 97z" />
    <glyph glyph-name="quotesingle" unicode="'" horiz-adv-x="200" 
d="M185 1138c0 -28.667 -7.66797 -67.666 -23.001 -116.999c-17.333 -57.333 -37.666 -97.666 -60.999 -120.999c-24.667 24.667 -45.667 65 -63 121c-14 46.667 -21 85.667 -21 117c0 23.333 8.16699 43.166 24.5 59.499s36.166 24.5 59.499 24.5
c22.667 0 42.334 -8.33301 59.001 -25s25 -36.334 25 -59.001z" />
    <glyph glyph-name="parenleft" unicode="(" horiz-adv-x="466" 
d="M437 -128l-70 -69.998c-94 86 -167.667 187 -221 303c-54.667 118.667 -82 240.667 -82 366s27.333 247.333 82 366c53.333 116 127 217 221 303l70 -70c-163.333 -168.667 -245 -368.334 -245 -599.001s81.667 -430.334 245 -599.001z" />
    <glyph glyph-name="parenright" unicode=")" horiz-adv-x="466" 
d="M417 471c0 -125.333 -27.333 -247.335 -82 -366.002c-53.333 -116 -127 -217 -221 -303l-70 70c163.333 168.667 245 368.334 245 599.001s-81.667 430.334 -245 599.001l70 70c94 -86 167.667 -187 221 -303c54.667 -118.667 82 -240.667 82 -366z" />
    <glyph glyph-name="asterisk" unicode="*" horiz-adv-x="778" 
d="M664 361h-168l127 -127l-57 -57l-126 127v-167h-103v167l-126 -127l-57 57l127 127h-167v102h167l-127 126l57 57l126 -127v169h103v-169l126 127l57 -57l-127 -126h168v-102z" />
    <glyph glyph-name="plus" unicode="+" horiz-adv-x="812" 
d="M699 347h-239v-246h-128v246h-218v130h218v245h128v-245h239v-130z" />
    <glyph glyph-name="comma" unicode="," horiz-adv-x="366" 
d="M286 51c0 -61.333 -12.665 -116.667 -37.998 -166c-30.667 -58 -73.334 -91.333 -128.001 -100v80c41.333 8 61.666 46.333 60.999 115c-27.333 0 -51 9.83301 -71 29.5s-30 43.167 -30 70.5s9.83301 50.833 29.5 70.5s43.167 29.5 70.5 29.5c33.333 0 60 -13.667 80 -41
c17.333 -24 26 -53.333 26 -88z" />
    <glyph glyph-name="period" unicode="." horiz-adv-x="360" 
d="M280 80c0 -27.333 -9.83301 -50.833 -29.5 -70.5s-43.167 -29.5 -70.5 -29.5s-50.833 9.83301 -70.5 29.5s-29.5 43.167 -29.5 70.5s9.83301 50.833 29.5 70.5s43.167 29.5 70.5 29.5s50.833 -9.83301 70.5 -29.5s29.5 -43.167 29.5 -70.5z" />
    <glyph glyph-name="slash" unicode="/" horiz-adv-x="784" 
d="M750 966l-616 -986l-108 69l617 987z" />
    <glyph glyph-name="zero" unicode="0" horiz-adv-x="1048" 
d="M984 500c0 -135.333 -37.001 -252 -111.001 -350c-85.333 -113.333 -201.666 -170 -348.999 -170c-142 0 -255.667 53 -341 159c-79.333 98 -119 218.333 -119 361c0 141.333 42 261 126 359c88 100.667 199.333 151 334 151s246 -50.333 334 -151
c84 -98 126 -217.667 126 -359zM823.999 500c0 98 -26.667 179.667 -80 245c-56 70 -129.333 105 -220 105s-164 -35 -220 -105c-53.333 -65.333 -80 -147 -80 -245c0 -95.333 26.667 -172 80 -230c54 -60 127.333 -90 220 -90s166 30 220 90c53.333 58 80 134.667 80 230z
" />
    <glyph glyph-name="one" unicode="1" horiz-adv-x="500" 
d="M395 0h-160v796l-127 -111l-98 95l242 220h143v-1000z" />
    <glyph glyph-name="two" unicode="2" horiz-adv-x="944" 
d="M860 0h-775.999v160c0 77.333 51.333 145.666 154 204.999l286 134c102.667 50.667 154 104.334 154 161.001c0 126.667 -76.333 190 -229 190c-66.667 0 -122.334 -20 -167.001 -60c-32 -29.333 -48 -52.666 -48 -69.999h-160c0 53.333 32.667 111.666 98 174.999
c78.667 76.667 171 115 277 115c120 0 214.833 -30.5 284.5 -91.5s104.5 -147.167 104.5 -258.5c0 -93.333 -50 -174.333 -150 -243c-40.667 -28 -133.667 -74.333 -279 -139c-100 -44.667 -150 -84 -150 -118h601v-160z" />
    <glyph glyph-name="three" unicode="3" horiz-adv-x="954" 
d="M870 305c0 -83.333 -27.332 -154.334 -81.999 -213.001c-70 -74.667 -173.667 -112 -311 -112c-127.333 0 -227 33.667 -299 101c-62.667 59.333 -94 132.333 -94 219h160c0 -82 77.667 -123 233 -123c80.667 0 141.334 14 182.001 42c34 22.667 51 51.334 51 86.001
c0 79.333 -37.667 119 -113 119h-130v160h130c75.333 0 113 39.667 113 119c0 48.667 -24.333 86.334 -73 113.001c-42.667 22.667 -96 34 -160 34c-60.667 0 -113.334 -12.333 -158.001 -37c-50 -28.667 -75 -66.334 -75 -113.001h-160c0 100 41.667 178.333 125 235
c73.333 50 162.666 75 267.999 75c106 0 195 -23.667 267 -71c84 -56 126 -134.667 126 -236c0 -93.333 -29 -159.333 -87 -198c58 -34 87 -100.667 87 -200z" />
    <glyph glyph-name="four" unicode="4" horiz-adv-x="1076" 
d="M992 261h-190v-261h-160v261h-558v160l558 579h160v-579h190v-160zM642 421v342l-349 -342h349z" />
    <glyph glyph-name="five" unicode="5" horiz-adv-x="874" 
d="M790 358c0 -115.333 -38.332 -207.667 -114.999 -277c-74 -67.333 -169.333 -101 -286 -101c-129.333 0 -239.666 48 -330.999 144l102 132c49.333 -50.667 125.666 -76 228.999 -76c160.667 0 241 59.333 241 178c0 118 -120.667 177 -362 177
c-22 0 -52.667 -0.333008 -92 -1c-42.667 -1.33301 -73.334 -2 -92.001 -2v468h683v-160h-523v-158c169.333 0 290.333 -14 363 -42c122 -46.667 183 -140.667 183 -282z" />
    <glyph glyph-name="six" unicode="6" horiz-adv-x="974" 
d="M890 332c0 -102.667 -33.667 -187 -101 -253s-152.333 -99 -255 -99c-133.333 0 -243 51.333 -329 154c-80.667 97.333 -121 214 -121 350c0 146 41.333 268.333 124 367c88 106 203.333 159 346 159c118.667 0 216.667 -38.333 294 -115l-121 -104
c-44.667 39.333 -102.334 59 -173.001 59c-92 0 -167 -31 -225 -93s-87 -139.667 -87 -233c0 -9.33301 0.333008 -17.333 1 -24c25.333 42.667 69 79 131 109c58 27.333 113.667 41 167 41c100.667 0 183.334 -28 248.001 -84c67.333 -58.667 101 -136.667 101 -234z
M731 337c0 49.333 -19.999 88 -59.999 116c-34.667 24.667 -78 37 -130 37c-45.333 0 -94 -12 -146 -36c-60.667 -28 -100.334 -63.333 -119.001 -106c12.667 -52 46 -93.667 100 -125c48 -28.667 100.667 -43 158 -43c52 0 96.667 13 134 39c42 28.667 63 68 63 118z" />
    <glyph glyph-name="seven" unicode="7" horiz-adv-x="798" 
d="M754 860c-174 -150 -285.667 -262.333 -335 -337c-76.667 -116 -115 -267.333 -115 -454c0 -20 1.66699 -43 5 -69h-160c-3.33301 27.333 -5 50.333 -5 69c0 162 32.333 305.333 97 430c56.667 110 150 223.667 280 341h-467v160h700v-140z" />
    <glyph glyph-name="eight" unicode="8" horiz-adv-x="956" 
d="M852 312c0 -100 -39.666 -181.667 -118.999 -245c-73.333 -58 -161.333 -87 -264 -87c-104.667 0 -193.334 28.667 -266.001 86c-79.333 62 -119 144 -119 246c0 102.667 56 187.667 168 255c-70 54 -105 114.667 -105 182c0 80 34 146.333 102 199
c63.333 48.667 136 73 218 73s154.667 -24.333 218 -73c68 -52.667 102 -119 102 -199c0 -68 -34.667 -128.667 -104 -182c112.667 -68 169 -153 169 -255zM635.001 749c0 38 -19.001 69.001 -57.001 93.001c-33.333 20.667 -70.333 31 -111 31s-77.667 -10.333 -111 -31
c-38 -24 -57 -55 -57 -93c0 -32.667 19.667 -62.334 59 -89.001c36 -24 72.333 -37 109 -39c38.667 2 75.334 14.333 110.001 37c38.667 26 58 56.333 58 91zM691 319.001c0 48.667 -25.667 90.001 -77 124.001c-44.667 29.333 -93.667 45.333 -147 48
c-53.333 -1.33301 -102 -16 -146 -44c-51.333 -32.667 -77 -74.334 -77 -125.001c0 -52.667 25 -94 75 -124c42.667 -25.333 92 -38 148 -38s105 12.333 147 37c51.333 29.333 77 70 77 122z" />
    <glyph glyph-name="nine" unicode="9" horiz-adv-x="970" 
d="M886 500c0 -143.333 -40.001 -263.999 -120.001 -361.999c-86 -105.333 -199 -158 -339 -158c-124 0 -227.667 41.333 -311 124l86 150c58 -49.333 133 -74 225 -74c92.667 0 166.334 30.333 221.001 91c52.667 58.667 79 135 79 229c-27.333 -46 -71 -81.667 -131 -107
c-52.667 -22 -109 -33 -169 -33c-100 0 -181.667 29 -245 87c-65.333 59.333 -98 138.666 -98 237.999c0 97.333 33 176.333 99 237c64.667 58.667 146 88 244 88c137.333 0 249.333 -51.667 336 -155c82 -96.667 123 -215 123 -355zM697.999 652.001
c-18.667 59.333 -52.833 107.168 -102.5 143.501s-105.834 54.5 -168.501 54.5c-51.333 0 -94 -14.333 -128 -43c-36.667 -30.667 -55 -71.334 -55 -122.001c0 -48 18.333 -87.5 55 -118.5s79.334 -46.5 128.001 -46.5c54.667 0 106 10.333 154 31
c57.333 24 96.333 57.667 117 101z" />
    <glyph glyph-name="colon" unicode=":" horiz-adv-x="360" 
d="M280 545c0 -27.333 -9.83301 -50.833 -29.5 -70.5s-43.167 -29.5 -70.5 -29.5s-50.833 9.83301 -70.5 29.5s-29.5 43.167 -29.5 70.5s9.83301 50.833 29.5 70.5s43.167 29.5 70.5 29.5s50.833 -9.83301 70.5 -29.5s29.5 -43.167 29.5 -70.5zM280 80
c0 -27.333 -9.83301 -50.833 -29.5 -70.5s-43.167 -29.5 -70.5 -29.5s-50.833 9.83301 -70.5 29.5s-29.5 43.167 -29.5 70.5s9.83301 50.833 29.5 70.5s43.167 29.5 70.5 29.5s50.833 -9.83301 70.5 -29.5s29.5 -43.167 29.5 -70.5z" />
    <glyph glyph-name="semicolon" unicode=";" horiz-adv-x="360" 
d="M280 545c0 -27.333 -9.83301 -50.833 -29.5 -70.5s-43.167 -29.5 -70.5 -29.5s-50.833 9.83301 -70.5 29.5s-29.5 43.167 -29.5 70.5s9.83301 50.833 29.5 70.5s43.167 29.5 70.5 29.5s50.833 -9.83301 70.5 -29.5s29.5 -43.167 29.5 -70.5zM286 51
c0 -153.333 -55.332 -241.999 -165.999 -265.999v80c41.333 5.33301 61.666 43.666 60.999 114.999c-27.333 0 -51 9.83301 -71 29.5s-30 43.167 -30 70.5s9.83301 50.833 29.5 70.5s43.167 29.5 70.5 29.5c33.333 0 60 -13.667 80 -41c17.333 -24 26 -53.333 26 -88z" />
    <glyph glyph-name="less" unicode="&#x3c;" horiz-adv-x="916" 
d="M855 207l-34 -142l-757 362v104l757 361l34 -140l-572 -273z" />
    <glyph glyph-name="equal" unicode="=" horiz-adv-x="700" 
d="M585 502h-471v131h471v-131zM585 247h-471v132h471v-132z" />
    <glyph glyph-name="greater" unicode="&#x3e;" horiz-adv-x="916" 
d="M852 427l-757 -362l-34 142l572 272l-572 273l34 140l757 -361v-104z" />
    <glyph glyph-name="question" unicode="?" horiz-adv-x="682" 
d="M618 758c0 -64 -21.668 -119.334 -65.001 -166.001l-119 -102c-43.333 -39.333 -65 -81.333 -65 -126v-101h-144v101c0 78 20.667 140.333 62 187c2.66699 2.66699 41.667 33.667 117 93c41.333 32.667 62 71 62 115c0 28.667 -12.333 52.334 -37 71.001
c-22.667 16.667 -48.667 25 -78 25c-97.333 0 -145.666 -54.667 -144.999 -164h-142c0 89.333 25.833 163.166 77.5 221.499s121.5 87.5 209.5 87.5c70.667 0 132 -22.333 184 -67c55.333 -47.333 83 -105.666 83 -174.999zM395.999 79.999
c0 -27.333 -9.83301 -50.833 -29.5 -70.5s-43.167 -29.5 -70.5 -29.5s-50.833 9.83301 -70.5 29.5s-29.5 43.167 -29.5 70.5s9.83301 50.833 29.5 70.5s43.167 29.5 70.5 29.5s50.833 -9.83301 70.5 -29.5s29.5 -43.167 29.5 -70.5z" />
    <glyph glyph-name="at" unicode="@" horiz-adv-x="1430" 
d="M1346 465c0 -101.333 -20.335 -188.998 -61.002 -262.998c-49.333 -91.333 -120.666 -137 -213.999 -137c-90.667 0 -156.334 45.667 -197.001 137c-49.333 -53.333 -113 -80 -191 -80c-91.333 0 -164.666 35 -219.999 105c-51.333 64.667 -77 143.667 -77 237
c0 94 25.667 172.667 77 236c54.667 68 128 102 220 102c68.667 0 122.667 -18.667 162 -56v41h133v-460c0 -90 31 -135 93 -135c50.667 0 89.334 35 116.001 105c20 52 30 108 30 168c0 138 -49.167 256 -147.5 354s-216.5 147 -354.5 147
c-138.667 0 -256.667 -48.833 -354 -146.5s-146 -215.834 -146 -354.501s48.833 -256.834 146.5 -354.501s215.5 -146.5 353.5 -146.5v-131c-174 0 -322.667 61.833 -446 185.5s-185 272.5 -185 446.5c0 173.333 61.833 321.833 185.5 445.5s272.167 185.5 445.5 185.5
c174 0 322.667 -61.667 446 -185s185 -272 185 -446zM836.998 470.002c0 134.667 -51.333 202 -154 202c-51.333 0 -91 -23 -119 -69c-24 -38.667 -36 -85 -36 -139c0 -141.333 51.667 -212 155 -212c102.667 0 154 72.667 154 218z" />
    <glyph glyph-name="bracketleft" unicode="[" horiz-adv-x="548" 
d="M485 -213h-421v1386h421v-123h-274v-1139h274v-124z" />
    <glyph glyph-name="backslash" unicode="\" horiz-adv-x="784" 
d="M750 49l-108 -69l-616 986l107 70z" />
    <glyph glyph-name="bracketright" unicode="]" horiz-adv-x="548" 
d="M485 -213h-421v124h274v1139h-274v123h421v-1386z" />
    <glyph glyph-name="asciicircum" unicode="^" horiz-adv-x="668" 
d="M604 792l-79 -90l-191 150l-190 -150l-80 90l270 208z" />
    <glyph glyph-name="underscore" unicode="_" horiz-adv-x="824" 
d="M824 -235h-824v117h824v-117z" />
    <glyph glyph-name="braceleft" unicode="{" horiz-adv-x="796" 
d="M732 -222l-98 -0.00195312c-128.667 0 -213 28 -253 84c-31.333 44.667 -47 134.334 -47 269.001c0 96.667 -21 166.334 -63 209.001s-111 63.667 -207 63v135c96 -0.666992 165 20.333 207 63s63 112.334 63 209.001c0 134.667 15.667 224.334 47 269.001
c40 56 124.333 84 253 84h98v-121h-80c-74.667 0 -124.167 -12.333 -148.5 -37s-36.5 -74.334 -36.5 -149.001c0 -110.667 -8.66699 -188 -26 -232c-26.667 -65.333 -83.667 -116.333 -171 -153c87.333 -36.667 144.333 -87.667 171 -153
c17.333 -44.667 26 -122.334 26 -233.001c0 -74.667 12.167 -124.5 36.5 -149.5s73.833 -37.5 148.5 -37.5h80v-120z" />
    <glyph glyph-name="bar" unicode="|" horiz-adv-x="234" 
d="M175 0h-116v1000h116v-1000z" />
    <glyph glyph-name="braceright" unicode="}" horiz-adv-x="790" 
d="M732 399c-96 0.666992 -165 -20.3301 -207 -62.9971s-63 -112.334 -63 -209.001c0 -134.667 -15.667 -224.334 -47 -269.001c-40 -56 -124.333 -84 -253 -84h-98v120h86c72 0 119.833 12.833 143.5 38.5s35.5 75.167 35.5 148.5c0 111.333 8.66699 189 26 233
c26.667 65.333 83.667 116.333 171 153c-87.333 36.667 -144.333 87.667 -171 153c-17.333 44 -26 121.333 -26 232c0 74.667 -12.167 124.334 -36.5 149.001s-73.833 37 -148.5 37h-80v121h98c128.667 0 213 -28 253 -84c31.333 -44.667 47 -134.334 47 -269.001
c0 -96.667 21 -166.334 63 -209.001s111 -63.667 207 -63v-135z" />
    <glyph glyph-name="asciitilde" unicode="~" horiz-adv-x="1012" 
d="M949 639c0 -110.667 -13 -191.67 -39 -243.003c-37.333 -72 -106 -108 -206 -108c-70.667 0 -130 24 -178 72c-2.66699 2.66699 -36 47.334 -100 134.001c-36 48 -74 72 -114 72c-60 0 -99 -34 -117 -102c-8 -29.333 -13 -87.333 -15 -174h-116v42
c0 110.667 12.333 191.334 37 242.001c36.667 73.333 105.667 110 207 110c67.333 0 126 -24 176 -72c3.33301 -3.33301 38.333 -48 105 -134c36.667 -48 74 -72 112 -72c59.333 0 98.333 34 117 102c7.33301 28.667 12 86.334 14 173.001h117v-42z" />
    <glyph glyph-name="Oslash" unicode="&#xd7;" horiz-adv-x="648" 
d="M587 241l-90 -89l-170 170l-171 -171l-89 90l170 170l-174 173l90 90l171 -172l172 172l89 -90l-171 -171z" />
    <glyph glyph-name="Odieresis" unicode="&#xf7;" horiz-adv-x="712" 
d="M459 641c0 -27.333 -9.83301 -50.833 -29.5 -70.5s-43.167 -29.5 -70.5 -29.5s-50.833 9.83301 -70.5 29.5s-29.5 43.167 -29.5 70.5s9.83301 50.833 29.5 70.5s43.167 29.5 70.5 29.5s50.833 -9.83301 70.5 -29.5s29.5 -43.167 29.5 -70.5zM649 340h-585v104h585v-104z
M459 143c0 -27.333 -9.83301 -50.833 -29.5 -70.5s-43.167 -29.5 -70.5 -29.5s-50.833 9.83301 -70.5 29.5s-29.5 43.167 -29.5 70.5s9.83301 50.833 29.5 70.5s43.167 29.5 70.5 29.5s50.833 -9.83301 70.5 -29.5s29.5 -43.167 29.5 -70.5z" />
    <glyph glyph-name="u0C01" unicode="&#xc01;" horiz-adv-x="558" 
d="M493 -20c-126 0 -229.332 43.668 -309.999 131.001c-79.333 85.333 -119 191.333 -119 318c0 119.333 41.667 220.666 125 303.999s184.666 125 303.999 125v-160c-74 0 -137.333 -26.333 -190 -79s-79 -116 -79 -190s26.667 -134.333 80 -181
c51.333 -45.333 114.333 -68 189 -68v-200z" />
    <glyph glyph-name="u0C02" unicode="&#xc02;" horiz-adv-x="986" 
d="M922 429c0 -126.667 -39.665 -232.667 -118.998 -318c-80.667 -87.333 -184 -131 -310 -131s-229.333 43.667 -310 131c-79.333 85.333 -119 191.333 -119 318c0 119.333 41.667 220.666 125 303.999s184.666 125 303.999 125s220.666 -41.667 303.999 -125
s125 -184.666 125 -303.999zM762.002 429c0 74 -26.333 137.333 -79 190s-116 79 -190 79s-137.333 -26.333 -190 -79s-79 -116 -79 -190s26.667 -134.333 80 -181c51.333 -45.333 114.333 -68 189 -68s138.167 23 190.5 69s78.5 106 78.5 180z" />
    <glyph glyph-name="u0C03" unicode="&#xc03;" horiz-adv-x="352" 
d="M288 639c0 -30.667 -11 -57 -33 -79s-48.333 -33 -79 -33s-57 11 -79 33s-33 48.333 -33 79s11 57 33 79s48.333 33 79 33s57 -11 79 -33s33 -48.333 33 -79zM288 92c0 -30.667 -11 -57 -33 -79s-48.333 -33 -79 -33s-57 11 -79 33s-33 48.333 -33 79s11 57 33 79
s48.333 33 79 33s57 -11 79 -33s33 -48.333 33 -79z" />
    <glyph glyph-name="u0C05" unicode="&#xc05;" horiz-adv-x="1464" 
d="M1400 614c0 -191.333 -63.001 -345.663 -189.001 -462.996c-122.667 -114 -280.667 -171 -474 -171c-188.667 0 -347 58 -475 174c-132 120 -198 273.333 -198 460c0 98.667 27.333 185.667 82 261c60.667 83.333 138.667 125 234 125
c74.667 0 138.334 -26.333 191.001 -79s79 -116.334 79 -191.001s-26.333 -138.334 -79 -191.001s-116.334 -79 -191.001 -79c-58.667 0 -107.667 18 -147 54c44 -222.667 212 -334 504 -334c148 0 266.333 34.667 355 104c98.667 76 148 186 148 330
c0 61.333 -12 112 -36 152c-29.333 49.333 -72.666 74 -129.999 74c-30 0 -55.667 -10.667 -77 -32s-32 -47 -32 -77c0 -30.667 10.5 -56.834 31.5 -78.501s46.833 -32.5 77.5 -32.5v-160h-349v160h105c-16.667 32 -25 69 -25 111c0 74.667 26.167 138.167 78.5 190.5
s115.833 78.5 190.5 78.5c97.333 0 177.333 -41 240 -123c57.333 -74.667 86 -162.334 86 -263.001zM489.999 730.003c0 30.667 -10.667 56.667 -32 78s-47.333 32 -78 32c-32 0 -61 -10.5 -87 -31.5s-43.333 -47.167 -52 -78.5c6 -31.333 22.5 -57.5 49.5 -78.5
s56.833 -31.5 89.5 -31.5c30.667 0 56.667 10.667 78 32s32 47.333 32 78z" />
    <glyph glyph-name="u0C06" unicode="&#xc06;" horiz-adv-x="1508" 
d="M1445 731c0 -47.333 -15.1689 -94.165 -45.502 -140.498s-67.166 -79.5 -110.499 -99.5c40 -38.667 60 -78.667 60 -120c0 -132.667 -71.667 -234.667 -215 -306c-113.333 -56.667 -244 -85 -392 -85c-138.667 0 -262 31.667 -370 95
c-112.667 66 -196.667 160.333 -252 283c-37.333 82.667 -56 168 -56 256c0 98.667 26.667 185.334 80 260.001c59.333 84 136.333 126 231 126c74.667 0 138.334 -26.333 191.001 -79s79 -116.334 79 -191.001s-26.333 -138.334 -79 -191.001s-116.334 -79 -191.001 -79
c-58.667 0 -107.667 18 -147 54c23.333 -114 87 -200.333 191 -259c89.333 -50 197 -75 323 -75c92.667 0 180.334 10.667 263.001 32c122.667 31.333 184 79 184 143c0 29.333 -20.333 54 -61 74h-344v160h182c-39.333 37.333 -59 84.666 -59 141.999
c0 75.333 26 139 78 191s115.667 78 191 78c76 0 139.833 -25.833 191.5 -77.5s77.5 -115.5 77.5 -191.5zM1286 730.001c0 30.667 -10.667 56.668 -32 78.001s-47.333 32 -78 32c-30 0 -55.833 -10.833 -77.5 -32.5s-32.5 -47.5 -32.5 -77.5c0 -62 28.333 -108.333 85 -139
c90 11.333 135 57.666 135 138.999zM484.998 730.002c0 30.667 -9.83301 56.667 -29.5 78s-44.834 32 -75.501 32c-32 0 -61 -10.5 -87 -31.5s-43.333 -47.167 -52 -78.5c6 -31.333 22.5 -57.5 49.5 -78.5s56.833 -31.5 89.5 -31.5c30.667 0 55.834 10.667 75.501 32
s29.5 47.333 29.5 78z" />
    <glyph glyph-name="u0C07" unicode="&#xc07;" horiz-adv-x="1414" 
d="M1350 604c0 -164.667 -68.3359 -309.334 -205.003 -434.001c19.333 -28 36.333 -67.667 51 -119s22.334 -95 23.001 -131h-160c0.666992 69.333 -13.666 124.666 -42.999 165.999c-57.333 -40 -105.666 -67.333 -144.999 -82c-46 -17.333 -100.667 -26 -164 -26
c-81.333 0 -148 23.833 -200 71.5s-78 111.834 -78 192.501c0 68.667 25 126.5 75 173.5s109.667 70.5 179 70.5c141.333 0 264.666 -60.667 369.999 -182c38.667 37.333 71 83.333 97 138c26.667 57.333 40 111.333 40 162c0 68.667 -15.667 124 -47 166
c-35.333 46.667 -86 70 -152 70c-61.333 0 -110.666 -19 -147.999 -57s-56 -88 -56 -150h-160c0 62 -18.833 112 -56.5 150s-87.167 57 -148.5 57c-56.667 0 -103.334 -18.667 -140.001 -56s-55 -84.333 -55 -141c0 -54.667 18 -100 54 -136l-113 -113
c-68.667 68.667 -103 151 -103 247c0 100.667 34.333 185.667 103 255s153.334 104 254.001 104c122 0 217 -47 285 -141c22 46 62.333 82 121 108c50.667 22 105 33 163 33c111.333 0 200 -38.667 266 -116c62 -73.333 93 -166.666 93 -279.999zM929.997 215
c-64 76.667 -146.331 115 -246.998 115c-24.667 0 -46.5 -8.5 -65.5 -25.5s-28.5 -37.833 -28.5 -62.5c0 -28 13 -51 39 -69c23.333 -16 49.666 -24 78.999 -24c81.333 0 155.666 22 222.999 66z" />
    <glyph glyph-name="u0C08" unicode="&#xc08;" horiz-adv-x="1782" 
d="M1719 361c0 -56.667 -19.9941 -105.332 -59.9941 -145.999s-88.333 -61 -145 -61s-105.334 20.333 -146.001 61s-61 89.334 -61 146.001c0 24.667 5.33301 51 16 79h-121c-14.667 -126.667 -69.334 -235 -164.001 -325s-205.334 -135 -332.001 -135
s-237.334 45 -332.001 135s-149.334 198.333 -164.001 325h-146v126h146c11.333 84.667 42.5 161.667 93.5 231s115.167 121.666 192.5 156.999l-73 87l91 90c43.333 -50.667 70.333 -80.334 81 -89.001c33.333 -28 70.333 -42 111 -42c51.333 0 114.666 38 189.999 114
c33.333 33.333 84.333 93 153 179l108 -96c-92.667 -118 -167.667 -201.333 -225 -250c156 -79.333 246 -206.333 270 -381h265c28.667 0 52.667 9.5 72 28.5s29 42.833 29 71.5c0 27.333 -10 51.166 -30 71.499s-43.667 30.5 -71 30.5v126c63.333 0 117 -22.167 161 -66.5
s66 -98.166 66 -161.499c0 -54.667 -17 -103 -51 -145c50.667 -44 76 -97.333 76 -160zM1593.01 361.002c0 22 -7.66699 40.667 -23 56s-34 23 -56 23s-41 -7.66699 -57 -23s-24 -34 -24 -56s8 -41 24 -57s35 -24 57 -24s40.667 8 56 24s23 35 23 57zM1040.01 566.002
c-16 80 -55.333 145.667 -118 197s-134.667 77 -216 77s-153.333 -25.667 -216 -77s-102 -117 -118 -197h668zM1041.01 440.002h-669.998c14.667 -80.667 54 -144.667 118 -192c61.333 -45.333 133.666 -68 216.999 -68s155.666 22.667 216.999 68
c64 47.333 103.333 111.333 118 192z" />
    <glyph glyph-name="u0C09" unicode="&#xc09;" horiz-adv-x="1414" 
d="M1378 217c0 -69.333 -31.332 -127 -93.999 -173c-57.333 -42.667 -121.666 -64 -192.999 -64c-157.333 0 -269 69 -335 207c-21.333 -61.333 -59.166 -111.166 -113.499 -149.499s-113.833 -57.5 -178.5 -57.5c-123.333 0 -222.333 46.333 -297 139
c-68.667 86 -103 192.333 -103 319c0 174 62.667 312.667 188 416c116.667 97.333 263.667 146 441 146v200h126v-200c130 0 262 -30 396 -90l-80 -149c-120.667 52.667 -249.334 79 -386.001 79c-266.667 0 -430.334 -75.333 -491.001 -226h1092v-126h-1121
c-3.33301 -10.667 -5 -27.334 -5 -50.001c0 -172 80 -258 240 -258c137.333 0 205.666 62 204.999 186h160c-0.666992 -116 63 -193 191 -231c-13.333 26.667 -20 54 -20 82c0 52 18.5 96.5 55.5 133.5s81.5 55.5 133.5 55.5s96.5 -18.5 133.5 -55.5s55.5 -81.5 55.5 -133.5
zM1259 217c0 19.333 -6.83301 35.833 -20.5 49.5s-30.167 20.5 -49.5 20.5s-35.833 -6.83301 -49.5 -20.5s-20.5 -30.167 -20.5 -49.5c0 -36 14 -65.667 42 -89c65.333 0 98 29.667 98 89z" />
    <glyph glyph-name="u0C0A" unicode="&#xc0a;" horiz-adv-x="1862" 
d="M1798 425c0 -56.667 -19.9951 -104.834 -59.9951 -144.501s-88.333 -59.5 -145 -59.5s-104.834 19.833 -144.501 59.5s-59.5 87.834 -59.5 144.501c0 22 3.66699 43 11 63h-1172c-2.66699 -8.66699 -4 -25.334 -4 -50.001c0 -172 80 -258 240 -258
c136.667 0 205 62 205 186h160c0 -116 63.667 -193 191 -231c-13.333 27.333 -20 54.666 -20 81.999c0 52 18.5 96.5 55.5 133.5s81.5 55.5 133.5 55.5s96.5 -18.5 133.5 -55.5s55.5 -81.5 55.5 -133.5c0 -75.333 -29.667 -135 -89 -179
c-53.333 -38.667 -119.333 -58 -198 -58c-156.667 0 -268.334 69 -335.001 207c-20.667 -62 -58 -112 -112 -150s-114 -57 -180 -57c-190.667 0 -315.334 98.333 -374.001 295c-17.333 56.667 -26 111 -26 163c0 200.667 81.333 352.334 244 455.001
c94 59.333 185.667 91.333 275 96v211h126v-200c21.333 1.33301 42.666 2 63.999 2c20.667 0 41.334 -0.666992 62.001 -2v200h126v-210c89.333 -8 174 -34.667 254 -80l-80 -149c-94.667 52.667 -219 79 -373 79c-274.667 0 -442.334 -75.333 -503.001 -226h1286
c29.333 0 54 12.333 74 37c19.333 22.667 29 49 29 79c0 28 -9.83301 51.833 -29.5 71.5s-43.5 29.5 -71.5 29.5v118c61.333 0 113.166 -21.167 155.499 -63.5s63.5 -94.166 63.5 -155.499c0 -50 -17.333 -96.667 -52 -140c56 -42 84 -97 84 -165zM1673 424
c0 22 -7.83301 40.833 -23.5 56.5s-34.5 23.5 -56.5 23.5s-40.667 -7.83301 -56 -23.5s-23 -34.5 -23 -56.5s7.66699 -40.667 23 -56s34 -23 56 -23s40.833 7.66699 56.5 23s23.5 34 23.5 56zM1259 217c0 19.333 -6.83301 35.833 -20.5 49.5s-30.167 20.5 -49.5 20.5
s-35.833 -6.83301 -49.5 -20.5s-20.5 -30.167 -20.5 -49.5c0 -36 14 -65.667 42 -89c65.333 0 98 29.667 98 89z" />
    <glyph glyph-name="u0C0B" unicode="&#xc0b;" horiz-adv-x="2602" 
d="M2538 459c0 -130.667 -33.998 -240.997 -101.998 -330.997c-74.667 -98.667 -175.334 -148 -302.001 -148c-118.667 0 -216 52.667 -292 158c-84 -105.333 -184.667 -158 -302 -158s-213.666 51.667 -288.999 155c-80.667 -103.333 -179 -155 -295 -155
c-110.667 0 -203.667 49 -279 147c-64 -98 -154.333 -147 -271 -147c-96.667 0 -177.834 33.5 -243.501 100.5s-98.5 149.167 -98.5 246.5c0 103.333 34.667 181.666 104 234.999c30 22.667 94.667 52 194 88c69.333 25.333 104 55.666 104 90.999c0 66 -32.667 99 -98 99
c-26.667 0 -49.5 -9.83301 -68.5 -29.5s-28.5 -42.834 -28.5 -69.501h-160c0 70.667 25.167 131.5 75.5 182.5s110.833 76.5 181.5 76.5c69.333 0 129.666 -25.833 180.999 -77.5s77 -112.167 77 -181.5c0 -88.667 -34.667 -153.667 -104 -195l-194 -78
c-69.333 -31.333 -104 -78.333 -104 -141c0 -98 60.667 -147 182 -147c55.333 0 100.833 14.833 136.5 44.5s53.5 71.5 53.5 125.5h160c-0.666992 -113.333 66 -170 200 -170c156 0 234 93 234 279c0 118.667 -39.333 212.667 -118 282c-74.667 66 -172.334 99 -293.001 99
v160c158 0 292 -50.333 402 -151c112.667 -103.333 169 -233.333 169 -390c0 -12.667 -1.66699 -33 -5 -61s-5 -48.333 -5 -61c6.66699 -44.667 28.334 -82 65.001 -112s81.667 -45 135 -45c81.333 0 143.333 27 186 81c38.667 48.667 58 114.667 58 198
c0 118.667 -39.333 212.667 -118 282c-74.667 66 -172.334 99 -293.001 99v160c158 0 292 -50.333 402 -151c112.667 -103.333 169 -233.333 169 -390c0 -12 -1.66699 -31.667 -5 -59s-5 -47 -5 -59c18.667 -107.333 85.334 -161 200.001 -161c81.333 0 143.333 27 186 81
c38.667 48.667 58 114.667 58 198c0 118.667 -39.333 212.667 -118 282c-74.667 66 -172.334 99 -293 99v160c158 0 292 -50.333 402 -151c112.667 -103.333 169 -233.333 169 -390z" />
    <glyph glyph-name="u0C0C" unicode="&#xc0c;" horiz-adv-x="1544" 
d="M1480 666c0 -192.667 -68.832 -355.166 -206.499 -487.499s-303.167 -198.5 -496.5 -198.5c-130.667 0 -242.667 23.667 -336 71c-119.333 60 -179 149 -179 267c0 81.333 31.333 143.666 94 186.999c54 37.333 123.667 56 209 56c30.667 0 75.834 -4.33301 135.501 -13
s104.834 -13 135.501 -13c44.667 0 80.5 14.833 107.5 44.5s40.5 66.834 40.5 111.501c0 40 -14.667 74.833 -44 104.5s-64 44.5 -104 44.5c-42.667 0 -78.667 -14.167 -108 -42.5s-44 -63.833 -44 -106.5h-160c0 43.333 -14.5 79 -43.5 107s-65.167 42 -108.5 42
c-41.333 0 -76.333 -14.5 -105 -43.5s-43 -64.167 -43 -105.5c0 -34 7.66699 -62.333 23 -85l-116 -104c-44.667 54.667 -67 117.667 -67 189c0 84 30.333 156.5 91 217.5s133 91.5 217 91.5c88.667 0 166 -37.667 232 -113c65.333 75.333 142.666 113 231.999 113
c84.667 0 157.167 -30.333 217.5 -91s90.5 -133.334 90.5 -218.001c0 -85.333 -30.167 -159.333 -90.5 -222s-132.833 -94 -217.5 -94c-30.667 0 -75.834 4.33301 -135.501 13s-104.834 13 -135.501 13c-95.333 0 -143 -27.667 -143 -83c0 -61.333 46 -105.333 138 -132
c60 -17.333 132.333 -26 217 -26c155.333 0 286 49 392 147s159 217.667 159 359c0 90.667 -34 148.667 -102 174v160c78 -10 141 -50.667 189 -122c43.333 -63.333 65 -134 65 -212z" />
    <glyph glyph-name="u0C0E" unicode="&#xc0e;" horiz-adv-x="1290" 
d="M1226 570c0 -164 -31.998 -298.001 -95.998 -402.001c-76.667 -125.333 -192 -188 -346 -188c-108.667 0 -186 44.667 -232 134c-58.667 -76 -131.334 -114 -218.001 -114c-74.667 0 -138.334 26.333 -191.001 79s-79 116.334 -79 191.001s26.333 138.334 79 191.001
s116.334 79 191.001 79c126 0 214 -74 264 -222c17.333 -50.667 39.333 -86.334 66 -107.001s66.667 -31 120 -31c188 0 282 130 282 390c0 198 -64.833 360.167 -194.5 486.5s-293.834 189.5 -492.501 189.5v160c238 0 438.667 -80 602 -240s245 -358.667 245 -596z
M462.002 275.999c-23.333 69.333 -66 104 -128 104c-30 0 -55.833 -10.833 -77.5 -32.5s-32.5 -47.5 -32.5 -77.5s10.833 -55.833 32.5 -77.5s47.5 -32.5 77.5 -32.5c34 0 63 11 87 33s37.667 49.667 41 83z" />
    <glyph glyph-name="u0C0F" unicode="&#xc0f;" horiz-adv-x="1340" 
d="M359 1011c-86 0 -159.167 30.166 -219.5 90.499s-90.5 133.5 -90.5 219.5c0 86.667 30 159.834 90 219.501s133.333 89.5 220 89.5v-160c-41.333 0 -76.666 -14.5 -105.999 -43.5s-44 -64.167 -44 -105.5c0 -40 15.167 -75 45.5 -105s65.166 -45 104.499 -45v-160z
M1226 569.999c0 -164 -31.998 -298.002 -95.998 -402.002c-76.667 -125.333 -192 -188 -346 -188c-108 0 -185.333 44.667 -232 134c-58.667 -76 -131.334 -114 -218.001 -114c-74.667 0 -138.334 26.333 -191.001 79s-79 116.334 -79 191.001s26.333 138.334 79 191.001
s116.334 79 191.001 79c134.667 0 222.667 -74 264 -222c26 -92 88 -138 186 -138c188 0 282 130 282 390c0 198 -64.833 360.167 -194.5 486.5s-293.834 189.5 -492.501 189.5v160c238 0 438.667 -80 602 -240s245 -358.667 245 -596zM462.002 275.997
c-23.333 69.333 -66 104 -128 104c-30 0 -55.833 -10.833 -77.5 -32.5s-32.5 -47.5 -32.5 -77.5s10.833 -55.833 32.5 -77.5s47.5 -32.5 77.5 -32.5c32 0 60.333 10.5 85 31.5s39 49.167 43 84.5z" />
    <glyph glyph-name="u0C10" unicode="&#xc10;" horiz-adv-x="1414" 
d="M1350 483c0 -138.667 -44.333 -256.333 -133 -353c-91.333 -100 -205.666 -150 -342.999 -150c-114.667 0 -222 44.667 -322 134c-58.667 -76 -131.334 -114 -218.001 -114c-74 0 -137.5 26.5 -190.5 79.5s-79.5 116.5 -79.5 190.5c0 74.667 26.333 138.334 79 191.001
s116.334 79 191.001 79c76.667 0 138.667 -29 186 -87c15.333 -18.667 42 -67 80 -145c41.333 -85.333 132.666 -128 273.999 -128c92.667 0 168.5 27.5 227.5 82.5s88.5 128.5 88.5 220.5c0 100.667 -25.333 183.667 -76 249c-55.333 72 -132 108 -230 108
c-42.667 0 -85.667 -14.333 -129 -43c-48 -31.333 -72 -67 -72 -107h-160c0 41.333 -14.5 76.666 -43.5 105.999s-64.167 44 -105.5 44c-40 0 -75 -15 -105 -45s-45 -65 -45 -105h-160c0 85.333 30.333 158.333 91 219s133.667 91 219 91c98 0 178 -37.667 240 -113
c77.333 75.333 167 113 269 113c139.333 0 253.333 -52 342 -156c83.333 -98.667 125 -219 125 -361zM462 276.001c-23.333 69.333 -66 104 -128 104c-30 0 -55.833 -10.833 -77.5 -32.5s-32.5 -47.5 -32.5 -77.5s10.833 -55.833 32.5 -77.5s47.5 -32.5 77.5 -32.5
c32 0 60.333 10.5 85 31.5s39 49.167 43 84.5z" />
    <glyph glyph-name="u0C12" unicode="&#xc12;" horiz-adv-x="1414" 
d="M1350 378c0 -108 -32.333 -200.332 -97 -276.999c-68 -80.667 -155 -121 -261 -121c-134.667 0 -229.667 53.667 -285 161c-52 -107.333 -147 -161 -285 -161c-105.333 0 -191.333 31.833 -258 95.5s-100 147.5 -100 251.5c0 94.667 34.667 168.667 104 222
c27.333 20.667 92 52.334 194 95.001c69.333 28.667 104 61 104 97c0 66 -32.667 99 -98 99c-26.667 0 -49.5 -9.83301 -68.5 -29.5s-28.5 -42.834 -28.5 -69.501h-160c0 70.667 25.167 131.5 75.5 182.5s110.833 76.5 181.5 76.5c71.333 0 132.166 -25.333 182.499 -76
s75.5 -111.667 75.5 -183c0 -88.667 -34.667 -155 -104 -199l-194 -82c-69.333 -31.333 -104 -75.666 -104 -132.999c0 -98 66 -147 198 -147c55.333 0 103.333 17.5 144 52.5s61 79.833 61 134.5h160c0 -60.667 19.333 -107.334 58 -140.001
c36.667 -31.333 85.667 -47 147 -47c60.667 0 108.834 17.667 144.501 53s53.5 83.333 53.5 144c0 67.333 -25.333 121.666 -76 162.999l119 113c78 -78 117 -169.667 117 -275z" />
    <glyph glyph-name="u0C13" unicode="&#xc13;" horiz-adv-x="1414" 
d="M1350 378c0 -108 -32.335 -200.332 -97.002 -276.999c-68 -80.667 -155 -121 -261 -121c-134.667 0 -229.667 53.667 -285 161c-52 -107.333 -147 -161 -285 -161c-107.333 0 -193.833 31.333 -259.5 94s-98.5 147 -98.5 253c0 94.667 34.667 168.667 104 222
c27.333 20.667 92 52.334 194 95.001c69.333 28.667 104 61 104 97c0 66 -32.667 99 -98 99c-26.667 0 -49.5 -9.83301 -68.5 -29.5s-28.5 -42.834 -28.5 -69.501h-160c0 74.667 26 136.5 78 185.5s115.333 73.5 190 73.5c0 40 16.333 80.667 49 122
c45.333 58 108 87 188 87c66.667 0 123.334 -23.333 170.001 -70s70 -103.334 70 -170.001h-160c0 22 -7.83301 40.833 -23.5 56.5s-34.5 23.5 -56.5 23.5s-40.833 -7.83301 -56.5 -23.5s-23.5 -34.5 -23.5 -56.5c0 -11.333 15 -40 45 -86s45 -93.333 45 -142
c0 -88.667 -34.667 -155 -104 -199l-194 -82c-69.333 -31.333 -104 -75.666 -104 -132.999c0 -98 66 -147 198 -147c57.333 0 105.833 17.167 145.5 51.5s59.5 79.5 59.5 135.5h160c0 -60.667 19.333 -107.334 58 -140.001c36.667 -31.333 85.667 -47 147 -47
c60.667 0 108.834 17.667 144.501 53s53.5 83.333 53.5 144c0 68.667 -25.333 123 -76 163l119 113c78 -78 117 -169.667 117 -275z" />
    <glyph glyph-name="u0C14" unicode="&#xc14;" horiz-adv-x="1584" 
d="M1520 997c0 -70 -23.668 -130.503 -71.001 -181.503s-105.666 -76.5 -174.999 -76.5c-70 0 -128.667 25.333 -176 76s-71 111.334 -71 182.001c0 52.667 15.667 96.334 47 131.001h-320c6 -29.333 9 -51 9 -65c0 -50 -16.333 -93.167 -49 -129.5s-74 -56.5 -124 -60.5
c24 -40.667 36 -84.667 36 -132c0 -88.667 -34.667 -155 -104 -199l-194 -82c-69.333 -31.333 -104 -75.666 -104 -132.999c0 -98 66 -147 198 -147c58 0 106 16.667 144 50c40.667 34.667 61 80.334 61 137.001h160c0 -60.667 19.333 -107.334 58 -140.001
c36.667 -31.333 85.667 -47 147 -47c60.667 0 108.834 17.667 144.501 53s53.5 83.333 53.5 144c0 68.667 -25.333 123 -76 163l119 113c78 -78 117 -169.667 117 -275c0 -108 -32.333 -200.333 -97 -277c-68 -80.667 -155 -121 -261 -121
c-134.667 0 -229.667 53.667 -285 161c-52 -107.333 -147 -161 -285 -161c-166.667 0 -277 70.333 -331 211c-18 46 -27 91.333 -27 136c0 94.667 34.667 168.667 104 222c27.333 20.667 92 52.334 194 95.001c69.333 28.667 104 61 104 97c0 66 -32.667 99 -98 99
c-26.667 0 -49.5 -9.83301 -68.5 -29.5s-28.5 -42.834 -28.5 -69.501h-160c0 45.333 12.333 89 37 131h-23v128h447c42.667 0 64 21.333 64 64c0 16.667 -6.5 31.5 -19.5 44.5s-27.833 19.5 -44.5 19.5h-552v128h1254c69.333 0 127.666 -25.667 174.999 -77s71 -112 71 -182
zM1396 997.997c0 28.667 -9.33398 55.333 -28.001 80c-21.333 28 -48.666 42 -81.999 42h-52c-54.667 -14 -82 -54.667 -82 -122c0 -33.333 12 -62 36 -86s52.667 -36 86 -36s62 12 86 36s36 52.667 36 86z" />
    <glyph glyph-name="u0C15" unicode="&#xc15;" horiz-adv-x="1128" 
d="M1056 698l-160 -0.000976562c0 48.667 -45 86.334 -135 113.001c-65.333 19.333 -131 29 -197 29c-226.667 0 -340 -47.333 -340 -142c0 -59.333 45.333 -96.333 136 -111c27.333 -4.66699 95.333 -7 204 -7c138.667 0 242 -13.333 310 -40
c108 -42.667 162 -122 162 -238c0 -113.333 -53.333 -198.333 -160 -255c-84 -44.667 -188 -67 -312 -67c-68.667 0 -134.334 9 -197.001 27c-78.667 22 -145.667 56.333 -201 103c-68 56.667 -102 120.667 -102 192h160c0 -48 46.667 -85.333 140 -112
c67.333 -20 134 -30 200 -30c208 0 312 47.333 312 142c0 54 -41.333 89.667 -124 107c-37.333 7.33301 -100 11 -188 11c-333.333 0 -500 92.667 -500 278c0 141.333 90 234 270 278l-53 65l91 90c49.333 -56.667 76.333 -87 81 -91c31.333 -26.667 68.333 -40 111 -40
c86 0 213.667 111 383 333l108 -96l-113 -144c-44.667 -54 -87 -98 -127 -132c64.667 -20 119.334 -51.667 164.001 -95c51.333 -50 77 -106 77 -168zM564 90.999z" />
    <glyph glyph-name="u0C16" unicode="&#xc16;" horiz-adv-x="1536" 
d="M1482 472c0 -143.333 -40.999 -260.334 -122.999 -351.001c-84.667 -94 -197.667 -141 -339 -141c-124.667 0 -238.667 46 -342 138c-92 -92 -203.667 -138 -335 -138c-74 0 -134.667 21.333 -182 64c-50 44.667 -75 103.334 -75 176.001c0 61.333 20.667 113.5 62 156.5
s92.333 64.5 153 64.5c129.333 0 244 -38.333 344 -115c32.667 53.333 49 113.666 49 180.999c0 92.667 -25.667 169 -77 229c-10.667 -51.333 -36.167 -93.5 -76.5 -126.5s-86.833 -49.5 -139.5 -49.5c-60.667 0 -112.5 21.5 -155.5 64.5s-64.5 94.833 -64.5 155.5
c0 62.667 23.167 115 69.5 157s107.166 63 182.499 63c118 0 218.333 -49.667 301 -149c80 -96.667 120 -211.334 120 -344.001c0 -87.333 -26 -176.666 -78 -267.999c54.667 -39.333 136 -59 244 -59c93.333 0 167 25.5 221 76.5s81 122.833 81 215.5
c0 104.667 -32.333 192.167 -97 262.5s-149 105.5 -253 105.5v160c146 0 268 -51.667 366 -155c96 -101.333 144 -225.666 144 -372.999zM763.001 -158.001c0 -23.333 -8.16699 -43.168 -24.5 -59.501s-36.166 -24.5 -59.499 -24.5c-22.667 0 -42.334 8.33301 -59.001 25
s-25 36.334 -25 59.001c0 49.333 28 102 84 158c56 -56 84 -108.667 84 -158zM519.001 818.997c-36.667 28.667 -70 43.001 -100 43.001c-28 0 -51.333 -8 -70 -24s-28 -35.333 -28 -58c0 -21.333 8 -39.833 24 -55.5s34.667 -23.834 56 -24.501
c31.333 -1.33301 58.833 10 82.5 34s35.5 52.333 35.5 85zM544.001 213.998c-68 58 -147.999 87.001 -239.999 87.001c-20.667 0 -38.334 -8.33301 -53.001 -25s-22 -35.334 -22 -56.001c0 -53.333 38 -80 114 -80c80.667 0 147.667 24.667 201 74z" />
    <glyph glyph-name="u0C17" unicode="&#xc17;" horiz-adv-x="1128" 
d="M1064 470c0 -159.333 -39.9971 -316 -119.997 -470l-148 82c72 133.333 108 262.666 108 387.999c0 94 -33 178.333 -99 253c-68 78 -148.333 117 -241 117s-173 -39 -241 -117c-66 -74.667 -99 -159 -99 -253c0 -125.333 36 -254.666 108 -387.999l-148 -82
c-80 154 -120 310.667 -120 470c0 98.667 26.667 192.667 80 282s124 156 212 200l-75 89l91 90c48.667 -56 75.667 -86.333 81 -91c30.667 -26.667 67.667 -40 111 -40c59.333 0 130.666 43 213.999 129c30.667 32 87 100 169 204l108 -96
c-64.667 -84.667 -105.334 -137 -122.001 -157c-50 -58.667 -97.333 -104.667 -142 -138c83.333 -46 149.666 -112.167 198.999 -198.5s74 -177.5 74 -273.5zM564.003 91z" />
    <glyph glyph-name="u0C18" unicode="&#xc18;" horiz-adv-x="2158" 
d="M2100 483c0 -138.667 -43.0039 -256.337 -129.004 -353.004c-89.333 -100 -202.666 -150 -339.999 -150c-90.667 0 -164.167 13.833 -220.5 41.5s-110.833 77.834 -163.5 150.501c-99.333 -128 -223.666 -192 -372.999 -192c-76.667 0 -136 8.83301 -178 26.5
s-90 53.5 -144 107.5c-58.667 -76 -131.334 -114 -218.001 -114c-74.667 0 -138.334 26.333 -191.001 79s-79 116.334 -79 191.001s26.5 138.334 79.5 191.001s116.5 79 190.5 79c74.667 0 133.334 -27 176.001 -81l106 -175c46 -69.333 132 -104 258 -104
c92.667 0 168.5 27.5 227.5 82.5s88.5 128.5 88.5 220.5c0 100 -32 184.5 -96 253.5s-145.667 103.5 -245 103.5v160c140.667 0 259.334 -50.833 356.001 -152.5s145 -223.167 145 -364.5c0 -14 -2.33301 -34.333 -7 -61s-7 -47 -7 -61c0 -61.333 34.667 -108.333 104 -141
c55.333 -26.667 119 -40 191 -40c92.667 0 167.334 27.333 224.001 82s85 128.334 85 221.001c0 100 -32.5 184.5 -97.5 253.5s-147.167 103.5 -246.5 103.5v160c140.667 0 259.834 -50.833 357.501 -152.5s146.5 -223.167 146.5 -364.5zM837.996 1213
c-90.667 -118.667 -161.668 -202.333 -213.001 -251c-101.333 -97.333 -194 -146 -278 -146c-57.333 0 -111.666 22 -162.999 66c-21.333 18.667 -61.333 63.667 -120 135l91 90c43.333 -51.333 70.333 -81.333 81 -90c32 -27.333 69 -41 111 -41c58.667 0 130 43 214 129
c38.667 39.333 95 107.333 169 204zM625.995 -158.002c0 -23.333 -8.16699 -43.1689 -24.5 -59.502s-36.166 -24.5 -59.499 -24.5c-22.667 0 -42.334 8.33301 -59.001 25s-25 36.334 -25 59.001c0 62.667 28 115.334 84 158.001c56 -56 84 -108.667 84 -158z
M461.995 275.995c-23.333 69.333 -66 104 -128 104c-30 0 -55.833 -10.833 -77.5 -32.5s-32.5 -47.5 -32.5 -77.5s10.833 -55.833 32.5 -77.5s47.5 -32.5 77.5 -32.5c32 0 60.333 10.5 85 31.5s39 49.167 43 84.5z" />
    <glyph glyph-name="u0C19" unicode="&#xc19;" horiz-adv-x="1414" 
d="M1350 378c0 -108 -32.335 -200.331 -97.002 -276.998c-68 -80.667 -155 -121 -261 -121c-134.667 0 -229.667 53.667 -285 161c-52 -107.333 -147 -161 -285 -161c-106 0 -192.167 31.667 -258.5 95s-99.5 147.333 -99.5 252c0 94.667 34.667 168.667 104 222
c27.333 21.333 92 53 194 95c69.333 28.667 104 61 104 97c0 66 -32.667 99 -98 99c-26.667 0 -49.5 -9.83301 -68.5 -29.5s-28.5 -42.834 -28.5 -69.501h-160c0 70.667 25.167 131.5 75.5 182.5s110.833 76.5 181.5 76.5c60.667 0 114.834 -19.5 162.501 -58.5
s77.834 -88.167 90.501 -147.5h114v206h134v-206h142v-134h-396c-17.333 -59.333 -60.333 -106 -129 -140l-174 -70c-58.667 -29.333 -88 -70.333 -88 -123c0 -98 66 -147 198 -147c57.333 0 105.833 17.167 145.5 51.5s59.5 79.5 59.5 135.5h160
c0 -60.667 19.333 -107.334 58 -140.001c36.667 -31.333 85.667 -47 147 -47c56 0 103 18.833 141 56.5s57 84.5 57 140.5c0 60.667 -25.333 115 -76 163l119 113c78 -78 117 -169.667 117 -275zM706.998 91.002z" />
    <glyph glyph-name="u0C1A" unicode="&#xc1a;" horiz-adv-x="1414" 
d="M1350 377c0 -113.333 -30.999 -206.668 -92.999 -280.001c-66 -78 -154.333 -117 -265 -117c-144 0 -239 53.667 -285 161c-47.333 -107.333 -142.333 -161 -285 -161c-106 0 -193 39.333 -261 118c-64.667 74.667 -97 166 -97 274c0 86 25.667 154.667 77 206h-132v147
h415v-147c-56.667 0 -104.167 -20 -142.5 -60s-57.5 -88.667 -57.5 -146c0 -58 18.333 -104.5 55 -139.5s84.334 -52.5 143.001 -52.5c58 0 106.667 17 146 51s59 79.333 59 136h160c0 -58.667 20 -105 60 -139c37.333 -32 85.666 -48 144.999 -48
c61.333 0 109.666 17.5 144.999 52.5s53 83.167 53 144.5c0 128 -54.333 238.333 -163 331c-103.333 88 -220 132 -350 132c-58 0 -112.333 22 -163 66c-20 17.333 -60 62.333 -120 135l91 90c46 -53.333 73 -83.333 81 -90c31.333 -27.333 68.333 -41 111 -41
c84.667 0 212.334 111 383.001 333l108 -96c-52 -68.667 -91.333 -119 -118 -151c-46.667 -54.667 -91.334 -99.667 -134.001 -135c124 -47.333 226 -121.333 306 -222c85.333 -107.333 128 -224.666 128 -351.999zM707.001 90.998z" />
    <glyph glyph-name="u0C1B" unicode="&#xc1b;" horiz-adv-x="1414" 
d="M1350 377c0 -113.333 -30.999 -206.668 -92.999 -280.001c-66 -78 -154.333 -117 -265 -117c-144 0 -239 53.667 -285 161c-47.333 -107.333 -142.333 -161 -285 -161c-106 0 -193 39.333 -261 118c-64.667 74.667 -97 166 -97 274c0 86 25.667 154.667 77 206h-132v147
h415v-147c-56.667 0 -104.167 -20 -142.5 -60s-57.5 -88.667 -57.5 -146c0 -58 18.333 -104.5 55 -139.5s84.334 -52.5 143.001 -52.5c58 0 106.667 17 146 51s59 79.333 59 136h160c0 -58.667 20 -105 60 -139c37.333 -32 85.666 -48 144.999 -48
c61.333 0 109.666 17.5 144.999 52.5s53 83.167 53 144.5c0 128 -54.333 238.333 -163 331c-103.333 88 -220 132 -350 132c-58 0 -112.333 22 -163 66c-20 17.333 -60 62.333 -120 135l91 90c46 -53.333 73 -83.333 81 -90c31.333 -27.333 68.333 -41 111 -41
c84.667 0 212.334 111 383.001 333l108 -96c-52 -68.667 -91.333 -119 -118 -151c-46.667 -54.667 -91.334 -99.667 -134.001 -135c124 -47.333 226 -121.333 306 -222c85.333 -107.333 128 -224.666 128 -351.999zM794.001 -158.002
c0 -23.333 -8.16699 -43.1689 -24.5 -59.502s-36.166 -24.5 -59.499 -24.5c-22.667 0 -42.334 8.33301 -59.001 25s-25 36.334 -25 59.001c0 54.667 28 107.334 84 158.001c56 -56 84 -108.667 84 -158z" />
    <glyph glyph-name="u0C1C" unicode="&#xc1c;" horiz-adv-x="1414" 
d="M1350 358c0 -107.333 -32.6719 -196.665 -98.0049 -267.998c-67.333 -73.333 -154 -110 -260 -110c-134.667 0 -229.667 53.667 -285 161c-51.333 -107.333 -146.333 -161 -285 -161c-110.667 0 -198 30.333 -262 91s-96 146 -96 256c0 94.667 34 168.667 102 222
c26.667 21.333 89.334 53.333 188.001 96c68 28.667 102 60.667 102 96c0 66 -32.667 99 -98 99c-26.667 0 -49.5 -9.83301 -68.5 -29.5s-28.5 -42.834 -28.5 -69.501h-160c0 70.667 25.167 131.5 75.5 182.5s110.833 76.5 181.5 76.5
c48.667 0 94.834 -13.833 138.501 -41.5s75.167 -63.5 94.5 -107.5l22 -66c14.667 -40 48 -76.667 100 -110c50 -32.667 97 -49 141 -49c38.667 0 73.334 8 104.001 24c37.333 19.333 56 46.666 56 81.999c0 72 -54.667 108 -164 108v160
c86.667 0 158.334 -20.333 215.001 -61c63.333 -46 95 -110.667 95 -194c0 -79.333 -32 -142.333 -96 -189c-58 -42.667 -128 -64 -210 -64c-40 0 -87.333 13.667 -142 41c-49.333 24 -91 51.667 -125 83c-23.333 -42 -67.666 -77.333 -132.999 -106l-155 -66
c-50 -29.333 -75 -68.333 -75 -117c0 -98 66 -147 198 -147c58 0 106 16.667 144 50c40.667 34.667 61 80.334 61 137.001h160c0 -60 19.333 -106.667 58 -140c36.667 -31.333 85.667 -47 147 -47c56.667 0 103 15 139 45c39.333 32.667 59 76.667 59 132
c0 37.333 -15.333 71.666 -46 102.999l119 113c58 -58 87 -129.667 87 -215zM706.995 91.001z" />
    <glyph glyph-name="u0C1D" unicode="&#xc1d;" horiz-adv-x="2602" 
d="M2543 483c0 -143.333 -42.335 -261.999 -127.002 -355.999c-87.333 -98 -202 -147 -344 -147c-86 0 -156.333 15.333 -211 46c-50.667 28.667 -102 79.334 -154 152.001c-56 -73.333 -108.667 -124 -158 -152c-55.333 -30.667 -126.666 -46 -213.999 -46
c-88 0 -161 16.667 -219 50c-53.333 30.667 -107 83.334 -161 158.001c-33.333 -65.333 -88.666 -117 -165.999 -155c-71.333 -35.333 -146.333 -53 -225 -53c-143.333 0 -263 51.333 -359 154c-94 100 -141 222 -141 366c0 97.333 26.333 187.166 79 269.499
s123 143.833 211 184.5l-73 87l91 90c36.667 -46 63.667 -76 81 -90c32.667 -27.333 69.667 -41 111 -41c88.667 0 216.334 111 383.001 333l108 -96c-68.667 -89.333 -109 -141.333 -121 -156c-49.333 -58.667 -96 -104.334 -140 -137.001c84 -42 150 -102.833 198 -182.5
s72 -166.834 72 -261.501c0 -15.333 -2 -37.666 -6 -66.999s-6 -51 -6 -65c22 -52.667 60.333 -97.167 115 -133.5s110.667 -54.5 168 -54.5c93.333 0 169 27.333 227 82s87 128.334 87 221.001c0 100 -32 184.5 -96 253.5s-145.667 103.5 -245 103.5v160
c140.667 0 259.334 -50.833 356.001 -152.5s145 -223.167 145 -364.5c0 -14.667 -1 -34 -3 -58c-2.66699 -30 -4.33398 -49 -5.00098 -57c53.333 -125.333 143.666 -188 270.999 -188c96 0 171.833 26.667 227.5 80s83.5 127.666 83.5 222.999
c0 99.333 -32.833 183.666 -98.5 252.999s-148.167 104 -247.5 104v160c140.667 0 260.167 -50.833 358.5 -152.5s147.5 -223.167 147.5 -364.5zM1792 -157.999c0 -22.667 -8.33203 -42.333 -24.999 -59s-36.334 -25 -59.001 -25c-22 0 -41.5 8.5 -58.5 25.5
s-25.5 36.5 -25.5 58.5c0 52 28 104.667 84 158c56 -55.333 84 -108 84 -158zM903.999 500.002c0 94.667 -33.002 175 -99.002 241s-146.333 99 -241 99s-175 -33 -241 -99s-99 -146.333 -99 -241c0 -94 33.667 -171.333 101 -232c64.667 -58.667 144.334 -88 239.001 -88
s174.334 29.333 239.001 88c67.333 60.667 101 138 101 232z" />
    <glyph glyph-name="u0C1E" unicode="&#xc1e;" horiz-adv-x="1768" 
d="M1704 660l-356 0.000976562c1.33301 -15.333 2 -34 2 -56c0 -164.667 -68.333 -309.334 -205 -434.001c19.333 -28 36.5 -67.667 51.5 -119s22.5 -95 22.5 -131h-160c0 70 -14.333 125.333 -43 166c-58 -40 -106.333 -67 -145 -81c-46.667 -18 -101.334 -27 -164.001 -27
c-75.333 0 -140 25 -194 75c-56 51.333 -84 114.333 -84 189c0 68.667 25 126.5 75 173.5s109.667 70.5 179 70.5c141.333 0 264.666 -60.667 369.999 -182c38.667 37.333 71 83.333 97 138c26.667 57.333 40 111.333 40 162c0 68.667 -15.667 124 -47 166
c-35.333 46.667 -86 70 -152 70c-61.333 0 -110.666 -19 -147.999 -57s-56 -88 -56 -150h-160c0 62 -18.833 112 -56.5 150s-87.167 57 -148.5 57c-56.667 0 -103.334 -18.667 -140.001 -56s-55 -84.333 -55 -141c0 -54.667 18 -100 54 -136l-113 -113
c-68.667 68.667 -103 151 -103 247c0 100.667 34.333 185.667 103 255s153.334 104 254.001 104c122 0 217 -47 285 -141c22 46 62.333 82 121 108c50.667 22 105 33 163 33c154.667 0 262.334 -68.667 323.001 -206h114v206h134v-206h142v-134zM930 215.001
c-64 76.667 -146.331 115 -246.998 115c-24.667 0 -46.5 -8.5 -65.5 -25.5s-28.5 -37.833 -28.5 -62.5c0 -28 13 -51 39 -69c23.333 -16 49.666 -24 78.999 -24c81.333 0 155.666 22 222.999 66zM884.002 91.001z" />
    <glyph glyph-name="u0C1f" unicode="&#xc1f;" horiz-adv-x="1414" 
d="M1367 459c0 -128 -30.998 -236.668 -92.998 -326.001c-70.667 -102 -167.334 -153 -290.001 -153c-123.333 0 -211.666 49 -264.999 147c-43.333 -98 -130.333 -147 -261 -147c-125.333 0 -226 53.667 -302 161c-68 95.333 -102 209.333 -102 342
c0 282.667 88.333 451.334 265 506.001v253h133v-250c60 -14.667 109.167 -46.5 147.5 -95.5s57.5 -104.5 57.5 -166.5c0 -74.667 -26.333 -138.334 -79 -191.001s-116.334 -79 -191.001 -79c-65.333 0 -120.333 26.667 -165 80c-4 -14 -6 -42.667 -6 -86
c0 -74.667 21.333 -138 64 -190c45.333 -56 104.666 -84 177.999 -84c51.333 0 94.166 15.5 128.499 46.5s51.5 72.167 51.5 123.5h160c0 -113.333 62 -170 186 -170c72.667 0 129.334 29.333 170.001 88c35.333 51.333 53 115 53 191
c0 112.667 -36.833 204.334 -110.5 275.001s-167.167 106 -280.5 106v160c158.667 0 290.167 -50.667 394.5 -152s156.5 -231 156.5 -389zM497.002 729.999c0 31.333 -9.83398 57.5 -29.501 78.5s-44.834 31.5 -75.501 31.5c-31.333 0 -60.166 -10.167 -86.499 -30.5
s-43.833 -46.833 -52.5 -79.5c6 -32 22.667 -58.333 50 -79s57 -31 89 -31c30.667 0 55.834 10.5 75.501 31.5s29.5 47.167 29.5 78.5z" />
    <glyph glyph-name="u0C20" unicode="&#xc20;" horiz-adv-x="1128" 
d="M1064 500c0 -148 -45.999 -271 -137.999 -369c-94.667 -100.667 -215.334 -151 -362.001 -151c-148.667 0 -269.167 49.333 -361.5 148s-138.5 222.667 -138.5 372c0 98 26.167 188 78.5 270s122.833 143.333 211.5 184l-73 87l91 90
c40.667 -50 67.334 -80.333 80.001 -91c32.667 -26.667 70 -40 112 -40c58 0 129 43 213 129c38 38.667 94.667 106.667 170 204l108 -96c-60.667 -79.333 -101.334 -131 -122.001 -155c-48 -56.667 -94.667 -102.667 -140 -138c84 -42.667 150.167 -103.667 198.5 -183
s72.5 -166.333 72.5 -261zM904.001 500c0 94.667 -33 175 -99 241s-146.333 99 -241 99s-175 -33 -241 -99s-99 -146.333 -99 -241c0 -94 33 -170.833 99 -230.5s146.333 -89.5 241 -89.5s175 29.833 241 89.5s99 136.5 99 230.5zM644.001 500
c0 -22 -7.83301 -40.833 -23.5 -56.5s-34.5 -23.5 -56.5 -23.5s-40.833 7.83301 -56.5 23.5s-23.5 34.5 -23.5 56.5s7.83301 40.833 23.5 56.5s34.5 23.5 56.5 23.5s40.833 -7.83301 56.5 -23.5s23.5 -34.5 23.5 -56.5z" />
    <glyph glyph-name="u0C21" unicode="&#xc21;" horiz-adv-x="1414" 
d="M1336 217c0 -75.333 -30 -134.668 -90 -178.001c-53.333 -39.333 -119 -59 -197 -59c-156.667 0 -268.334 69 -335.001 207c-51.333 -138.667 -148.666 -208 -291.999 -208c-112.667 0 -201.334 38.667 -266.001 116c-61.333 72.667 -92 166.334 -92 281.001
c0 132.667 39.667 252.667 119 360c77.333 104.667 179 180 305 226l-64 78l91 91c38.667 -48 65.334 -78.333 80.001 -91c32.667 -27.333 70 -41 112 -41c58.667 0 129.667 43 213 129c34 34.667 90.667 102.667 170 204l108 -96c-60 -79.333 -99.333 -130 -118 -152
c-46.667 -56.667 -91.667 -102 -135 -136c84 -31.333 160.333 -81.333 229 -150l-111 -112c-102 102 -220.667 153 -356 153c-128.667 0 -240.667 -44.667 -336 -134c-98 -92 -147 -201.667 -147 -329c0 -131.333 66 -197 198 -197c136.667 0 205 62.333 205 187h160
c0 -116.667 63.667 -193.667 191 -231c-13.333 26.667 -20 54 -20 82c0 52 18.5 96.5 55.5 133.5s81.5 55.5 133.5 55.5s96.5 -18.5 133.5 -55.5s55.5 -81.5 55.5 -133.5zM1217 216.998c0 19.333 -6.83301 35.833 -20.5 49.5s-30.167 20.5 -49.5 20.5
s-35.833 -6.83301 -49.5 -20.5s-20.5 -30.167 -20.5 -49.5c0 -36 14 -65.667 42 -89c65.333 0 98 29.667 98 89z" />
    <glyph glyph-name="u0C22" unicode="&#xc22;" horiz-adv-x="1414" 
d="M1336 217c0 -75.333 -30 -134.668 -90 -178.001c-53.333 -39.333 -119 -59 -197 -59c-156.667 0 -268.334 69 -335.001 207c-51.333 -138.667 -148.666 -208 -291.999 -208c-112.667 0 -201.334 38.667 -266.001 116c-61.333 72.667 -92 166.334 -92 281.001
c0 132.667 39.667 252.667 119 360c77.333 104.667 179 180 305 226l-64 78l91 91c38.667 -48 65.334 -78.333 80.001 -91c32.667 -27.333 70 -41 112 -41c58.667 0 129.667 43 213 129c34 34.667 90.667 102.667 170 204l108 -96c-60 -79.333 -99.333 -130 -118 -152
c-46.667 -56.667 -91.667 -102 -135 -136c84 -31.333 160.333 -81.333 229 -150l-111 -112c-102 102 -220.667 153 -356 153c-128.667 0 -240.667 -44.667 -336 -134c-98 -92 -147 -201.667 -147 -329c0 -131.333 66 -197 198 -197c136.667 0 205 62.333 205 187h160
c0 -116.667 63.667 -193.667 191 -231c-13.333 26.667 -20 54 -20 82c0 52 18.5 96.5 55.5 133.5s81.5 55.5 133.5 55.5s96.5 -18.5 133.5 -55.5s55.5 -81.5 55.5 -133.5zM803 -158.002c0 -23.333 -8.16699 -43.168 -24.5 -59.501s-36.166 -24.5 -59.499 -24.5
c-22.667 0 -42.334 8.33301 -59.001 25s-25 36.334 -25 59.001c0 49.333 28 102 84 158c56 -56 84 -108.667 84 -158zM1217 216.996c0 19.333 -6.83301 35.833 -20.5 49.5s-30.167 20.5 -49.5 20.5s-35.833 -6.83301 -49.5 -20.5s-20.5 -30.167 -20.5 -49.5
c0 -36 14 -65.667 42 -89c65.333 0 98 29.667 98 89z" />
    <glyph glyph-name="u0C23" unicode="&#xc23;" horiz-adv-x="1414" 
d="M1350 472c0 -130.667 -24.335 -240.666 -73.002 -329.999c-58.667 -108 -144.667 -162 -258 -162c-73.333 0 -135.166 27.333 -185.499 82s-75.5 121.334 -75.5 200.001c0 72.667 25.5 134.334 76.5 185.001s112.833 76 185.5 76c64.667 0 122.334 -25 173.001 -75
c0.666992 10.667 1 18.667 1 24c0 95.333 -18.667 176.666 -56 243.999c-45.333 82.667 -112 124 -200 124c-58.667 0 -106.5 -17.5 -143.5 -52.5s-55.5 -81.5 -55.5 -139.5h-160c0 55.333 -16.667 101.166 -50 137.499s-77.333 54.5 -132 54.5
c-115.333 0 -173 -50.333 -173 -151c0 -35.333 11 -65 33 -89s50.667 -36 86 -36h30v-160h-31c-35.333 0 -63.833 -11.833 -85.5 -35.5s-32.5 -53.5 -32.5 -89.5c0 -32.667 11.667 -60.667 35 -84s51.333 -35 84 -35c79.333 0 119 39.333 119 118h160
c0 -84.667 -26.333 -155.5 -79 -212.5s-119.334 -85.5 -200.001 -85.5c-79.333 0 -145.666 29.333 -198.999 88s-80 129 -80 211c0 79.333 29.667 148 89 206c-26 18 -47.667 48.667 -65 92c-16 39.333 -24 76.666 -24 111.999c0 96 31.667 172.333 95 229
c61.333 54.667 140.666 82 237.999 82c102.667 0 189.334 -47 260.001 -141c75.333 94 169 141 281 141c132 0 236 -57 312 -171c66.667 -99.333 100 -218.333 100 -357zM1164 301.001c-41.333 41.333 -87.999 62 -139.999 62c-28.667 0 -53.334 -9.83301 -74.001 -29.5
s-31 -43.5 -31 -71.5s9.83301 -51.833 29.5 -71.5s43.5 -29.5 71.5 -29.5c82.667 0 130.667 46.667 144 140z" />
    <glyph glyph-name="u0C24" unicode="&#xc24;" horiz-adv-x="1414" 
d="M1350 585c0 -198.667 -59.335 -350.665 -178.002 -455.998c-112.667 -99.333 -269.667 -149 -471 -149c-172 0 -317 40.667 -435 122c-134.667 92.667 -202 221.334 -202 386.001c0 89.333 20.667 164.666 62 225.999c47.333 71.333 113.333 107 198 107
c61.333 0 113.833 -21.333 157.5 -64s65.5 -94.667 65.5 -156c0 -60.667 -21.667 -112.334 -65 -155.001s-95.333 -64 -156 -64c-39.333 0 -76.333 10 -111 30c50.667 -154.667 212.667 -232 486 -232c268.667 0 433.334 77.333 494.001 232
c-33.333 -20 -68.333 -30 -105 -30c-60.667 0 -112.834 21.333 -156.501 64s-65.5 94.334 -65.5 155.001c0 58 19.333 105.167 58 141.5s87.334 54.5 146.001 54.5c28.667 0 58.334 -4.66699 89.001 -14c-35.333 38 -95 57 -179 57h-311c-59.333 0 -114 21.667 -164 65
c-23.333 20 -63 65.333 -119 136l91 90c34.667 -44.667 61.667 -74.667 81 -90c33.333 -27.333 70.333 -41 111 -41c65.333 0 137.666 41.667 216.999 125c18 19.333 73.333 88.666 166 207.999l108 -96c-41.333 -56.667 -107.333 -138.334 -198 -245.001h59
c98.667 0 179.334 -44.333 242.001 -133c56.667 -80 85 -171.333 85 -274zM1202 591.002c-4 27.333 -16.667 50.5 -38 69.5s-46 28.5 -74 28.5c-24 0 -44.667 -8.66699 -62 -26s-26 -38 -26 -62s8.66699 -44.667 26 -62s38 -26 62 -26c52 0 89.333 26 112 78z
M411.998 601.002c0 24 -8.66602 44.667 -25.999 62s-38 26 -62 26c-28 0 -52.667 -9.5 -74 -28.5s-34 -42.167 -38 -69.5c13.333 -52 50.666 -78 111.999 -78c24 0 44.667 8.66699 62 26s26 38 26 62zM706.999 91.002z" />
    <glyph glyph-name="u0C25" unicode="&#xc25;" horiz-adv-x="1414" 
d="M1350 377c0 -108 -32.3311 -200 -96.998 -276c-68 -80.667 -155 -121 -261 -121c-128.667 0 -223.667 53.667 -285 161c-23.333 -49.333 -63.333 -89 -120 -119c-52.667 -28 -107.667 -42 -165 -42c-106 0 -193 40.333 -261 121c-64.667 76 -97 168 -97 276
c0 132 40 251.667 120 359c78 104.667 180 180 306 226l-66 79l91 90c39.333 -48 66.333 -78 81 -90c32.667 -27.333 69.667 -41 111 -41c62.667 0 135 42 217 126c37.333 39.333 92.666 108.333 165.999 207l108 -96c-74 -95.333 -112.667 -145 -116 -149
c-46 -56 -90.333 -101 -133 -135c119.333 -48 215.666 -123.667 288.999 -227c74.667 -106 112 -222.333 112 -349zM794.002 -158c0 -23.333 -8.16699 -43.168 -24.5 -59.501s-36.166 -24.5 -59.499 -24.5c-22.667 0 -42.334 8.33301 -59.001 25s-25 36.334 -25 59.001
c0 49.333 28 102 84 158c56 -56 84 -108.667 84 -158zM1190 376.998c0 128 -48.998 237.668 -146.998 329.001c-95.333 89.333 -207.333 134 -336 134s-240.667 -44.667 -336 -134c-98 -91.333 -147 -201 -147 -329c0 -61.333 17.667 -109.5 53 -144.5
s83.666 -52.5 144.999 -52.5s110.833 16 148.5 48s56.5 78.333 56.5 139h160c0 -60.667 19.333 -107.334 58 -140.001c36.667 -31.333 85.667 -47 147 -47s109.666 17.5 144.999 52.5s53 83.167 53 144.5zM787.004 575.999c0 -22 -7.83301 -40.833 -23.5 -56.5
s-34.5 -23.5 -56.5 -23.5s-40.833 7.83301 -56.5 23.5s-23.5 34.5 -23.5 56.5s7.83301 40.833 23.5 56.5s34.5 23.5 56.5 23.5s40.833 -7.83301 56.5 -23.5s23.5 -34.5 23.5 -56.5z" />
    <glyph glyph-name="u0C26" unicode="&#xc26;" horiz-adv-x="1414" 
d="M1350 377c0 -108 -32.3311 -200 -96.998 -276c-68 -80.667 -155 -121 -261 -121c-128.667 0 -223.667 53.667 -285 161c-23.333 -49.333 -63.333 -89 -120 -119c-52.667 -28 -107.667 -42 -165 -42c-106 0 -193 40.333 -261 121c-64.667 76 -97 168 -97 276
c0 132 40 251.667 120 359c78 104.667 180 180 306 226l-66 79l91 90c39.333 -48 66.333 -78 81 -90c32.667 -27.333 69.667 -41 111 -41c62.667 0 135 42 217 126c37.333 39.333 92.666 108.333 165.999 207l108 -96c-74 -95.333 -112.667 -145 -116 -149
c-46 -56 -90.333 -101 -133 -135c119.333 -48 215.666 -123.667 288.999 -227c74.667 -106 112 -222.333 112 -349zM1190 377c0 128 -48.998 237.668 -146.998 329.001c-95.333 89.333 -207.333 134 -336 134s-240.667 -44.667 -336 -134c-98 -91.333 -147 -201 -147 -329
c0 -61.333 17.667 -109.5 53 -144.5s83.666 -52.5 144.999 -52.5s110.833 16 148.5 48s56.5 78.333 56.5 139h160c0 -60.667 19.333 -107.334 58 -140.001c36.667 -31.333 85.667 -47 147 -47s109.666 17.5 144.999 52.5s53 83.167 53 144.5z" />
    <glyph glyph-name="u0C27" unicode="&#xc27;" horiz-adv-x="1414" 
d="M1350 377c0 -108 -32.333 -199.999 -97 -275.999c-68 -80.667 -155 -121 -261 -121c-128.667 0 -223.667 53.667 -285 161c-23.333 -48.667 -63.333 -88.334 -120 -119.001c-52.667 -28 -107.667 -42 -165 -42c-106 0 -193 40.333 -261 121c-64.667 76 -97 168 -97 276
c0 132 40 251.667 120 359c78 104.667 180 180 306 226l-66 79l91 90c43.333 -51.333 70.333 -81.333 81 -90c32 -27.333 69 -41 111 -41c62.667 0 134.667 42 216 126c36.667 38 92.334 107 167.001 207l108 -96c-76 -97.333 -115 -147 -117 -149
c-46.667 -56.667 -90.667 -101.667 -132 -135c119.333 -48 215.666 -123.667 288.999 -227c74.667 -106 112 -222.333 112 -349zM794 -157.999c0 -23.333 -8.16699 -43.168 -24.5 -59.501s-36.166 -24.5 -59.499 -24.5c-22.667 0 -42.334 8.33301 -59.001 25
s-25 36.334 -25 59.001c0 49.333 28 102 84 158c56 -56 84 -108.667 84 -158zM1190 376.999c0 128 -48.665 237.667 -145.998 329c-96 89.333 -208.333 134 -337 134s-241 -44.667 -337 -134c-97.333 -91.333 -146 -201 -146 -329c0 -61.333 17.667 -109.5 53 -144.5
s83.666 -52.5 144.999 -52.5s110.333 15.333 147 46c38.667 33.333 58 80.333 58 141h160c0 -60.667 19.333 -107.667 58 -141c36.667 -30.667 85.667 -46 147 -46s109.666 17.5 144.999 52.5s53 83.167 53 144.5z" />
    <glyph glyph-name="u0C28" unicode="&#xc28;" horiz-adv-x="1414" 
d="M1350 405c0 -126 -32.999 -227.334 -98.999 -304.001c-70 -80.667 -167 -121 -291 -121c-98 0 -189 33.333 -273 100c-14 12 -75 74.333 -183 187c-64.667 66.667 -122 100 -172 100c-28 0 -52.167 -10.167 -72.5 -30.5s-30.5 -44.5 -30.5 -72.5c0 -46 30 -89 90 -129
l-96 -134c-102.667 87.333 -154 175 -154 263c0 72.667 25.667 134.667 77 186s113.333 77 186 77c76 0 150 -30 222 -90l178 -167c72.667 -60 148.667 -90 228 -90c71.333 0 127.5 19.667 168.5 59s61.5 94.666 61.5 165.999c0 290 -155.333 435 -466 435h-198
c-56.667 0 -110.667 22.333 -162 67c-24 20.667 -64.333 65.334 -121 134.001l91 90c42.667 -50.667 69.667 -80.667 81 -90c32.667 -27.333 69.667 -41 111 -41c62.667 0 135 42 217 126c37.333 39.333 92.666 108.333 165.999 207l108 -96
c-42.667 -55.333 -110 -135.666 -202 -240.999c168.667 -17.333 300 -77.833 394 -181.5s141 -240.167 141 -409.5zM707.001 90.999z" />
    <glyph glyph-name="u0C2A" unicode="&#xc2a;" horiz-adv-x="1414" 
d="M768 1213c-91.333 -118.667 -162.333 -202.333 -213 -251c-101.333 -97.333 -194 -146 -278 -146c-58 0 -111.333 22 -160 66c-14 12.667 -53 57.667 -117 135l91 90l78 -90c30 -27.333 66 -41 108 -41c64 0 136 42 216 126c22 23.333 77.667 92.333 167 207z
M1350 473.001c0 -145.333 -42.666 -263.336 -127.999 -354.003c-86.667 -92.667 -202.667 -139 -348 -139c-114.667 0 -222 44.667 -322 134c-58.667 -76 -131.334 -114 -218.001 -114c-74.667 0 -138.334 26.333 -191.001 79s-79 116.334 -79 191.001
s26.333 138.334 79 191.001s116.334 79 191.001 79c69.333 0 127.666 -26 174.999 -78c29.333 -32 63.333 -89 102 -171c18 -38 57 -67 117 -87c46 -16 94.667 -24 146 -24c82.667 0 155.334 28 218.001 84c65.333 58 98 127.667 98 209c0 118.667 -38 210.334 -114 275.001
c-71.333 61.333 -167 92 -287 92v160c168.667 0 303 -45 403 -135c105.333 -94 158 -224.667 158 -392zM462.001 275.998c-23.333 69.333 -66 104 -128 104c-30 0 -55.833 -10.833 -77.5 -32.5s-32.5 -47.5 -32.5 -77.5s10.833 -55.833 32.5 -77.5s47.5 -32.5 77.5 -32.5
c32 0 60.333 10.5 85 31.5s39 49.167 43 84.5zM707.001 90.998z" />
    <glyph glyph-name="u0C2B" unicode="&#xc2b;" horiz-adv-x="1414" 
d="M768 1213c-91.333 -118.667 -162.333 -202.333 -213 -251c-101.333 -97.333 -194 -146 -278 -146c-58 0 -111.333 22 -160 66c-14 12.667 -53 57.667 -117 135l91 90l78 -90c30 -27.333 66 -41 108 -41c64 0 136 42 216 126c22 23.333 77.667 92.333 167 207z
M1350 473.001c0 -145.333 -42.667 -263.336 -128 -354.003c-87.333 -92.667 -203.333 -139 -348 -139c-114.667 0 -222 44.667 -322 134c-58.667 -76 -131.334 -114 -218.001 -114c-74.667 0 -138.334 26.333 -191.001 79s-79 116.334 -79 191.001
s26.333 138.334 79 191.001s116.334 79 191.001 79c114 0 206.333 -83 277 -249c13.333 -32 48.333 -59 105 -81c52 -20 104.667 -30 158 -30c82.667 0 155.334 28 218.001 84c65.333 58 98 127.667 98 209c0 118.667 -38 210.334 -114 275.001
c-71.333 61.333 -167 92 -287 92v160c168.667 0 303 -45 403 -135c105.333 -94 158 -224.667 158 -392zM636 -158.002c0 -23.333 -8.16699 -43.168 -24.5 -59.501s-36.166 -24.5 -59.499 -24.5c-22.667 0 -42.334 8.33301 -59.001 25s-25 36.334 -25 59.001
c0 49.333 28 102 84 158c56 -56 84 -108.667 84 -158zM462 275.996c-23.333 69.333 -66 104 -128 104c-30 0 -55.833 -10.833 -77.5 -32.5s-32.5 -47.5 -32.5 -77.5s10.833 -55.833 32.5 -77.5s47.5 -32.5 77.5 -32.5c32 0 60.333 10.5 85 31.5s39 49.167 43 84.5z" />
    <glyph glyph-name="u0C2C" unicode="&#xc2c;" horiz-adv-x="1414" 
d="M1350 459c0 -136.667 -30.6641 -247.663 -91.9971 -332.996c-70 -97.333 -170.667 -146 -302 -146c-126.667 0 -219.667 49 -279 147c-52.667 -98 -143 -147 -271 -147c-98 0 -179.5 33.333 -244.5 100s-97.5 149 -97.5 247c0 103.333 34.667 181.666 104 234.999
c30 22.667 94.667 52 194 88c69.333 25.333 104 55.666 104 90.999c0 66 -32.667 99 -98 99c-26.667 0 -49.334 -9.83301 -68.001 -29.5s-28.334 -42.834 -29.001 -69.501h-160c0 70.667 25.167 131.5 75.5 182.5s110.833 76.5 181.5 76.5
c69.333 0 129.666 -25.833 180.999 -77.5s77 -112.167 77 -181.5c0 -88 -34.667 -153 -104 -195l-194 -78c-69.333 -31.333 -104 -78.333 -104 -141c0 -98 60.667 -147 182 -147c126.667 0 190 56.667 190 170h160c0 -113.333 66.667 -170 200 -170
c78.667 0 138.334 27.667 179.001 83c36.667 49.333 55 114.666 55 195.999c0 118.667 -38.667 212.667 -116 282c-74.667 66 -172 99 -292 99v160c157.333 0 290.666 -50.667 399.999 -152c112 -103.333 168 -233 168 -389zM707.003 91.0039z" />
    <glyph glyph-name="u0C2D" unicode="&#xc2d;" horiz-adv-x="1414" 
d="M1350 459c0 -136.667 -30.6689 -247.664 -92.002 -332.997c-70 -97.333 -170.667 -146 -302 -146c-126.667 0 -219.667 49 -279 147c-52.667 -98 -143 -147 -271 -147c-98 0 -179.5 33.333 -244.5 100s-97.5 149 -97.5 247c0 103.333 34.667 181.666 104 234.999
c30 22.667 94.667 52 194 88c69.333 25.333 104 55.666 104 90.999c0 66 -32.667 99 -98 99c-26.667 0 -49.5 -9.83301 -68.5 -29.5s-28.5 -42.834 -28.5 -69.501h-160c0 70.667 25.167 131.5 75.5 182.5s110.833 76.5 181.5 76.5c69.333 0 129.666 -25.833 180.999 -77.5
s77 -112.167 77 -181.5c0 -88 -34.667 -153 -104 -195l-194 -78c-69.333 -31.333 -104 -78.333 -104 -141c0 -98 60.667 -147 182 -147c126.667 0 190 56.667 190 170h160c0 -113.333 66.667 -170 200 -170c78.667 0 138.334 27.667 179.001 83
c36.667 49.333 55 114.666 55 195.999c0 110.667 -39 202.334 -117 275.001c-76 70.667 -169.667 106 -281 106c-57.333 0 -111.666 22 -162.999 66c-21.333 18.667 -61.333 63.667 -120 135l91 90c45.333 -52.667 72.333 -82.667 81 -90c31.333 -27.333 68.333 -41 111 -41
c58 0 127.667 43 209 129c26.667 28.667 81.334 96.667 164.001 204l108 -96c-54 -70 -93 -119.333 -117 -148c-45.333 -54 -89.333 -99.333 -132 -136c98 -42 176.833 -108.333 236.5 -199s89.5 -189 89.5 -295zM761.998 -157.997
c0 -23.333 -8.16699 -43.168 -24.5 -59.501s-36.166 -24.5 -59.499 -24.5c-22.667 0 -42.334 8.33301 -59.001 25s-25 36.334 -25 59.001c0 49.333 28 102 84 158c56 -56 84 -108.667 84 -158z" />
    <glyph glyph-name="u0C2E" unicode="&#xc2e;" horiz-adv-x="2158" 
d="M2097 483c0 -143.333 -41.334 -262 -124.001 -356c-86.667 -98 -200.667 -147 -342 -147c-88.667 0 -162 14.333 -220 43c-60 29.333 -115.333 79 -166 149c-98 -128 -221.667 -192 -371 -192c-75.333 0 -134.333 9.33301 -177 28
c-37.333 16.667 -85.666 52 -144.999 106c-58.667 -76 -131.334 -114 -218.001 -114c-74 0 -137.5 26.5 -190.5 79.5s-79.5 116.5 -79.5 190.5s26.5 137.5 79.5 190.5s116.5 79.5 190.5 79.5c78 0 137.667 -26.333 179 -79l98 -170c46 -74 133.667 -111 263 -111
c92.667 0 168.5 27.5 227.5 82.5s88.5 128.5 88.5 220.5c0 100 -31.667 184 -95 252c-65.333 70 -147.333 105 -246 105h-320c-56 0 -110 22.333 -162 67c-25.333 21.333 -65.666 66 -120.999 134l91 90c40 -48.667 67 -78.667 81 -90c32.667 -27.333 69.667 -41 111 -41
c93.333 0 221 111 383 333l108 -96c-82 -103.333 -149.667 -182.333 -203 -237h32c140.667 0 259.334 -50.833 356.001 -152.5s145 -223.167 145 -364.5c0 -45.333 -4.66699 -88.666 -14 -129.999c51.333 -115.333 149.666 -173 294.999 -173
c89.333 0 162.666 28.167 219.999 84.5s86 129.166 86 218.499c0 100 -32 184.5 -96 253.5s-145.667 103.5 -245 103.5v160c140.667 0 259.334 -50.833 356.001 -152.5s145 -223.167 145 -364.5zM461.999 276c-23.333 69.333 -66 104 -128 104
c-30 0 -55.833 -10.833 -77.5 -32.5s-32.5 -47.5 -32.5 -77.5s10.833 -55.833 32.5 -77.5s47.5 -32.5 77.5 -32.5c34 0 63 11 87 33s37.667 49.667 41 83z" />
    <glyph glyph-name="u0C2F" unicode="&#xc2f;" horiz-adv-x="2602" 
d="M2541 483c0 -148 -40.6621 -267.669 -121.995 -359.002c-85.333 -96 -201 -144 -347 -144c-176 0 -297.667 66 -365 198c-73.333 -132 -197.333 -198 -372 -198c-196.667 0 -323.334 69.333 -380.001 208c-42.667 -65.333 -98.834 -116.333 -168.501 -153
s-143.834 -55 -222.501 -55c-146.667 0 -267.334 50.333 -362.001 151c-92 98 -138 221 -138 369c0 138.667 48.667 256.667 146 354s215.333 146 354 146c139.333 0 257.5 -48.5 354.5 -145.5s145.5 -215.167 145.5 -354.5c0 -14.667 -2.33301 -36.667 -7 -66
s-7 -50 -7 -62c6.66699 -51.333 40.334 -96.333 101.001 -135c58.667 -38 120 -57 184 -57c92 0 166 27.5 222 82.5s84 128.5 84 220.5c0 100 -32 184.5 -96 253.5s-145.667 103.5 -245 103.5c-56.667 0 -110.667 22.333 -162 67c-22 18.667 -62.333 63.334 -121 134.001
l91 90c47.333 -54.667 74.333 -85 81 -91c32 -26.667 69 -40 111 -40c63.333 0 135.333 42 216 126c32 33.333 87.667 102.333 167 207l108 -96c-102.667 -130 -191.334 -227 -266.001 -291c85.333 -44 152.666 -108 201.999 -192s74 -174.333 74 -271
c0 -12 -1.66699 -30.667 -5 -56s-5 -43.666 -5 -54.999c45.333 -128 139 -192 281 -192c90.667 0 164.834 27.833 222.5 83.5c57.667 55.667 86.5 128.834 86.5 219.501c0 101.333 -32 186.166 -96 254.499s-146.667 102.5 -248 102.5v160
c143.333 0 263.166 -50.333 359.5 -151c96.333 -100.667 144.5 -222.667 144.5 -366zM904.005 499.998c0 95.333 -32.834 175.832 -98.501 241.499s-146.167 98.5 -241.5 98.5c-94.667 0 -175 -33 -241 -99s-99 -146.333 -99 -241c0 -93.333 33.667 -170.666 101 -231.999
c64.667 -58.667 144.334 -88 239.001 -88c95.333 0 175.833 29.833 241.5 89.5s98.5 136.5 98.5 230.5z" />
    <glyph glyph-name="u0C30" unicode="&#xc30;" horiz-adv-x="1128" 
d="M1064 500c0 -150 -45.335 -273.666 -136.002 -370.999c-93.333 -99.333 -214.666 -149 -363.999 -149s-270.666 49.667 -363.999 149c-90.667 96.667 -136 220.334 -136 371.001c0 97.333 26.167 187.166 78.5 269.499s122.5 144.166 210.5 185.499l-72 86l91 90
c36 -44.667 63 -74.667 81 -90c34 -27.333 71 -41 111 -41c94 0 221.667 111 383 333l111 -96c-100.667 -128 -188.667 -224.667 -264 -290c84 -43.333 150 -105 198 -185s72 -167.333 72 -262zM903.998 500.001c0 94.667 -33 175 -99 241s-146.333 99 -241 99
s-175 -33 -241 -99s-99 -146.333 -99 -241c0 -94 33 -170.833 99 -230.5s146.333 -89.5 241 -89.5s175 29.833 241 89.5s99 136.5 99 230.5zM563.998 91.001z" />
    <glyph glyph-name="u0C31" unicode="&#xc31;" horiz-adv-x="1476" 
d="M1420 459c0 -131.333 -32.332 -241.332 -96.999 -329.999c-72.667 -99.333 -172.334 -149 -299.001 -149c-144 0 -242.333 49 -295 147c-62.667 -98 -153 -147 -271 -147c-124 0 -224 50 -300 150c-69.333 91.333 -104 201 -104 329c0 132 22.333 247.333 67 346
c59.333 130 146.666 195 261.999 195c76.667 0 141.5 -26 194.5 -78s79.5 -116 79.5 -192c0 -38.667 -7.66699 -75.334 -23 -110.001h206c-16.667 31.333 -25 68.333 -25 111c0 72.667 26.667 135.667 80 189s116.333 80 189 80c116.667 0 205.334 -64.333 266.001 -193
c46.667 -100 70 -216 70 -348zM1260 458.001c0 84.667 -10.667 161.668 -32 231.001c-31.333 100.667 -79.333 151 -144 151c-30 0 -55.667 -10.667 -77 -32s-32 -47 -32 -77c0 -30.667 10.5 -56.834 31.5 -78.501s46.833 -32.5 77.5 -32.5v-160h-693
c-61.333 0 -115 21.333 -161 64c-6.66699 -23.333 -10 -48 -10 -74c0 -74.667 20.667 -137.334 62 -188.001c44 -54.667 102.667 -82 176 -82c51.333 0 95.833 15.667 133.5 47s56.5 72.333 56.5 123h160c0 -113.333 72 -170 216 -170c68.667 0 126 30 172 90
c42.667 54.667 64 117.334 64 188.001zM497.001 730.002c0 30.667 -10.667 56.667 -32 78s-47.333 32 -78 32c-27.333 0 -54.666 -11.167 -81.999 -33.5s-41 -46.833 -41 -73.5c0 -25.333 14.167 -50.5 42.5 -75.5s55.166 -37.5 80.499 -37.5c30.667 0 56.667 10.667 78 32
s32 47.333 32 78z" />
    <glyph glyph-name="u0C32" unicode="&#xc32;" horiz-adv-x="1414" 
d="M1350 572c0 -170 -61 -311.666 -183 -424.999c-118.667 -111.333 -263.667 -167 -435 -167c-202.667 0 -363.667 54.667 -483 164c-123.333 112.667 -185 269.334 -185 470.001c0 100 28 187.667 84 263c61.333 82 140.666 123 237.999 123
c74.667 0 138.334 -26.333 191.001 -79s79 -116.334 79 -191.001s-26.333 -138.334 -79 -191.001s-116.334 -79 -191.001 -79c-68 0 -121.667 23.667 -161 71c0 -110 59.333 -198.667 178 -266c100 -56.667 209.667 -85 329 -85c120.667 0 225.334 34.667 314.001 104
c96 74.667 144 170.667 144 288c0 64 -14.667 120.667 -44 170c-33.333 56 -79.333 88.667 -138 98v160c108.667 -10 194 -57.333 256 -142c57.333 -78 86 -173.333 86 -286zM496 730.001c0 30.667 -10.667 56.667 -32 78s-47.333 32 -78 32
c-64.667 0 -111.334 -36 -140.001 -108c7.33301 -31.333 24.333 -57.833 51 -79.5s56.334 -32.5 89.001 -32.5c30.667 0 56.667 10.667 78 32s32 47.333 32 78zM707 91.001z" />
    <glyph glyph-name="u0C33" unicode="&#xc33;" horiz-adv-x="1258" 
d="M1303 1237c-72 -108.667 -149.003 -195.999 -231.003 -261.999c81.333 -41.333 122 -116.666 122 -225.999c0 -98.667 -35.333 -185.334 -106 -260.001c-65.333 -68.667 -148 -115.667 -248 -141c18.667 -30 28 -66 28 -108c0 -77.333 -20.333 -139.333 -61 -186
c-42.667 -49.333 -102.334 -74 -179.001 -74c-75.333 0 -134.666 25 -177.999 75c-41.333 47.333 -62 109 -62 185c0 44 10 80.333 30 109c-101.333 27.333 -184.666 79.666 -249.999 156.999c-69.333 80.667 -104 172 -104 274c0 60.667 21.5 112.5 64.5 155.5
s94.833 64.5 155.5 64.5s112.5 -21.5 155.5 -64.5s64.5 -94.833 64.5 -155.5c0 -50.667 -16 -97 -48 -139c-33.333 -44.667 -74.666 -68.667 -123.999 -72c60.667 -60 159.334 -90 296.001 -90c99.333 0 187 18.667 263 56c96.667 47.333 145 115.333 145 204
c0 22 -7.66699 44.167 -23 66.5s-33.666 33.833 -54.999 34.5h-142c-56.667 0 -111.667 22 -165 66c-27.333 23.333 -68 68.333 -122 135l91 90c43.333 -52 70 -82 80 -90c32 -27.333 69.333 -41 112 -41c64 0 136.333 42 217 126c33.333 34.667 88.666 103.667 165.999 207
zM363.997 780.001c0 22 -7.83301 40.833 -23.5 56.5s-34.5 23.5 -56.5 23.5c-58.667 0 -88 -26.667 -88 -80c0 -50.667 16.333 -88.667 49 -114c79.333 12.667 119 50.667 119 114zM707.997 240.001c0 22 -7.83301 40.833 -23.5 56.5s-34.5 23.5 -56.5 23.5
s-40.833 -7.83301 -56.5 -23.5s-23.5 -34.5 -23.5 -56.5s7.83301 -40.833 23.5 -56.5s34.5 -23.5 56.5 -23.5s40.833 7.83301 56.5 23.5s23.5 34.5 23.5 56.5zM629.997 91.001z" />
    <glyph glyph-name="u0C35" unicode="&#xc35;" horiz-adv-x="1414" 
d="M1350 483c0 -148 -41.999 -267.998 -125.999 -359.998c-86.667 -95.333 -203.334 -143 -350.001 -143c-73.333 0 -132.333 9.66699 -177 29c-38.667 17.333 -87 52.333 -145 105c-58.667 -76 -131.334 -114 -218.001 -114c-74 0 -137.5 26.5 -190.5 79.5
s-79.5 116.5 -79.5 190.5s26.5 137.5 79.5 190.5s116.5 79.5 190.5 79.5s133.333 -25.333 178 -76c26 -28.667 59 -86.334 99 -173.001c22.667 -48.667 59.667 -81 111 -97c31.333 -9.33301 82 -14 152 -14c90 0 165.167 28.167 225.5 84.5s90.5 129.166 90.5 218.499
c0 100 -31.667 184 -95 252c-65.333 70 -147.333 105 -246 105h-320c-56 0 -110 22.333 -162 67c-25.333 21.333 -65.666 66 -120.999 134l91 90c40.667 -49.333 67.667 -79.333 81 -90c32 -27.333 69 -41 111 -41c63.333 0 135.666 42 216.999 126
c38.667 40.667 94 109.667 166 207l108 -96c-82 -103.333 -149.667 -182.333 -203 -237h32c140.667 0 259.334 -50.833 356.001 -152.5s145 -223.167 145 -364.5zM462.001 276.002c-23.333 69.333 -66 104 -128 104c-30 0 -55.833 -10.833 -77.5 -32.5
s-32.5 -47.5 -32.5 -77.5s10.833 -55.833 32.5 -77.5s47.5 -32.5 77.5 -32.5c34 0 63 11 87 33s37.667 49.667 41 83z" />
    <glyph glyph-name="u0C36" unicode="&#xc36;" horiz-adv-x="1128" 
d="M1064 741c0 -112 -55.667 -193.334 -167 -244.001c34.667 -57.333 52 -120.333 52 -189c0 -90 -28.667 -166.667 -86 -230c-58.667 -65.333 -132.667 -98 -222 -98c-205.333 0 -308 102.667 -308 308c0 65.333 24 122 72 170c44 43.333 99.667 73 167 89
c-26.667 7.33301 -55.334 11 -86.001 11c-135.333 0 -237.666 -45 -306.999 -135l-115 115c102 112 236.333 168 403 168c124 0 232 -30 324 -90c75.333 24.667 113 66.334 113 125.001c0 66 -50 99 -150 99h-358c-56 0 -110 22.333 -162 67
c-25.333 21.333 -65.666 66 -120.999 134l91 90c41.333 -49.333 68.333 -79.333 81 -90c32.667 -27.333 69.667 -41 111 -41c63.333 0 135.666 42 216.999 126c37.333 39.333 92.666 108.333 165.999 207l108 -96c-74.667 -96 -142.667 -175 -204 -237h71
c86.667 0 158.334 -21 215.001 -63c63.333 -46.667 95 -112 95 -196zM789 307.999c0 59.333 -17.332 105.998 -51.999 139.998c-80.667 -21.333 -132.334 -37.666 -155.001 -48.999c-59.333 -29.333 -89 -69.666 -89 -120.999c0 -78.667 49.333 -118 148 -118
c40.667 0 75.5 14.5 104.5 43.5s43.5 63.833 43.5 104.5zM564.001 90.9971z" />
    <glyph glyph-name="u0C37" unicode="&#xc37;" horiz-adv-x="1414" 
d="M768 1213c-90.667 -118 -161.668 -201.667 -213.001 -251c-100.667 -97.333 -193.334 -146 -278.001 -146c-57.333 0 -110.666 22 -159.999 66c-18.667 16.667 -57.667 61.667 -117 135l91 90c42.667 -52 68.667 -82 78 -90c30.667 -27.333 66.667 -41 108 -41
c64 0 136 42 216 126c26.667 27.333 82.334 96.333 167.001 207zM1433 13l-94.998 -93.999c-56.667 47.333 -98.334 118 -125.001 212c-81.333 -100.667 -194.333 -151 -339 -151c-76 0 -135.333 9.33301 -178 28c-36.667 16 -84.667 51.333 -144 106
c-58.667 -76 -131.334 -114 -218.001 -114c-74 0 -137.5 26.5 -190.5 79.5s-79.5 116.5 -79.5 190.5s26.5 137.5 79.5 190.5s116.5 79.5 190.5 79.5c72 0 130.333 -26 175 -78c16.667 -18.667 50.667 -75.667 102 -171c40 -74 127.667 -111 263 -111
c91.333 0 166.833 30.167 226.5 90.5s89.5 136.166 89.5 227.499c0 108 -40.667 193.333 -122 256c-74.667 57.333 -167.667 86 -279 86v160c162 0 294 -43 396 -129c110 -91.333 165 -216.333 165 -375c0 -25.333 -3.83301 -63 -11.5 -113s-11.5 -87.667 -11.5 -113
c0 -112 35.333 -197.667 106 -257zM462.001 276.001c-23.333 69.333 -65.998 104 -127.998 104c-30 0 -55.833 -10.833 -77.5 -32.5s-32.5 -47.5 -32.5 -77.5s10.833 -55.833 32.5 -77.5s47.5 -32.5 77.5 -32.5c33.333 0 62.166 11 86.499 33s38.166 49.667 41.499 83z" />
    <glyph glyph-name="u0C38" unicode="&#xc38;" horiz-adv-x="1414" 
d="M748 1213c-103.333 -135.333 -170.668 -219 -202.001 -251c-95.333 -97.333 -185 -146 -269 -146c-57.333 0 -110.666 22 -159.999 66c-18 16 -57 61 -117 135l91 90c42.667 -52 68.667 -82 78 -90c30.667 -27.333 66.667 -41 108 -41c63.333 0 132.333 42.333 207 127
l156 206zM1350 405c0 -128 -32.667 -229.669 -98 -305.002c-68.667 -80 -166 -120 -292 -120c-103.333 0 -197 33.333 -281 100c-20 16 -80 78.333 -180 187c-62 66.667 -117.667 100 -167 100c-28 0 -52.167 -10.167 -72.5 -30.5s-30.5 -44.5 -30.5 -72.5
c0 -47.333 30 -90.333 90 -129l-96 -134c-102.667 86.667 -154 174.334 -154 263.001c0 72.667 25.667 134.667 77 186s113.333 77 186 77c76 0 150 -30 222 -90l178 -167c73.333 -60 149.333 -90 228 -90c68.667 0 124.167 20.5 166.5 61.5s63.5 95.5 63.5 163.5
c0 139.333 -41 247.333 -123 324c-79.333 74 -189.333 111 -330 111v160c182.667 0 329.667 -52 441 -156c114.667 -107.333 172 -253.666 172 -438.999zM706.998 90.998z" />
    <glyph glyph-name="u0C39" unicode="&#xc39;" horiz-adv-x="2004" 
d="M1941 741c0 -70 -23.332 -130.335 -69.999 -181.002c-48.667 -52 -107.667 -78 -177 -78c-74.667 0 -135 27.333 -181 82c-44 52 -66 115.667 -66 191c0 24 7 52.333 21 85h-267c99.333 -93.333 149 -219 149 -377c0 -150.667 -41.833 -268.834 -125.5 -354.501
s-200.5 -128.5 -350.5 -128.5c-73.333 0 -132.333 10 -177 30c-38 16.667 -86.333 51.334 -145 104.001c-58.667 -76 -131.334 -114 -218.001 -114c-74.667 0 -138.334 26.333 -191.001 79s-79 116.334 -79 191.001s26.333 138.334 79 191.001s116.334 79 191.001 79
c70.667 0 129 -26.333 175 -79c23.333 -26.667 57.333 -83.334 102 -170.001c38 -74 125.667 -111 263 -111c86.667 0 160 25.333 220 76c64 53.333 96 122.333 96 207c0 132.667 -49 231.334 -147 296.001c-82.667 54 -194 81 -334 81v160h985
c69.333 0 127.833 -25.667 175.5 -77s71.5 -112 71.5 -182zM768.001 1213c-90.667 -118.667 -161.669 -202.333 -213.002 -251c-101.333 -97.333 -194 -146 -278 -146c-57.333 0 -110.666 22 -159.999 66c-16.667 14.667 -55.667 59.667 -117 135l91 90
c46.667 -56 72.667 -86 78 -90c30.667 -27.333 66.667 -41 108 -41c64 0 136 42 216 126c24.667 25.333 80.334 94.333 167.001 207zM1816 740.999c0 33.333 -12 62 -36 86s-52.667 36 -86 36s-62 -12 -86 -36s-36 -52.667 -36 -86s12 -62 36 -86s52.667 -36 86 -36
s62 12 86 36s36 52.667 36 86zM461.999 275.999c-23.333 69.333 -66 104 -128 104c-30 0 -55.833 -10.833 -77.5 -32.5s-32.5 -47.5 -32.5 -77.5s10.833 -55.833 32.5 -77.5s47.5 -32.5 77.5 -32.5c34 0 63 11 87 33s37.667 49.667 41 83z" />
    <glyph glyph-name="u0C3E" unicode="&#xc3e;" horiz-adv-x="620" 
d="M557 741c0 -70 -23.833 -130.666 -71.5 -181.999s-106.167 -77 -175.5 -77c-74.667 0 -135 27.333 -181 82c-44 52 -66 115.667 -66 191c0 21.333 7 49.666 21 84.999h-1212v160h1438c69.333 0 127.833 -25.667 175.5 -77s71.5 -112 71.5 -182zM432 741.001
c0 33.333 -12 62 -36 86s-52.667 36 -86 36s-62 -12 -86 -36s-36 -52.667 -36 -86s12 -62 36 -86s52.667 -36 86 -36s62 12 86 36s36 52.667 36 86z" />
    <glyph glyph-name="u0C3F" unicode="&#xc3f;" 
d="M-768 1192c0 -89.333 -31 -164.998 -93 -226.998s-137.667 -93 -227 -93c-117.333 0 -220.666 42 -309.999 126l90 91c65.333 -59.333 138.666 -89 219.999 -89c51.333 0 96.166 19.167 134.499 57.5s57.5 83.166 57.5 134.499c0 21.333 -4 42.666 -12 63.999
c-38 -85.333 -98 -128 -180 -128c-53.333 0 -98.666 18.667 -135.999 56s-56 82.666 -56 135.999c0 52.667 19.833 97.834 59.5 135.501s86.167 56.5 139.5 56.5c86 0 159.667 -31.833 221 -95.5s92 -138.5 92 -224.5zM-977 1345c-28.667 26 -65.667 39.001 -111 39.001
c-17.333 0 -32.333 -6.33301 -45 -19s-19 -27.667 -19 -45s6.33301 -32.333 19 -45s27.667 -19 45 -19c20.667 0 41.667 7.33301 63 22c25.333 17.333 41.333 39.666 48 66.999z" />
    <glyph glyph-name="u0C40" unicode="&#xc40;" 
d="M-768 1192c0 -89.333 -31 -164.999 -93 -226.999s-137.667 -93 -227 -93c-117.333 0 -220.666 42 -309.999 126l90 91c65.333 -59.333 138.666 -89 219.999 -89c52 0 97 19 135 57s57 83 57 135c0 20 -4 41.333 -12 64c-30 -85.333 -90 -128 -180 -128
c-53.333 0 -98.666 18.667 -135.999 56s-56 82.666 -56 135.999c0 48 16.667 90 50 126c-33.333 36.667 -50 80 -50 130c0 53.333 18.667 98.666 56 135.999s82.666 56 135.999 56s98.666 -18.667 135.999 -56s56 -82.666 56 -135.999h-128
c0.666992 42.667 -20.666 64 -63.999 64c-17.333 0 -32.333 -6.33301 -45 -19s-19 -27.667 -19 -45c0 -42.667 21.333 -64 64 -64c91.333 0 167.5 -31 228.5 -93s91.5 -137.667 91.5 -227zM-968 1344c-28.667 26.667 -68.667 40 -120 40c-17.333 0 -32.333 -6.33301 -45 -19
s-19 -27.667 -19 -45s6.33301 -32.333 19 -45s27.667 -19 45 -19c64.667 0 104.667 29.333 120 88z" />
    <glyph glyph-name="u0C41" unicode="&#xc41;" horiz-adv-x="758" 
d="M695 483c0 -143.333 -41.335 -262.001 -124.002 -356.001c-86.667 -98 -200.667 -147 -342 -147c-120.667 0 -224.667 35.333 -312 106c-94 76 -141 173 -141 291h160c0 -64 34.333 -114.667 103 -152c56.667 -30 120 -45 190 -45c90.667 0 164.334 27.833 221.001 83.5
s85 128.834 85 219.501c0 100 -31.667 184 -95 252c-65.333 70 -147.333 105 -246 105v160c140.667 0 259.334 -50.833 356.001 -152.5s145 -223.167 145 -364.5z" />
    <glyph glyph-name="u0C42" unicode="&#xc42;" horiz-adv-x="1350" 
d="M1286 741c0 -70 -23.832 -130.5 -71.499 -181.5s-106.167 -76.5 -175.5 -76.5c-74.667 0 -135 27.333 -181 82c-43.333 51.333 -65 114.666 -65 189.999c0 24 7 52.333 21 85h-257c92 -100 138 -219 138 -357c0 -142.667 -41.667 -261 -125 -355
c-86.667 -98.667 -200.334 -148 -341.001 -148c-119.333 0 -223 35.667 -311 107c-94.667 77.333 -142 174 -142 290h160c0.666992 -64 35 -114.333 103 -151c56.667 -30.667 120 -46 190 -46c90.667 0 164.334 27.833 221.001 83.5s85 128.834 85 219.501
c0 100 -32 184.5 -96 253.5s-145.667 103.5 -245 103.5v160h846c69.333 0 127.666 -25.667 174.999 -77s71 -112 71 -182zM1162 742c0 33.333 -12 62 -36 86s-52.667 36 -86 36s-62 -12 -86 -36s-36 -52.667 -36 -86s12 -62 36 -86s52.667 -36 86 -36s62 12 86 36
s36 52.667 36 86z" />
    <glyph glyph-name="u0C43" unicode="&#xc43;" horiz-adv-x="642" 
d="M588 -112c0 -112 -36.001 -210.002 -108.001 -294.002c-75.333 -88 -168 -132 -278 -132c-83.333 0 -155.666 27.667 -216.999 83s-92 124.333 -92 207c0 58 20.5 107.5 61.5 148.5s90.5 61.5 148.5 61.5s107.667 -20.667 149 -62s62 -91 62 -149
c0 -63.333 -24 -115.666 -72 -156.999c62.667 0 116 34.333 160 103c38.667 60.667 58 124.334 58 191.001c0 266 -144.333 510.667 -433 734l86 94c316.667 -266.667 475 -542.667 475 -828zM185.999 -249.002c0 22.667 -8.16699 42.167 -24.5 58.5
s-35.833 24.5 -58.5 24.5s-42 -8.16699 -58 -24.5s-24 -35.833 -24 -58.5c0 -72.667 31.667 -117.667 95 -135c46.667 24 70 69 70 135z" />
    <glyph glyph-name="u0C44" unicode="&#xc44;" horiz-adv-x="1108" 
d="M1045 523c0 -70 -23.667 -130.498 -71 -181.498s-105.666 -76.5 -174.999 -76.5c-74.667 0 -135.334 27.333 -182.001 82c-43.333 51.333 -65 114.666 -65 189.999c0 21.333 7 49.666 21 84.999h-355c246.667 -234.667 370 -479.334 370 -734.001
c0 -112 -36 -210 -108 -294c-75.333 -88 -168 -132 -278 -132c-83.333 0 -155.666 27.667 -216.999 83s-92 124.333 -92 207c0 58 20.5 107.5 61.5 148.5s90.5 61.5 148.5 61.5s107.667 -20.667 149 -62s62 -91 62 -149c0 -62.667 -24 -115 -72 -157
c62.667 0 116 34.333 160 103c38.667 60.667 58 124.334 58 191.001c0 266 -144.333 510.667 -433 734v160h772c69.333 0 127.666 -25.667 174.999 -77s71 -112 71 -182zM921 524.002c0 33.333 -12 62 -36 86s-52.667 36 -86 36s-62 -12 -86 -36s-36 -52.667 -36 -86
s12 -62 36 -86s52.667 -36 86 -36s62 12 86 36s36 52.667 36 86zM186 -248.998c0 22.667 -8.16699 42.167 -24.5 58.5s-35.833 24.5 -58.5 24.5s-42 -8.16699 -58 -24.5s-24 -35.833 -24 -58.5c0 -73.333 31.667 -118.333 95 -135c46.667 24 70 69 70 135z" />
    <glyph glyph-name="u0C46" unicode="&#xc46;" 
d="M-245 1069c0 -55.333 -20.167 -102 -60.5 -140s-91.166 -57 -152.499 -57h-249v128h249c56.667 0 85 23 85 69s-28.333 69 -85 69h-725v128h725c65.333 0 117.666 -19.333 156.999 -58c37.333 -36.667 56 -83 56 -139z" />
    <glyph glyph-name="u0C47" unicode="&#xc47;" 
d="M-245 1069c0 -56.667 -18.667 -103.668 -56 -141.001s-84 -56 -140 -56h-266v128h266c18 0 34 7 48 21s21 30 21 48c0 46 -23 69 -69 69h-742v128h505c-8.66699 24.667 -13 46.667 -13 66c0 56.667 18.667 103.834 56 141.501s84.333 56.5 141 56.5h206v-128h-206
c-46 0 -69 -23.333 -69 -70c0 -44 15 -66 45 -66h77c54.667 0 101 -19.167 139 -57.5s57 -84.833 57 -139.5z" />
    <glyph glyph-name="u0C48" unicode="&#xc48;" 
d="M-245 1069c0 -54.667 -19.167 -101.167 -57.5 -139.5s-84.833 -57.5 -139.5 -57.5h-265v128h265c46 0 69 23 69 69s-23 69 -69 69h-741v128h741c54 0 100.333 -19.333 139 -58s58 -85 58 -139zM-29 -536h-1161c-57.333 0 -106.166 20.167 -146.499 60.5
s-60.5 89.166 -60.5 146.499s20.167 106.166 60.5 146.499s89.166 60.5 146.499 60.5s106.166 -20.167 146.499 -60.5s60.5 -89.166 60.5 -146.499c0 -27.333 -5.66699 -53.666 -17 -78.999h971v-128zM-1111 -329c0 22 -7.66699 40.667 -23 56s-34 23 -56 23
s-40.667 -7.66699 -56 -23s-23 -34 -23 -56s7.66699 -40.667 23 -56s34 -23 56 -23s40.667 7.66699 56 23s23 34 23 56z" />
    <glyph glyph-name="u0C4A" unicode="&#xc4a;" horiz-adv-x="170" 
d="M105 1249c0 -66 -23.5029 -122.498 -70.5029 -169.498s-103.5 -70.5 -169.5 -70.5s-122.5 23.5 -169.5 70.5s-70.5 103.5 -70.5 169.5c0 33.333 7 65.666 21 96.999c-98 -28.667 -147 -85.334 -147 -170.001h-128c0 53.333 -19.167 99.333 -57.5 138
s-84.166 58 -137.499 58c-59.333 0 -106.666 -19.333 -141.999 -58s-53 -88 -53 -148c0 -46 14 -87.667 42 -125c30.667 -40.667 68.334 -61 113.001 -61v-160c-76 0 -143.333 39.333 -202 118c-54 72.667 -81 148.667 -81 228c0 92.667 30.833 171.5 92.5 236.5
s138.5 97.5 230.5 97.5c110.667 0 198.334 -45.667 263.001 -137c79.333 84.667 204.333 127 375 127c81.333 0 148.666 -19.333 201.999 -58c59.333 -43.333 89 -104.333 89 -183zM-23.0029 1249c0 30.667 -11 57 -33 79s-48.333 33 -79 33s-57 -11 -79 -33
s-33 -48.333 -33 -79s11 -57 33 -79s48.333 -33 79 -33s57 11 79 33s33 48.333 33 79z" />
    <glyph glyph-name="u0C4B" unicode="&#xc4b;" horiz-adv-x="170" 
d="M105 1249c0 -66 -23.5059 -122.497 -70.5059 -169.497s-103.5 -70.5 -169.5 -70.5s-122.5 23.5 -169.5 70.5s-70.5 103.5 -70.5 169.5c0 33.333 7 65.666 21 96.999c-98 -28.667 -147 -85.334 -147 -170.001h-128c0 53.333 -19.167 99.333 -57.5 138
s-84.166 58 -137.499 58c-59.333 0 -106.666 -19.333 -141.999 -58s-53 -88 -53 -148c0 -46 14 -87.667 42 -125c30.667 -40.667 68.334 -61 113.001 -61v-160c-76.667 0 -144 39.333 -202 118c-54 72.667 -81 148.667 -81 228c0 92.667 30.833 171.5 92.5 236.5
s138.5 97.5 230.5 97.5c110.667 0 198.334 -45.667 263.001 -137c53.333 59.333 136 98.666 248 117.999c-9.33301 22.667 -14 46.667 -14 72c0 52.667 18.833 97.834 56.5 135.501s82.834 56.5 135.501 56.5s97.834 -18.833 135.501 -56.5s56.5 -82.834 56.5 -135.501h-128
c-0.666992 42.667 -22 64 -64 64c-42.667 0 -64 -21.333 -64 -64c0 -34 21.333 -55.333 64 -64c160 -31.333 240 -111.333 240 -240zM-23.0059 1249c0 30.667 -11 57 -33 79s-48.333 33 -79 33s-57 -11 -79 -33s-33 -48.333 -33 -79s11 -57 33 -79s48.333 -33 79 -33
s57 11 79 33s33 48.333 33 79z" />
    <glyph glyph-name="u0C4C" unicode="&#xc4c;" horiz-adv-x="504" 
d="M440 1016c0 -66 -23.5 -122.499 -70.5 -169.499s-103.5 -70.5 -169.5 -70.5s-122.5 23.5 -169.5 70.5s-70.5 103.5 -70.5 169.5c0 39.333 9.33301 76.666 28 111.999h-176c6 -29.333 9 -51 9 -65c0 -53.333 -18.5 -98.5 -55.5 -135.5s-82.167 -55.5 -135.5 -55.5h-337
v128h337c42.667 0 64 21.333 64 64c0 16.667 -6.5 31.5 -19.5 44.5s-27.833 19.5 -44.5 19.5h-462v128h1032c66 0 122.5 -23.5 169.5 -70.5s70.5 -103.5 70.5 -169.5zM312 1016c0 30.667 -11 57 -33 79s-48.333 33 -79 33s-57 -11 -79 -33s-33 -48.333 -33 -79
s11 -57 33 -79s48.333 -33 79 -33s57 11 79 33s33 48.333 33 79z" />
    <glyph glyph-name="u0C4D" unicode="&#xc4d;" 
d="M0 1398h-467c-56.667 0 -85 -23.333 -85 -70c0 -45.333 28.333 -68 85 -68h239v-128h-239c-65.333 0 -98 -21.667 -98 -65c0 -44.667 36.333 -67 109 -67h46v-160h-46c-80.667 0 -142 25 -184 75c-34.667 40.667 -52 91.334 -52 152.001s19.333 107.334 58 140.001
c-28.667 35.333 -43 75.666 -43 120.999c0 55.333 19.5 102.166 58.5 140.499s89.5 57.5 151.5 57.5h467v-128z" />
    <glyph glyph-name="u0C55" unicode="&#xc55;" 
d="M0 1652l-128.001 -0.000976562c0 42.667 -21.333 64 -64 64s-64 -21.333 -64 -64s21.333 -64 64 -64v-128c-52.667 0 -97.834 18.833 -135.501 56.5s-56.5 82.834 -56.5 135.501s18.833 97.834 56.5 135.501s82.834 56.5 135.501 56.5s97.834 -18.833 135.501 -56.5
s56.5 -82.834 56.5 -135.501z" />
    <glyph glyph-name="u0C56" unicode="&#xc56;" 
d="M-29 -536h-1161c-57.333 0 -106.166 20.167 -146.499 60.5s-60.5 89.166 -60.5 146.499s20.167 106.166 60.5 146.499s89.166 60.5 146.499 60.5s106.166 -20.167 146.499 -60.5s60.5 -89.166 60.5 -146.499c0 -27.333 -5.66699 -53.666 -17 -78.999h971v-128z
M-1111 -329c0 22 -7.66699 40.667 -23 56s-34 23 -56 23s-40.667 -7.66699 -56 -23s-23 -34 -23 -56s7.66699 -40.667 23 -56s34 -23 56 -23s40.667 7.66699 56 23s23 34 23 56z" />
    <glyph glyph-name="u0C60" unicode="&#xc60;" horiz-adv-x="3200" 
d="M3136 741c0 -70 -23.8291 -130.662 -71.4961 -181.995s-106.167 -77 -175.5 -77c-74.667 0 -135 27.333 -181 82c-44 52 -66 115.667 -66 191c0 25.333 7 53.666 21 84.999h-285c106.667 -106.667 160 -233.667 160 -381c0 -130.667 -34 -241 -102 -331
c-74.667 -98.667 -175.334 -148 -302 -148c-118.667 0 -216 52.667 -292 158c-83.333 -105.333 -184 -158 -302 -158c-117.333 0 -213.666 51.667 -288.999 155c-80.667 -103.333 -179 -155 -295 -155c-111.333 0 -204.333 49 -279 147c-64 -98 -154.333 -147 -271 -147
c-96.667 0 -177.834 33.667 -243.501 101s-98.5 149.333 -98.5 246c0 103.333 34.667 181.666 104 234.999c30 22.667 94.667 52 194 88c69.333 25.333 104 55.666 104 90.999c0 66 -32.667 99 -98 99c-26.667 0 -49.334 -9.83301 -68.001 -29.5
s-28.334 -42.834 -29.001 -69.501h-160c0 70.667 25.167 131.5 75.5 182.5s110.833 76.5 181.5 76.5c69.333 0 129.666 -25.833 180.999 -77.5s77 -112.167 77 -181.5c0 -88 -34.667 -153 -104 -195l-194 -78c-69.333 -31.333 -104 -78.333 -104 -141
c0 -98 60.667 -147 182 -147c54.667 0 99.334 14.333 134.001 43c37.333 31.333 56 73.666 56 126.999h160c0 -113.333 66.667 -170 200 -170c156 0 234 93 234 279c0 118.667 -39.333 212.667 -118 282c-74.667 66 -172.334 99 -293.001 99v160
c158 0 291.667 -50.333 401 -151c113.333 -103.333 170 -233.333 170 -390c0 -12.667 -1.66699 -31.667 -5 -57s-5 -44.333 -5 -57c0 -110 66.667 -165 200 -165c81.333 0 143.333 27 186 81c38.667 48.667 58 114.667 58 198c0 118.667 -39.333 212.667 -118 282
c-74.667 66 -172.334 99 -293.001 99v160c158 0 291.667 -50.333 401 -151c113.333 -103.333 170 -233.333 170 -390c0 -12 -1.66699 -30.333 -5 -55s-5 -43 -5 -55c0 -112.667 66.667 -169 200 -169c81.333 0 143.333 27 186 81c38.667 48.667 58 114.667 58 198
c0 118.667 -39.333 212.667 -118 282c-74.667 66 -172.334 99 -293 99v160h922c69.333 0 127.833 -25.667 175.5 -77s71.5 -112 71.5 -182zM3011 741.005c0 33.333 -12 62 -36 86s-52.667 36 -86 36s-62 -12 -86 -36s-36 -52.667 -36 -86s12 -62 36 -86s52.667 -36 86 -36
s62 12 86 36s36 52.667 36 86z" />
    <glyph glyph-name="u0C61" unicode="&#xc61;" horiz-adv-x="2176" 
d="M2111 741c0 -70 -23.834 -130.666 -71.501 -181.999s-106.167 -77 -175.5 -77c-74.667 0 -135 27.333 -181 82c-44 52 -66 115.667 -66 191c0 22 7 50.333 21 85h-194c24 -56 36 -114 36 -174c0 -192 -68.833 -354.333 -206.5 -487s-303.167 -199 -496.5 -199
c-130.667 0 -242.667 23.667 -336 71c-119.333 60 -179 149 -179 267c0 81.333 31.333 143.666 94 186.999c54 37.333 123.667 56 209 56c30.667 0 75.834 -4.33301 135.501 -13s104.834 -13 135.501 -13c44.667 0 80.5 14.833 107.5 44.5s40.5 66.834 40.5 111.501
c0 40 -14.667 74.833 -44 104.5s-64 44.5 -104 44.5c-42.667 0 -78.667 -14.167 -108 -42.5s-44 -63.833 -44 -106.5h-160c0 43.333 -14.5 79 -43.5 107s-65.167 42 -108.5 42c-41.333 0 -76.333 -14.5 -105 -43.5s-43 -64.167 -43 -105.5c0 -34 7.66699 -62.333 23 -85
l-116 -104c-44.667 54.667 -67 117.667 -67 189c0 84 30.333 156.5 91 217.5s133 91.5 217 91.5c88.667 0 166 -37.667 232 -113c65.333 75.333 142.666 113 231.999 113c84.667 0 157.167 -30.333 217.5 -91s90.5 -133.334 90.5 -218.001
c0 -85.333 -30.167 -159.333 -90.5 -222s-132.833 -94 -217.5 -94c-30.667 0 -75.834 4.33301 -135.501 13s-104.834 13 -135.501 13c-95.333 0 -143 -27.667 -143 -83c0 -61.333 46 -105.333 138 -132c60 -17.333 132.333 -26 217 -26
c160.667 0 290.334 43.667 389.001 131c102.667 91.333 154 216.333 154 375c0 39.333 -5.33301 75 -16 107c-15.333 44.667 -38.666 67 -69.999 67v160h630c69.333 0 127.833 -25.667 175.5 -77s71.5 -112 71.5 -182zM1986 741.001c0 33.333 -12 62 -36 86
s-52.667 36 -86 36s-62 -12 -86 -36s-36 -52.667 -36 -86s12 -62 36 -86s52.667 -36 86 -36s62 12 86 36s36 52.667 36 86z" />
    <glyph glyph-name="u0C66" unicode="&#xc66;" horiz-adv-x="1128" 
d="M1064 500c0 -141.333 -47.667 -263 -143 -365c-97.333 -103.333 -216.333 -155 -357 -155c-144 0 -263.667 51 -359 153c-94 100 -141 222.333 -141 367c0 138 48.833 255.833 146.5 353.5s215.5 146.5 353.5 146.5s255.833 -48.833 353.5 -146.5
s146.5 -215.5 146.5 -353.5zM904 500c0 93.333 -33.333 173.333 -100 240s-146.667 100 -240 100s-173.333 -33.333 -240 -100s-100 -146.667 -100 -240s33.667 -170.333 101 -231c65.333 -59.333 145 -89 239 -89s174.167 30 240.5 90s99.5 136.667 99.5 230z" />
    <glyph glyph-name="u0C67" unicode="&#xc67;" horiz-adv-x="1168" 
d="M1104 470c0 -193.333 -60 -350 -180 -470l-128 102c98.667 98.667 148 221.334 148 368.001c0 98 -35.5 184.167 -106.5 258.5s-155.5 111.5 -253.5 111.5s-182.5 -37.167 -253.5 -111.5s-106.5 -160.5 -106.5 -258.5c0 -146.667 49.333 -269.334 148 -368.001l-128 -102
c-120 120 -180 276.667 -180 470c0 146.667 50.167 271.667 150.5 375s223.5 155 369.5 155s269.167 -51.667 369.5 -155s150.5 -228.333 150.5 -375z" />
    <glyph glyph-name="u0C68" unicode="&#xc68;" horiz-adv-x="1350" 
d="M1280 500c0 -144 -47.668 -266.668 -143.001 -368.001s-214.666 -152 -357.999 -152h-715v200h715c98.667 0 179.667 28.333 243 85c65.333 59.333 98 137.666 98 234.999c0 96.667 -34 174.667 -102 234c-14 -66 -42.833 -118.167 -86.5 -156.5
s-94.167 -57.5 -151.5 -57.5c-66.667 0 -123.334 23.333 -170.001 70s-70 103.334 -70 170.001s23.333 123.334 70 170.001s103.334 70 170.001 70c138.667 0 256.667 -48.667 354 -146s146 -215.333 146 -354zM898.999 805.999c-32 22.667 -71.667 34 -119 34
c-22 0 -40.833 -7.83301 -56.5 -23.5s-23.5 -34.5 -23.5 -56.5s7.83301 -40.833 23.5 -56.5s34.5 -23.5 56.5 -23.5c67.333 0 107 42 119 126z" />
    <glyph glyph-name="u0C69" unicode="&#xc69;" horiz-adv-x="932" 
d="M869 300c0 -106 -42 -187.666 -126 -244.999c-73.333 -50 -165.333 -75 -276 -75c-109.333 0 -201.333 25.667 -276 77c-84.667 58.667 -127 139.667 -127 243h160c0 -80 81 -120 243 -120c161.333 0 242 40 242 120c0 79.333 -37.333 119 -112 119h-230v160h230
c34 0 61.167 11.5 81.5 34.5s30.5 51.833 30.5 86.5c0 51.333 -29.333 89.333 -88 114c-42 17.333 -93.333 26 -154 26c-58.667 0 -110 -9.33301 -154 -28c-59.333 -24.667 -89 -62 -89 -112h-160c0 100 44 177.333 132 232c74 45.333 164.333 68 271 68
c108 0 198.333 -22.333 271 -67c87.333 -54 131 -131.667 131 -233c0 -94.667 -28.667 -161.334 -86 -200.001c57.333 -33.333 86 -100 86 -200z" />
    <glyph glyph-name="u0C6A" unicode="&#xc6a;" horiz-adv-x="1256" 
d="M1192 780c0 -98.667 -35.332 -189.667 -105.999 -273c-67.333 -79.333 -150 -132 -248 -158c20 -31.333 30 -67.666 30 -108.999c0 -75.333 -21 -137 -63 -185c-44 -50 -103 -75 -177 -75c-76.667 0 -136.334 24.333 -179.001 73c-40.667 46.667 -61 109 -61 187
c0 45.333 10 81.666 30 108.999c-98 26 -180.667 78.667 -248 158c-70.667 83.333 -106 174.333 -106 273c0 60.667 21.5 112.5 64.5 155.5s94.833 64.5 155.5 64.5v-140c-22 0 -40.833 -7.83301 -56.5 -23.5s-23.5 -34.5 -23.5 -56.5c0 -94 50 -169.667 150 -227
c84.667 -49.333 177.667 -74 279 -74c100.667 0 192 24.667 274 74c96.667 57.333 145 133 145 227c0 22 -7.83301 40.833 -23.5 56.5s-34.5 23.5 -56.5 23.5v140c60.667 0 112.5 -21.5 155.5 -64.5s64.5 -94.833 64.5 -155.5zM708.001 240c0 22 -7.83301 40.833 -23.5 56.5
s-34.5 23.5 -56.5 23.5s-40.833 -7.83301 -56.5 -23.5s-23.5 -34.5 -23.5 -56.5s7.83301 -40.833 23.5 -56.5s34.5 -23.5 56.5 -23.5s40.833 7.83301 56.5 23.5s23.5 34.5 23.5 56.5z" />
    <glyph glyph-name="u0C6B" unicode="&#xc6b;" horiz-adv-x="1372" 
d="M1308 281c0 -96 -45.667 -189.668 -137 -281.001l-116 99c62 61.333 93 122 93 182c0 33.333 -8 70 -24 110c-17.333 44 -38 74.333 -62 91c0 -150.667 -50.333 -272.667 -151 -366c-98.667 -90.667 -225 -136 -379 -136c-104.667 0 -192 15.333 -262 46
c-65.333 28.667 -134.666 80 -207.999 154l102 128c90 -90 212.667 -135 368 -135c105.333 0 192.333 27.333 261 82c74 60 111 141.667 111 245c0 96 -38.333 177.333 -115 244c-73.333 64 -159 96 -257 96c-146.667 0 -269.334 -49.333 -368.001 -148l-102 128
c120 120 276.667 180 470 180c143.333 0 266 -43.667 368 -131c107.333 -91.333 161 -206.333 161 -345c58 54 87 119.333 87 196c0 60 -31 120.667 -93 182l116 98c91.333 -91.333 137 -184.666 137 -279.999c0 -94 -24.667 -167.333 -74 -220c49.333 -54 74 -127 74 -219z
" />
    <glyph glyph-name="u0C6C" unicode="&#xc6c;" horiz-adv-x="1200" 
d="M1136 -20l-785 -0.00195312c-80 0 -148.333 31.667 -205 95c-54.667 60.667 -82 131.334 -82 212.001c0 92 32.333 162 97 210c-64.667 60 -97 132 -97 216c0 80 27.833 147.833 83.5 203.5s123.5 83.5 203.5 83.5h186v-160h-186c-36 0 -66.167 -12.167 -90.5 -36.5
s-36.5 -54.5 -36.5 -90.5c0 -38 11.833 -69.833 35.5 -95.5s54.167 -38.5 91.5 -38.5h304v-160h-304c-35.333 0 -65.333 -13.167 -90 -39.5s-37 -57.166 -37 -92.499c0 -31.333 13.667 -57.333 41 -78c25.333 -19.333 54 -29 86 -29h785v-200z" />
    <glyph glyph-name="u0C6D" unicode="&#xc6d;" horiz-adv-x="1020" 
d="M956 302c0 -111.333 -48.668 -195.333 -146.001 -252c-80 -46.667 -180 -70 -300 -70c-126 0 -227 21.667 -303 65c-95.333 54.667 -143 140.334 -143 257.001s49 196 147 238c63.333 26.667 163 40 299 40c82.667 0 141.334 4 176.001 12c74 16 111 51.333 111 106
c0 94.667 -95.667 142 -287 142c-68 0 -127.333 -8.66699 -178 -26c-72 -24.667 -108 -63.334 -108 -116.001h-160c0 104.667 50.667 184 152 238c81.333 42.667 179.333 64 294 64c120 0 218.667 -20.333 296 -61c100 -52 150 -132.333 150 -241
c0 -116.667 -49 -196 -147 -238c-63.333 -26.667 -163 -40 -299 -40c-82.667 0 -141 -4 -175 -12c-74 -16.667 -111 -52 -111 -106c0 -81.333 93 -122 279 -122c196 0 293.667 40.667 293 122h160z" />
    <glyph glyph-name="u0C6E" unicode="&#xc6e;" horiz-adv-x="1292" 
d="M1228 840h-307.001c44.667 -37.333 80 -89 106 -155c24.667 -60.667 37 -122.334 37 -185.001c0 -144.667 -47 -267 -141 -367c-96 -102 -215.667 -153 -359 -153c-145.333 0 -265.666 50.667 -360.999 152c-92.667 98.667 -139 221.334 -139 368.001
c0 138 49 256 147 354l110 -116c-64.667 -66 -97 -145.333 -97 -238c0 -94 33 -170.833 99 -230.5s146.333 -89.5 241 -89.5s175 29.833 241 89.5s99 136.5 99 230.5c0 94.667 -33 175 -99 241s-146.333 99 -241 99v160h664v-160z" />
    <glyph glyph-name="u0C6F" unicode="&#xc6f;" horiz-adv-x="1170" 
d="M1126 840l-775.001 -0.00195312c-34 0 -63.667 -12.667 -89 -38s-38 -55 -38 -89c0 -35.333 12.333 -66.166 37 -92.499s54.667 -39.5 90 -39.5h304v-160h-304c-37.333 0 -67.833 -12.833 -91.5 -38.5s-35.5 -57.5 -35.5 -95.5c0 -33.333 13 -60 39 -80
c24 -18 53.333 -27 88 -27h186v-200h-186c-79.333 0 -147.666 31.667 -204.999 95c-54.667 60.667 -82 131.334 -82 212.001c0 84 32.333 156 97 216c-64.667 48 -97 118 -97 210c0 80.667 27.667 148.667 83 204s123.333 83 204 83h775v-160z" />
    <glyph glyph-name="afii61664" unicode="&#x200c;" 
d="M219 1369l-49 -49l-134 136v-1731h-72v1731l-134 -136l-49 49l171 169l-171 168l49 49l170 -171l170 171l49 -49l-171 -168z" />
    <glyph glyph-name="afii301" unicode="&#x200d;" 
d="M36 -275h-72v1859h72v-1859z" />
    <glyph glyph-name="hyphen" unicode="&#x2010;" horiz-adv-x="602" 
d="M509 412h-415v118h415v-118z" />
    <glyph glyph-name="Eth" unicode="&#x2013;" horiz-adv-x="824" 
d="M824 527h-824v118h824v-118z" />
    <glyph glyph-name="Ntilde" unicode="&#x2014;" horiz-adv-x="1342" 
d="M1342 527h-1342v118h1342v-118z" />
    </font>
</defs>
</svg>
