<?xml version="1.0" standalone="no"?>
<!DOCTYPE svg PUBLIC "-//W3C//DTD SVG 1.1//EN" "http://www.w3.org/Graphics/SVG/1.1/DTD/svg11.dtd" >
<svg>
<metadata>
Created by FontForge 20090914 at Mon Oct  6 12:17:50 2014
 By www-data
Typeface &#194;&#169; (your company). 2012. All Rights Reserved
</metadata>
<defs>
<font id="Rainbow" horiz-adv-x="1014" >
  <font-face 
    font-family="Rainbow"
    font-weight="400"
    font-stretch="normal"
    units-per-em="2048"
    panose-1="0 0 0 0 0 0 0 0 0 0"
    ascent="1638"
    descent="-410"
    x-height="1394"
    cap-height="1399"
    bbox="-11.6 -1072 1286 1493"
    underline-thickness="150"
    underline-position="-139"
    unicode-range="U+000D-U+FB02"
  />
<missing-glyph horiz-adv-x="1336" 
d="M484 -571l85.001 86.999c8.66699 10 18.667 15 30 15c10.667 0 21.667 -5.66699 33 -17l84 -90c9.33301 -9.33301 14 -19.333 14 -30c0 -11.333 -5 -22.333 -15 -33l-84 -93c-6.66699 -7.33301 -12.834 -12.666 -18.501 -15.999s-10.167 -5 -13.5 -5
c-11.333 0 -21.333 5 -30 15l-91 107c-7.33301 9.33301 -11 18.333 -11 27c0 10.667 5.66699 21.667 17 33zM388.001 578.999l0.000976562 68.001c15.333 13.333 30.166 25.5 44.499 36.5s28.5 20.167 42.5 27.5c52.667 30 108.667 45 168 45
c90.667 0 164.667 -23.667 222 -71c56 -47.333 84 -111 84 -191c0 -46.667 -11.667 -96 -35 -148c-11.333 -24.667 -27.833 -53.167 -49.5 -85.5s-48.5 -68.5 -80.5 -108.5l-85.5 -110l-63.5 -85c-36 -52 -54 -101.667 -54 -149c0 -38 12 -104.333 36 -199h-48
c-34.667 94 -52 168 -52 222c0 72.667 40.667 180.667 122 324s122 251.666 122 324.999c0 58.667 -16.333 104.167 -49 136.5s-78.334 48.5 -137.001 48.5c-37.333 0 -71.666 -8.66699 -102.999 -26c-26 -15.333 -54 -35.333 -84 -60zM1211 -997v1998h-1086v-1998h1086z
M50.002 1076h1236v-2148h-1236v2148z" />
    <glyph glyph-name=".notdef" horiz-adv-x="1336" 
d="M484 -571l85.001 86.999c8.66699 10 18.667 15 30 15c10.667 0 21.667 -5.66699 33 -17l84 -90c9.33301 -9.33301 14 -19.333 14 -30c0 -11.333 -5 -22.333 -15 -33l-84 -93c-6.66699 -7.33301 -12.834 -12.666 -18.501 -15.999s-10.167 -5 -13.5 -5
c-11.333 0 -21.333 5 -30 15l-91 107c-7.33301 9.33301 -11 18.333 -11 27c0 10.667 5.66699 21.667 17 33zM388.001 578.999l0.000976562 68.001c15.333 13.333 30.166 25.5 44.499 36.5s28.5 20.167 42.5 27.5c52.667 30 108.667 45 168 45
c90.667 0 164.667 -23.667 222 -71c56 -47.333 84 -111 84 -191c0 -46.667 -11.667 -96 -35 -148c-11.333 -24.667 -27.833 -53.167 -49.5 -85.5s-48.5 -68.5 -80.5 -108.5l-85.5 -110l-63.5 -85c-36 -52 -54 -101.667 -54 -149c0 -38 12 -104.333 36 -199h-48
c-34.667 94 -52 168 -52 222c0 72.667 40.667 180.667 122 324s122 251.666 122 324.999c0 58.667 -16.333 104.167 -49 136.5s-78.334 48.5 -137.001 48.5c-37.333 0 -71.666 -8.66699 -102.999 -26c-26 -15.333 -54 -35.333 -84 -60zM1211 -997v1998h-1086v-1998h1086z
M50.002 1076h1236v-2148h-1236v2148z" />
    <glyph glyph-name="NULL" horiz-adv-x="0" 
 />
    <glyph glyph-name="NULL" horiz-adv-x="0" 
 />
    <glyph glyph-name="nonmarkingreturn" unicode="&#xd;" horiz-adv-x="508" 
 />
    <glyph glyph-name="space" unicode=" " horiz-adv-x="508" 
 />
    <glyph glyph-name="exclam" unicode="!" horiz-adv-x="225" 
d="M52 1419h124c8 -1.33301 12 -5.33301 12 -12l-1 -1091c0 -8 -4 -12 -12 -12h-124c-8 0 -12 4 -12 12l1 1091c0.666992 8 4.66699 12 12 12zM51 145h122.999c8 -1.33301 12 -5.33301 12 -12v-121c0 -4 -1.16699 -7 -3.5 -9s-5.16602 -3 -8.49902 -3h-123
c-8 0 -12 4 -12 12v121c0.666992 8 4.66699 12 12 12z" />
    <glyph glyph-name="quotedbl" unicode="&#x22;" horiz-adv-x="307" 
d="M36 1399h93c8 -1.33301 12 -5.33301 12 -12v-228c0 -8 -4 -12 -12 -12h-93c-8 0 -12 4 -12 12v228c0.666992 8 4.66699 12 12 12zM176 1399h93c8 -1.33301 12 -5.33301 12 -12v-228c0 -8 -4 -12 -12 -12h-93c-8 0 -12 4 -12 12v228c0.666992 8 4.66699 12 12 12z" />
    <glyph glyph-name="numbersign" unicode="#" horiz-adv-x="1336" 
 />
    <glyph glyph-name="dollar" unicode="$" horiz-adv-x="448" 
d="M163 1328l122 -0.000976562c88.667 -16.667 133 -61 133 -133v-228c0 -7.33301 -3.33301 -11 -10 -11h-128c-6 0 -11.333 5.33301 -16 16v202h-85v-404h112c84.667 -22 127 -64.667 127 -128v-447c-16.667 -87.333 -61 -131 -133 -131h-122
c-88.667 16 -133 57.667 -133 125v235c0.666992 6.66699 4 10 10 10h128c7.33301 -1.33301 11 -4.66602 11 -9.99902v-208h85v405h-106c-43.333 9.33301 -75.5 24.333 -96.5 45s-31.5 48 -31.5 82v453c0 34 11 61.333 33 82s55.333 35.667 100 45zM154 190.999h135
c8 -1.33301 12 -5.33301 12 -12l-2 -164c0 -8 -4 -12 -12 -12h-131c-8 0 -12 4 -12 12l-2 164c0.666992 8 4.66699 12 12 12zM154 1387h135c8 -1.33301 12 -5.33301 12 -12l-2 -165c0 -7.33301 -4 -11 -12 -11h-131c-8 0 -12 3.66699 -12 11l-2 165
c0.666992 8 4.66699 12 12 12z" />
    <glyph glyph-name="percent" unicode="%" horiz-adv-x="595" 
d="M502 1393h54c8 -1.33301 11 -5.33301 9 -12l-465 -1369c-3.33301 -8 -8.33301 -12 -15 -12h-54c-9.33301 0 -12.333 4 -9 12l465 1369c2.66699 8 7.66699 12 15 12zM105 1308h50h-50zM140 698h-11c-48 0 -78 16 -90 48c-4 12.667 -6 21.667 -6 27v547
c0 41.333 25.333 66 76 74h31c64 0 96 -30.667 96 -92v-511c0 -62 -32 -93 -96 -93zM164 1318h-59v-542h59v542zM435 648h50h-50zM470 38h-11c-48 0 -78 16 -90 48c-4 12.667 -6 21.667 -6 27v547c0 41.333 25.333 66 76 74h31c64 0 96 -30.667 96 -92v-511
c0 -62 -32 -93 -96 -93zM494 658h-59v-542h59v542z" />
    <glyph glyph-name="ampersand" unicode="&#x26;" horiz-adv-x="605" 
d="M563 772v-148c-1.33301 -8 -5.33301 -12 -12 -12h-344c-8 0 -12 4 -12 12v148c0 8 4 12 12 12h344c8 -1.33301 12 -5.33301 12 -12zM184 618c-48 12 -83.668 29.502 -107.001 52.502s-35 52.833 -35 89.5v496c0 24 4 45.167 12 63.5s18.833 33.5 32.5 45.5
s29.334 21.167 47.001 27.5s36.5 9.5 56.5 9.5h136c24.667 0 46.167 -3.83301 64.5 -11.5s33.666 -18 45.999 -31s21.5 -27.833 27.5 -44.5s9 -34.334 9 -53.001v-270c-1.33301 -8 -5.33301 -12 -12 -12h-141c-8 0.666992 -12 4.66699 -12 12v241h-95v-615v-448h95v450
c0 6.66699 4 10.667 12 12h141c6.66699 0 10.667 -4 12 -12v-480c0 -18.667 -3 -36.334 -9 -53.001s-15.167 -31.5 -27.5 -44.5s-27.666 -23.333 -45.999 -31s-39.833 -11.5 -64.5 -11.5h-136c-78.667 0 -128 48.667 -148 146v496c0 36.667 11.667 66.5 35 89.5
s59 40.5 107 52.5v-166z" />
    <glyph glyph-name="quotesingle" unicode="'" horiz-adv-x="198" 
d="M93 1231h-65v168h144v-197c0 -32 -8.83301 -57.667 -26.5 -77s-45.167 -29 -82.5 -29h-16v62h14c12 0 20.333 2.5 25 7.5s7 13.833 7 26.5v39z" />
    <glyph glyph-name="parenleft" unicode="(" horiz-adv-x="180" 
 />
    <glyph glyph-name="parenright" unicode=")" horiz-adv-x="482" 
 />
    <glyph glyph-name="asterisk" unicode="*" horiz-adv-x="466" 
d="M427 1097l-18.9971 -32.002c-2.66699 -3.33301 -6.66699 -4.83301 -12 -4.5s-10.333 1.83301 -15 4.5c-6 3.33301 -14.333 8.33301 -25 15l-34 22l-36.5 25.5c-12.333 9 -23.5 17.5 -33.5 25.5c4.66699 -27.333 7.83398 -55.5 9.50098 -84.5s2.5 -52.833 2.5 -71.5
c0 -5.33301 -0.833008 -9.83301 -2.5 -13.5s-4.83398 -5.5 -9.50098 -5.5h-39c-4 0 -7 1.83301 -9 5.5s-3 8.16699 -3 13.5c0 18.667 0.666992 42.5 2 71.5s4.66602 57.167 9.99902 84.5c-10 -8 -21 -16.333 -33 -25l-36 -25l-34 -22l-26 -16
c-4 -2.66699 -8.5 -4.16699 -13.5 -4.5s-8.83301 1.16699 -11.5 4.5l-19 32c-2.66699 3.33301 -2.16699 7.16602 1.5 11.499s7.16699 7.83301 10.5 10.5l28.5 15l35 18.5c12.333 6.33301 25.166 12.5 38.499 18.5s26.333 11.333 39 16c-12 4 -25 9 -39 15
s-27.5 12.333 -40.5 19l-36 19c-11 6 -19.5 11 -25.5 15c-5.33301 2.66699 -9.5 5.66699 -12.5 9s-3.83301 7 -2.5 11l20 34c2 3.33301 5.66699 4.83301 11 4.5s10.666 -1.83301 15.999 -4.5c14.667 -8.66699 34.167 -21.167 58.5 -37.5s46.833 -33.166 67.5 -50.499
c-2 12.667 -3.66699 26.5 -5 41.5s-2.5 29.833 -3.5 44.5s-1.83301 28.167 -2.5 40.5s-1 22.166 -1 29.499c0 5.33301 1.16699 10.333 3.5 15s5.16602 7 8.49902 7h44c5.33301 0 8.66602 -2.33301 9.99902 -7s2 -9.66699 2 -15c0 -7.33301 -0.166992 -17.166 -0.5 -29.499
s-1 -25.833 -2 -40.5s-2.16699 -29.5 -3.5 -44.5s-3.33301 -28.833 -6 -41.5l33.5 26c11.667 8.66699 23.334 16.834 35.001 24.501l33 21.5c10.333 6.66699 19.5 12 27.5 16c4 2.66699 8.5 4.16699 13.5 4.5s8.83301 -1.16699 11.5 -4.5l19 -34
c2 -4 1.33301 -7.66699 -2 -11s-6.66602 -6.33301 -9.99902 -9c-6.66699 -4 -15.5 -9 -26.5 -15l-36 -19c-13 -6.66699 -26.333 -13 -40 -19s-26.5 -11 -38.5 -15c12.667 -4.66699 25.667 -10.167 39 -16.5l38.5 -19l34.5 -18l27 -14.5
c4.66699 -2.66699 8.5 -6.16699 11.5 -10.5s3.83301 -8.16602 2.5 -11.499z" />
    <glyph glyph-name="plus" unicode="+" horiz-adv-x="350" 
d="M143 848h64c8 -1.33301 12 -5.33301 12 -12v-294c0 -8 -4 -12 -12 -12h-64c-8 0 -12 4 -12 12v294c0.666992 8 4.66699 12 12 12zM26 660v64c0.666992 8 4.66699 12 12 12h274c8 0 12 -4 12 -12v-64c0 -8 -4 -12 -12 -12h-274c-8 0.666992 -12 4.66699 -12 12z" />
    <glyph glyph-name="comma" unicode="," horiz-adv-x="241" 
d="M113 27h-65v168h144v-197c0 -32 -8.83301 -57.667 -26.5 -77s-45.167 -29 -82.5 -29h-16v62h14c12 0 20.333 2.66699 25 8s7 14.333 7 27v38z" />
    <glyph glyph-name="hyphen" unicode="-" horiz-adv-x="323" 
d="M272 743v-74c-1.33301 -8 -5.33301 -12 -12 -12h-204c-8 0 -12 4 -12 12v74c0 8 4 12 12 12h204c8 -1.33301 12 -5.33301 12 -12z" />
    <glyph glyph-name="period" unicode="." horiz-adv-x="234" 
d="M51 145h123c8 -1.33301 12 -5.33301 12 -12v-121c0 -8 -4 -12 -12 -12h-123c-8 0 -12 4 -12 12v121c0.666992 8 4.66699 12 12 12z" />
    <glyph glyph-name="slash" unicode="/" horiz-adv-x="514" 
d="M448 1492h74c8.66699 -1.33301 11.667 -5.33301 9 -12l-445 -1518c-2 -8 -7 -12 -15 -12h-73c-8 0 -11 4 -9 12l444 1518c2.66699 8 7.66699 12 15 12z" />
    <glyph glyph-name="zero" unicode="0" horiz-adv-x="512" 
d="M243 1392h23c94.667 0 154.667 -32 180 -96c4 -13.333 6.83301 -24.333 8.5 -33s2.5 -15.667 2.5 -21v-1094c0 -82 -50.667 -131.333 -152 -148h-62c-128 -0 -192 61.333 -192 184v1022c0 124 64 186 192 186zM214 172h90h-90zM195 152h119v1085h-119v-1085z" />
    <glyph glyph-name="one" unicode="1" horiz-adv-x="393" 
d="M352 1228v-1212c0 -6.66699 -6 -12 -18 -16h-138c-8 -0 -12 3.33301 -12 10v1208h-134c-8 0 -12 4 -12 12v145c0.666992 8 4.66699 12 12 12h290c8 -1.33301 12 -5.33301 12 -12v-140v-7z" />
    <glyph glyph-name="two" unicode="2" horiz-adv-x="528" 
d="M333 172h-31h31zM319 172l140 -0.000976562c8 0 12 -4 12 -12v-109c0 -21.333 -11.667 -34.666 -35 -39.999s-60.333 -8 -111 -8h-134c-97.333 21.333 -146 68 -146 140v496c0 72 46.667 118.667 140 140h117v444h-94v-228c0 -6.66699 -3.66699 -10.667 -11 -12h-140
c-7.33301 0 -11.333 4 -12 12v257c0 72.667 48.667 118.667 146 138h134c78 0 126.667 -48 146 -144v-490c0 -70 -46.667 -116.667 -140 -140h-123v-444h94h17z" />
    <glyph glyph-name="three" unicode="3" horiz-adv-x="538" 
d="M182 630l-0.000976562 141.997c0 6.66699 4 10.667 12 12h119v449h-95v-231c0 -7.33301 -4 -11.333 -12 -12h-141c-7.33301 0 -11.333 4 -12 12v260c0 18.667 3 36.334 9 53.001s15.167 31.5 27.5 44.5s27.666 23.333 45.999 31s39.833 11.5 64.5 11.5h136
c20 0 38.833 -3.16699 56.5 -9.5s33.334 -15.5 47.001 -27.5s24.5 -27.167 32.5 -45.5s12 -39.5 12 -63.5v-496c0 -70.667 -47.333 -118 -142 -142l-148 1c-7.33301 0.666992 -11.333 4.33398 -12 11.001v142c0 6.66699 4 10.667 12 12h148c94.667 -24 142 -71.333 142 -142
v-496c-20 -97.333 -69.333 -146 -148 -146h-136c-24.667 0 -46.167 3.83301 -64.5 11.5s-33.666 18 -45.999 31s-21.5 27.833 -27.5 44.5s-9 34.334 -9 53.001v260c0.666992 8 4.66699 12 12 12h141c8 -1.33301 12 -5.33301 12 -12v-230h95v448h-119
c-8 1.33301 -12 5.33301 -12 12v142v-142z" />
    <glyph glyph-name="four" unicode="4" horiz-adv-x="499" 
d="M314 1399h144c8 -1.33301 12 -5.33301 12 -12v-1374c0 -8 -4 -12 -12 -12h-144c-8 0 -12 4 -12 12v1374c0.666992 8 4.66699 12 12 12zM314 1399h144c8 -1.33301 12 -5.33301 12 -12v-1374c0 -8 -4 -12 -12 -12h-144c-8 0 -12 4 -12 12v1374c0.666992 8 4.66699 12 12 12
zM323 783v-144c-1.33301 -8 -5.33301 -12 -12 -12h-267c-8 0 -12 4 -12 12v144c0 8 4 12 12 12h267c8 -1.33301 12 -5.33301 12 -12zM44 1399h144c8 -1.33301 12 -5.33301 12 -12v-701c0 -8 -4 -12 -12 -12h-144c-8 0 -12 4 -12 12v701c0.666992 8 4.66699 12 12 12z" />
    <glyph glyph-name="five" unicode="5" horiz-adv-x="526" 
d="M305 1216l-93 0.00195312v-440h122c92.667 -22.667 139 -69 139 -139v-486c-18.667 -95.333 -67 -143 -145 -143h-134c-96.667 18 -145 63.667 -145 137v255c0.666992 7.33301 4.66699 11 12 11h139c8 -1.33301 12 -5 12 -11v-226h93v440h-117
c-92.667 20.667 -139 67 -139 139v492c0 18 3.16699 35.333 9.5 52s15.5 31.5 27.5 44.5s27 23.333 45 31s39 11.5 63 11.5h134c25.333 0 47.166 -0.166992 65.499 -0.5s33.333 -1.83301 45 -4.5s20.334 -7.33398 26.001 -14.001s8.5 -16.334 8.5 -29.001v-108
c0 -8 -3.66699 -12 -11 -12h-140h-17z" />
    <glyph glyph-name="six" unicode="6" horiz-adv-x="532" 
d="M482 181c-15.333 -19.333 -26.666 -38.668 -33.999 -58.001s-15 -37 -23 -53s-17.833 -30.167 -29.5 -42.5s-28.834 -21.166 -51.501 -26.499h-126c-112 12.667 -168 60.667 -168 144v1110c0 82 56 130 168 144h84c120 0 180 -60 180 -180v-216c0 -6 -6 -12 -18 -18h-138
c-8 0 -12 4 -12 12v234h-96v-1062h96v444h-119c-4 0 -7 1.16699 -9 3.5s-3 5.16602 -3 8.49902v144c0.666992 4 2 7.33301 4 10s4.66699 3.33398 8 2.00098l219 -84zM224 161.998h90v450h-90v-450zM254 785.998h23.998c100.667 0 164.667 -32 192 -96c8 -26 12 -44 12 -54
v-498c0 -20.667 -3.33301 -39.5 -10 -56.5s-16.167 -31.5 -28.5 -43.5s-27 -21.167 -44 -27.5s-35.5 -9.5 -55.5 -9.5h-126c-23.333 0 -45.166 3.16699 -65.499 9.5s-38.166 16.5 -53.499 30.5s-27.333 32 -36 54s-13 48.333 -13 79v426c0 124 68 186 204 186z" />
    <glyph glyph-name="seven" unicode="7" horiz-adv-x="580" 
d="M62 1402h456c8 -1.33301 12 -5.33301 12 -12v-150c0 -8 -4 -12 -12 -12h-144h-12h-13h-121h-14h-8h-144c-8 0 -12 4 -12 12v150c0.666992 8 4.66699 12 12 12zM374 1250l143.999 -0.000976562c1.33301 0 3.83301 -1.66699 7.5 -5s5.16699 -5.66602 4.5 -6.99902
l-265 -1226c-1.33301 -4 -2.66602 -7 -3.99902 -9s-4 -3 -8 -3h-144c-0.666992 0 -3 2 -7 6c-2 2 -3.66699 4 -5 6l265 1226c0.666992 8 4.66699 12 12 12z" />
    <glyph glyph-name="eight" unicode="8" horiz-adv-x="530" 
d="M196 -1c-20 0 -39.002 3.83008 -57.002 11.4971s-33.667 17.834 -47 30.501s-24 27.334 -32 44.001s-12 34.334 -12 53.001v261c0.666992 8 4.66699 12 12 12h142c8 -1.33301 12 -5.33301 12 -12v-231h101v450h-125c-4 0.666992 -7.83301 2.33398 -11.5 5.00098
s-3.83398 5 -0.500977 7l186 143l-13 -142c0 -7.33301 -4 -11.333 -12 -12h-125v-450h101v231c0 6.66699 4 10.667 12 12h142c6.66699 0 10.667 -4 12 -12v-261c0 -74.667 -49.333 -121 -148 -139h-137c-78.667 0 -128 48.333 -148 145v498
c0 71.333 47.333 118.666 142 141.999h149c8 -1.33301 12 -5.33301 12 -12v-142c-1.33301 -5.33301 -2.66602 -8.5 -3.99902 -9.5s-4 -1.5 -8 -1.5l-149 -1c-94.667 24 -142 71.667 -142 143v498c0 24.667 4 46.167 12 64.5s18.833 33.5 32.5 45.5s29.334 21 47.001 27
s36.5 9 56.5 9h137c98.667 -18.667 148 -65.334 148 -140.001v-261c-1.33301 -8 -5.33301 -12 -12 -12h-142c-8 0.666992 -12 4.66699 -12 12v231h-101v-451h125c8 -1.33301 12 -5 12 -11v-143l-173 142c-2.66699 2 -2.33398 4.16699 0.999023 6.5s7 3.83301 11 4.5h125v451
h-101v-231c0 -7.33301 -4 -11.333 -12 -12h-142c-7.33301 0 -11.333 4 -12 12v261c0 74 49.333 120.667 148 140h137c20 0 38.833 -2.16699 56.5 -6.5s33.334 -12 47.001 -23s24.5 -26 32.5 -45s12 -42.833 12 -71.5v-498c0 -71.333 -47.333 -119 -142 -143l-149 1
c-4 0.666992 -6.66699 1.33398 -8 2.00098s-2.66602 3.66699 -3.99902 9v142c0 6.66699 4 10.667 12 12h149c94.667 -22.667 142 -70 142 -142v-498z" />
    <glyph glyph-name="nine" unicode="9" horiz-adv-x="532" 
d="M47 1218c14.667 19.333 25.834 38.668 33.501 58.001s15.5 37 23.5 53s17.667 30.167 29 42.5s28.666 21.166 51.999 26.499h126c112 -13.333 168 -61.333 168 -144v-1110c0 -82 -56 -130 -168 -144h-84c-120 0 -180 60 -180 180v216c0 6 6 12 18 18h138
c8 0 12 -4 12 -12v-234h96v1062h-96v-444h119c4 0 7 -1.16699 9 -3.5s3 -5.16602 3 -8.49902v-144c-0.666992 -4 -2 -7.33301 -4 -10s-4.66699 -3.33398 -8 -2.00098l-219 84zM305 1237h-90v-450h90v450zM275 613.002h-23.998c-101.333 0 -165.333 32 -192 96
c-8 26 -12 44 -12 54v498c0 20.667 3.33301 39.5 10 56.5s16.167 31.5 28.5 43.5s27 21.167 44 27.5s35.5 9.5 55.5 9.5h126c23.333 0 45.166 -3.16699 65.499 -9.5s38.166 -16.5 53.499 -30.5s27.333 -32 36 -54s13 -48.333 13 -79v-426c0 -124 -68 -186 -204 -186z" />
    <glyph glyph-name="colon" unicode=":" horiz-adv-x="227" 
d="M51 145h123c8 -1.33301 12 -5.33301 12 -12v-121c0 -8 -4 -12 -12 -12h-123c-8 0 -12 4 -12 12v121c0.666992 8 4.66699 12 12 12zM51 775h123c8 -1.33301 12 -5.33301 12 -12v-121c0 -8 -4 -12 -12 -12h-123c-8 0 -12 4 -12 12v121c0.666992 8 4.66699 12 12 12z" />
    <glyph glyph-name="semicolon" unicode=";" horiz-adv-x="240" 
d="M58 780h123.001c8 -1.33301 12 -5.33301 12 -12v-121c0 -4 -1.33301 -7 -4 -9s-5.33398 -3 -8.00098 -3h-123c-8 0 -12 4 -12 12v121c0.666992 8 4.66699 12 12 12zM113.001 27h-65v168h144v-197c0 -32 -8.83301 -57.667 -26.5 -77s-45.167 -29 -82.5 -29h-16v62h14
c12 0 20.333 2.66699 25 8s7 14.333 7 27v38z" />
    <glyph glyph-name="less" unicode="&#x3c;" 
 />
    <glyph glyph-name="equal" unicode="=" horiz-adv-x="393" 
d="M362 903v-64c-1.33301 -8 -5.33301 -12 -12 -12h-314c-8 0 -12 4 -12 12v64c0 8 4 12 12 12h314c8 -1.33301 12 -5.33301 12 -12zM362 715v-64c-1.33301 -8 -5.33301 -12 -12 -12h-314c-8 0 -12 4 -12 12v64c0 8 4 12 12 12h314c8 -1.33301 12 -5.33301 12 -12z" />
    <glyph glyph-name="greater" unicode="&#x3e;" 
 />
    <glyph glyph-name="question" unicode="?" horiz-adv-x="475" 
d="M78 143c-7.33301 0 -11.333 -4 -12 -12v-119c0 -8 4 -12 12 -12h121c8 0 12 4 12 12v119c0 6.66699 -4 10.667 -12 12h-121v0zM210 431v-119c0 -8 -4 -12 -12 -12h-122c-7.33301 0 -11 4 -11 12v121v303c0 64 41.333 105.667 124 125h85v393h-83v-202
c0 -6 -3.33301 -9.33301 -10 -10h-125c-6 0 -9.33301 3.33301 -10 10v228c0 64.667 43 105.667 129 123h120c68.667 0 111.667 -42.667 129 -128v-435c0 -62.667 -41.333 -104 -124 -124h-90v-326v41z" />
    <glyph glyph-name="at" unicode="@" horiz-adv-x="2019" 
 />
    <glyph glyph-name="A" unicode="A" horiz-adv-x="604" 
d="M302 781h-6c0 -49.333 -10 -161.333 -30 -336h66c0 40.667 -10 152.667 -30 336zM224 1399h150c12.667 0 40.667 -208 84 -624c4 0 36 -256 96 -768l-12 -6h-138c-15.333 0 -31.333 92 -48 276h-108c-21.333 -184 -35.333 -276 -42 -276h-144c-8 0 -12 4 -12 12
c108.667 924 166.667 1386 174 1386z" />
    <glyph glyph-name="B" unicode="B" horiz-adv-x="544" 
d="M230 167h90v445h-90v-445zM230 785h90v444h-90v-444zM74 1397h253c108.667 -14.667 163 -63 163 -145v-479c0 -44 -6 -68 -18 -72c12 -19.333 18 -45.333 18 -78v-479c0 -81.333 -54.333 -129.333 -163 -144h-253c-6 0 -12.333 6 -19 18v1361
c0 5.33301 6.33301 11.333 19 18z" />
    <glyph glyph-name="C" unicode="C" horiz-adv-x="532" 
d="M218 1399h96c112 -13.333 168 -67.333 168 -162v-234c0 -6 -6 -12 -18 -18h-138c-8 0 -12 4 -12 12v234h-96v-1062h96v234c0.666992 8 4.66699 12 12 12h138c6 0 12 -6 18 -18v-216c0 -98 -46 -158 -138 -180h-126c-112 12.667 -168 60.667 -168 144v1110
c0 80.667 56 128.667 168 144z" />
    <glyph glyph-name="D" unicode="D" horiz-adv-x="532" 
d="M218 169h96v1062h-96v-1062zM62 1399h270c86.667 0 136.667 -56 150 -168v-1062c-13.333 -112 -63.333 -168 -150 -168h-270c-8 0 -12 4 -12 12v1374c0.666992 8 4.66699 12 12 12z" />
    <glyph glyph-name="E" unicode="E" horiz-adv-x="466" 
d="M62 1399h342c8 -1.33301 12 -5.33301 12 -12v-144c0 -8 -4 -12 -12 -12h-186v-450h156c8 -1.33301 12 -5.33301 12 -12v-144c0 -8 -4 -12 -12 -12h-156v-444h186c8 -1.33301 12 -5.33301 12 -12v-144c0 -8 -4 -12 -12 -12h-342c-8 0 -12 4 -12 12v1374
c0.666992 8 4.66699 12 12 12z" />
    <glyph glyph-name="F" unicode="F" horiz-adv-x="466" 
d="M62 1399h342c8 -1.33301 12 -5.33301 12 -12v-144c0 -8 -4 -12 -12 -12h-186v-450h156c8 -1.33301 12 -5.33301 12 -12v-144c0 -8 -4 -12 -12 -12h-156v-600c0 -8 -4 -12 -12 -12h-144c-8 0 -12 4 -12 12v1374c0.666992 8 4.66699 12 12 12z" />
    <glyph glyph-name="G" unicode="G" horiz-adv-x="532" 
d="M218 1399h84c120 0 180 -60 180 -180v-216c0 -6 -6 -12 -18 -18h-138c-8 0 -12 4 -12 12v234h-96v-1062h96v444h-30c-8 0 -12 4 -12 12v144c0.666992 8 4.66699 12 12 12h186c8 -1.33301 12 -5.33301 12 -12v-588c0 -98 -46 -158 -138 -180h-126
c-112 12.667 -168 60.667 -168 144v1110c0 82 56 130 168 144z" />
    <glyph glyph-name="H" unicode="H" horiz-adv-x="532" 
d="M62 1399h144c8 -1.33301 12 -5.33301 12 -12v-606h96v606c0.666992 8 4.66699 12 12 12h144c8 -1.33301 12 -5.33301 12 -12v-1374c0 -8 -4 -12 -12 -12h-144c-8 0 -12 4 -12 12v600h-96v-600c0 -8 -4 -12 -12 -12h-144c-8 0 -12 4 -12 12v1374
c0.666992 8 4.66699 12 12 12z" />
    <glyph glyph-name="I" unicode="I" horiz-adv-x="268" 
d="M62 1399h144c8 -1.33301 12 -5.33301 12 -12v-1374c0 -8 -4 -12 -12 -12h-144c-8 0 -12 4 -12 12v1374c0.666992 8 4.66699 12 12 12z" />
    <glyph glyph-name="J" unicode="J" horiz-adv-x="532" 
d="M326 1399h144c8 -1.33301 12 -5.33301 12 -12v-1242c0 -81.333 -54 -129.333 -162 -144h-126c-96 20.667 -144 66.667 -144 138v258c0.666992 8 4.66699 12 12 12h144c8 -1.33301 12 -5.33301 12 -12v-228h96v1218c0.666992 8 4.66699 12 12 12z" />
    <glyph glyph-name="K" unicode="K" horiz-adv-x="550" 
d="M83 1397h140c7.33301 -1.33301 11 -5.33301 11 -12v-490h6c58 334.667 93 502 105 502h139c6 0 12 -6 18 -18l-99.5 -491.5c-23 -113 -36.5 -174.833 -40.5 -185.5l87.5 -420.5c23 -115 40.5 -206.5 52.5 -274.5l-12 -6h-145c-12.667 0 -47.667 167.333 -105 502h-6v-490
c0 -8 -3.66699 -12 -11 -12h-146c-7.33301 0 -11 4 -11 12v1366c0 5.33301 5.66699 11.333 17 18z" />
    <glyph glyph-name="L" unicode="L" horiz-adv-x="472" 
d="M62 1396h144c8 -1.33301 12 -5.33301 12 -12v-1215h192c8 -1.33301 12 -5.33301 12 -12v-144c0 -8 -4 -12 -12 -12h-348c-8 0 -12 4 -12 12v1371c0.666992 8 4.66699 12 12 12z" />
    <glyph glyph-name="M" unicode="M" horiz-adv-x="694" 
d="M62 1399l144 0.000976562c6.66699 0 18.167 -47.5 34.5 -142.5s38.833 -237.5 67.5 -427.5c9.33301 -64.667 17.833 -112.834 25.5 -144.501s13.167 -47.5 16.5 -47.5c76 508 120 762 132 762h150c8 -1.33301 12 -5.33301 12 -12v-1374c0 -8 -4 -12 -12 -12h-132
c-8 0 -12 4 -12 12v672h-6c-39.333 -456 -63.333 -684 -72 -684h-126c-13.333 0 -39.333 232 -78 696h-6v-684c0 -8 -4 -12 -12 -12h-126c-8 0 -12 4 -12 12v1374c0.666992 8 4.66699 12 12 12z" />
    <glyph glyph-name="N" unicode="N" horiz-adv-x="568" 
d="M68 1402l137.999 -0.000976562c16 0 36 -84 60 -252c12 -36 42 -192 90 -468h6v702c0 4.66699 6 10.667 18 18h120c6 0 12 -6 18 -18v-1368c0 -6.66699 -6 -12 -18 -16h-132c-9.33301 0 -19.5 30.167 -30.5 90.5s-28.833 151.5 -53.5 273.5
c-7.33301 38 -17.666 87.333 -30.999 148s-27 135.334 -41 224.001h-6v-720c0 -6.66699 -6 -12 -18 -16h-120c-7.33301 -0 -13.333 5.33301 -18 16v1368c0 4.66699 6 10.667 18 18z" />
    <glyph glyph-name="O" unicode="O" horiz-adv-x="532" 
d="M224 172h90v1056h-90v-1056zM254 1402h24c100.667 0 164.667 -32 192 -96c8 -26 12 -44 12 -54v-1104c0 -82 -54 -131.333 -162 -148h-66c-136 -0 -204 61.333 -204 184v1032c0 124 68 186 204 186z" />
    <glyph glyph-name="P" unicode="P" horiz-adv-x="538" 
d="M231 777h87v446h-87v-446zM76 1393h248c83.333 0 137 -45 161 -135v-487c-14 -105.333 -60 -158 -138 -158h-116v-597c0 -6.66699 -5.66699 -12 -17 -16h-138c-8 -0 -12 3.33301 -12 10v1371c0.666992 8 4.66699 12 12 12z" />
    <glyph glyph-name="Q" unicode="Q" horiz-adv-x="630" 
d="M224 172h90v1056h-90v-1056zM254 1402h24c100.667 0 164.667 -32 192 -96c8 -26 12 -44 12 -54v-1104c0 -82 -54 -131.333 -162 -148h-66c-136 -0 -204 61.333 -204 184v1032c0 124 68 186 204 186zM603 140l-69.001 -125.999c-5.33301 -7.33301 -10.666 -9 -15.999 -5
l-192 100c-6.66699 3.33301 -8.33398 8.66602 -5.00098 15.999l69 127c4 7.33301 5.66699 11.5 5 12.5s1.33301 0.833008 6 -0.5l197 -108c6.66699 -4.66699 8.33398 -10 5.00098 -16z" />
    <glyph glyph-name="R" unicode="R" horiz-adv-x="556" 
d="M224 784h90v444h-90v-444zM68 1402h209.999c104.667 0 168.667 -32 192 -96c4.66699 -13.333 7.83398 -24.333 9.50098 -33s2.5 -15.667 2.5 -21v-492c0 -27.333 -16 -63.333 -48 -108c48 -406 72 -622 72 -648l-12 -4h-138c-17.333 -0 -31.333 79.333 -42 238
c-4 0 -20 126 -48 378h-42v-600c0 -6.66699 -6 -12 -18 -16h-138c-7.33301 -0 -13.333 5.33301 -18 16v1368c0 4.66699 6 10.667 18 18z" />
    <glyph glyph-name="S" unicode="S" horiz-adv-x="538" 
d="M197 1401l135.999 -0.000976562c98 -20 147 -69 147 -147v-254c0 -8 -4 -12 -12 -12h-141c-6 0 -12 6 -18 18v224h-94v-448h123c94.667 -24 142 -71 142 -141v-496c-20 -96.667 -69 -145 -147 -145h-136c-98 18.667 -147 65.334 -147 140.001v259
c0.666992 8 4.33398 12 11.001 12h142c8 -1.33301 12 -5.33301 12 -12v-230h94v448h-118c-94 22 -141 69 -141 141v501c0 72.667 49 120 147 142z" />
    <glyph glyph-name="T" unicode="T" horiz-adv-x="580" 
d="M62 1402h456c8 -1.33301 12 -5.33301 12 -12v-150c0 -8 -4 -12 -12 -12h-144v-1212c0 -6.66699 -6 -12 -18 -16h-138c-8 -0 -12 3.33301 -12 10v1218h-144c-8 0 -12 4 -12 12v150c0.666992 8 4.66699 12 12 12z" />
    <glyph glyph-name="U" unicode="U" horiz-adv-x="532" 
d="M68 1402h138c6 0 12 -6 18 -18v-1212h90v1218c0.666992 8 4.66699 12 12 12h144c8 -1.33301 12 -5.33301 12 -12v-1242c0 -88 -58 -137.333 -174 -148h-72c-93.333 -0 -153.333 39.333 -180 118c-4 40.667 -6 72.667 -6 96v1170c0 4.66699 6 10.667 18 18z" />
    <glyph glyph-name="V" unicode="V" horiz-adv-x="610" 
d="M50 1390l18 12h138c12.667 0 24.667 -54 36 -162l60 -570h6c52 484 82 726 90 726l12 6h132c6 0 12 -6 18 -18c-108 -905.333 -166 -1365.33 -174 -1380l-12 -4h-138c-17.333 -0 -31.333 81.333 -42 244c-4 6.66699 -52 388.667 -144 1146z" />
    <glyph glyph-name="W" unicode="W" horiz-adv-x="856" 
d="M50 1390l17.999 12.001h126c9.33301 0 17.333 -29 24 -87s14.667 -147 24 -267c8 -104.667 15 -187.5 21 -248.5s9 -102.167 9 -123.5h6c16 196 40 436 72 720h150c5.33301 0 12.333 -27 21 -81s17.667 -137 27 -249l30 -366c6.66699 0 10.667 4 12 12l54 678l18 12h132
c8.66699 0 12.667 -6 12 -18c-79.333 -920 -123.333 -1380 -132 -1380l-12 -4h-126c-10 0 -17.167 16.5 -21.5 49.5l-20.5 152.5c-9.33301 44 -18.666 104.167 -27.999 180.5s-20 172.166 -32 287.499h-6c-52 -434 -82 -656 -90 -666l-12 -4h-126c-16 6 -24 15.333 -24 28
c0 20 -42 474 -126 1362z" />
    <glyph glyph-name="X" unicode="X" horiz-adv-x="641" 
d="M425 1403h141c6 0 12 -5.66699 18 -17c-86 -432 -133 -659 -141 -681c70 -330 117 -563 141 -699l-12 -6h-147c-13.333 -0 -48.333 168.333 -105 505c-58 -336.667 -94 -505 -108 -505h-147l-12 6c24 136 71 369 141 699c-7.33301 22 -54.333 249 -141 681
c6 11.333 12 17 18 17h141c12 0 47.333 -168.333 106 -505c58 336.667 93.667 505 107 505z" />
    <glyph glyph-name="Y" unicode="Y" horiz-adv-x="620" 
d="M50 1376l0.000976562 12l12 6h148c9.33301 0 40.666 -153 93.999 -459c5.33301 0 14 30.333 26 91s29 153.667 51 279c11.333 59.333 21 89 29 89h148c8 0 12 -6 12 -18c-118 -579.333 -177 -879 -177 -899v-470c0 -5.33301 -4 -8 -12 -8h-142c-8 0 -12 2.66699 -12 8
v464c0 14 -59 315.667 -177 905z" />
    <glyph glyph-name="Z" unicode="Z" horiz-adv-x="580" 
d="M62 1402h456c8 -1.33301 12 -5.33301 12 -12v-150c0 -8 -4 -12 -12 -12h-144h-12h-13h-121h-14h-8h-144c-8 0 -12 4 -12 12v150c0.666992 8 4.66699 12 12 12zM62 172h456c8 -1.33301 12 -5.33301 12 -12v-150c0 -6.66699 -4 -10 -12 -10h-144h-12h-13h-121h-14h-8h-144
c-8 -0 -12 3.33301 -12 10v150c0.666992 8 4.66699 12 12 12zM374 1250l143.999 -0.00195312c1.33301 0 3.83301 -1.66699 7.5 -5s5.16699 -5.66602 4.5 -6.99902l-312 -1075c-1.33301 -4 -2.66602 -7 -3.99902 -9s-4 -3 -8 -3h-144c-1.33301 0 -3.83301 1.33301 -7.5 4
s-5.16699 5.33398 -4.5 8.00098l312 1075c0.666992 8 4.66699 12 12 12z" />
    <glyph glyph-name="bracketleft" unicode="[" horiz-adv-x="489" 
d="M314 1399l104.001 -0.00195312c6 0 11.5 -1.33301 16.5 -4s7.5 -8 7.5 -16l1 -136c0 -8 -4 -12 -12 -12h-213v-1271l213 -1c8 0 12 -4 12 -12l-1 -136c0 -8 -2.5 -13.333 -7.5 -16s-10.5 -4 -16.5 -4l-200 1c-25.333 0 -48.333 3.66699 -69 11s-38.334 17.333 -53.001 30
s-26 27.834 -34 45.501s-12 36.834 -12 57.501v1319c0 80.667 56 128.667 168 144h96v0z" />
    <glyph glyph-name="backslash" unicode="\" horiz-adv-x="514" 
d="M448 -49c-7.33301 0 -12.333 4 -15 12l-444 1518c-2 8 1 12 9 12h73c8 0 13 -4 15 -12l445 -1518c2.66699 -6.66699 -0.333008 -10.667 -9 -12h-74v0z" />
    <glyph glyph-name="bracketright" unicode="]" horiz-adv-x="482" 
d="M168 -208l-104.001 0.00195312c-6 0 -11.5 1.33301 -16.5 4s-7.5 8 -7.5 16l-1 136c0 8 4 12 12 12h213v1271l-213 1c-8 0 -12 4 -12 12l1 136c0 8 2.5 13.333 7.5 16s10.5 4 16.5 4l200 -1c25.333 0 48.333 -3.66699 69 -11s38.334 -17.333 53.001 -30
s26 -27.834 34 -45.501s12 -36.834 12 -57.501v-1319c0 -81.333 -56 -129.333 -168 -144h-96v0z" />
    <glyph glyph-name="asciicircum" unicode="^" 
 />
    <glyph glyph-name="underscore" unicode="_" horiz-adv-x="512" 
d="M273 86v-74c-1.33301 -8 -5.33301 -12 -12 -12h-204c-8 0 -12 4 -12 12v74c0 8 4 12 12 12h204c8 -1.33301 12 -5.33301 12 -12zM463 86v-74c-1.33301 -8 -5.33301 -12 -12 -12h-204c-8 0 -12 4 -12 12v74c0 8 4 12 12 12h204c8 -1.33301 12 -5.33301 12 -12z" />
    <glyph glyph-name="grave" unicode="`" horiz-adv-x="1024" 
 />
    <glyph glyph-name="a" unicode="a" horiz-adv-x="604" 
d="M302 781h-6c0 -49.333 -10 -161.333 -30 -336h66c0 40.667 -10 152.667 -30 336zM224 1399h150c12.667 0 40.667 -208 84 -624c4 0 36 -256 96 -768l-12 -6h-138c-15.333 0 -31.333 92 -48 276h-108c-21.333 -184 -35.333 -276 -42 -276h-144c-8 0 -12 4 -12 12
c108.667 924 166.667 1386 174 1386z" />
    <glyph glyph-name="b" unicode="b" horiz-adv-x="544" 
d="M230 167h90v445h-90v-445zM230 785h90v444h-90v-444zM74 1397h253c108.667 -14.667 163 -63 163 -145v-479c0 -44 -6 -68 -18 -72c12 -19.333 18 -45.333 18 -78v-479c0 -81.333 -54.333 -129.333 -163 -144h-253c-6 0 -12.333 6 -19 18v1361
c0 5.33301 6.33301 11.333 19 18z" />
    <glyph glyph-name="c" unicode="c" horiz-adv-x="532" 
d="M218 1399h96c112 -13.333 168 -67.333 168 -162v-234c0 -6 -6 -12 -18 -18h-138c-8 0 -12 4 -12 12v234h-96v-1062h96v234c0.666992 8 4.66699 12 12 12h138c6 0 12 -6 18 -18v-216c0 -98 -46 -158 -138 -180h-126c-112 12.667 -168 60.667 -168 144v1110
c0 80.667 56 128.667 168 144z" />
    <glyph glyph-name="d" unicode="d" horiz-adv-x="532" 
d="M218 169h96v1062h-96v-1062zM62 1399h270c86.667 0 136.667 -56 150 -168v-1062c-13.333 -112 -63.333 -168 -150 -168h-270c-8 0 -12 4 -12 12v1374c0.666992 8 4.66699 12 12 12z" />
    <glyph glyph-name="e" unicode="e" horiz-adv-x="466" 
d="M62 1399h342c8 -1.33301 12 -5.33301 12 -12v-144c0 -8 -4 -12 -12 -12h-186v-450h156c8 -1.33301 12 -5.33301 12 -12v-144c0 -8 -4 -12 -12 -12h-156v-444h186c8 -1.33301 12 -5.33301 12 -12v-144c0 -8 -4 -12 -12 -12h-342c-8 0 -12 4 -12 12v1374
c0.666992 8 4.66699 12 12 12z" />
    <glyph glyph-name="f" unicode="f" horiz-adv-x="466" 
d="M62 1399h342c8 -1.33301 12 -5.33301 12 -12v-144c0 -8 -4 -12 -12 -12h-186v-450h156c8 -1.33301 12 -5.33301 12 -12v-144c0 -8 -4 -12 -12 -12h-156v-600c0 -8 -4 -12 -12 -12h-144c-8 0 -12 4 -12 12v1374c0.666992 8 4.66699 12 12 12z" />
    <glyph glyph-name="g" unicode="g" horiz-adv-x="532" 
d="M218 1399h84c120 0 180 -60 180 -180v-216c0 -6 -6 -12 -18 -18h-138c-8 0 -12 4 -12 12v234h-96v-1062h96v444h-30c-8 0 -12 4 -12 12v144c0.666992 8 4.66699 12 12 12h186c8 -1.33301 12 -5.33301 12 -12v-588c0 -98 -46 -158 -138 -180h-126
c-112 12.667 -168 60.667 -168 144v1110c0 82 56 130 168 144z" />
    <glyph glyph-name="h" unicode="h" horiz-adv-x="532" 
d="M62 1399h144c8 -1.33301 12 -5.33301 12 -12v-606h96v606c0.666992 8 4.66699 12 12 12h144c8 -1.33301 12 -5.33301 12 -12v-1374c0 -8 -4 -12 -12 -12h-144c-8 0 -12 4 -12 12v600h-96v-600c0 -8 -4 -12 -12 -12h-144c-8 0 -12 4 -12 12v1374
c0.666992 8 4.66699 12 12 12z" />
    <glyph glyph-name="i" unicode="i" horiz-adv-x="268" 
d="M62 1399h144c8 -1.33301 12 -5.33301 12 -12v-1374c0 -8 -4 -12 -12 -12h-144c-8 0 -12 4 -12 12v1374c0.666992 8 4.66699 12 12 12z" />
    <glyph glyph-name="j" unicode="j" horiz-adv-x="532" 
d="M326 1399h144c8 -1.33301 12 -5.33301 12 -12v-1242c0 -81.333 -54 -129.333 -162 -144h-126c-96 20.667 -144 66.667 -144 138v258c0.666992 8 4.66699 12 12 12h144c8 -1.33301 12 -5.33301 12 -12v-228h96v1218c0.666992 8 4.66699 12 12 12z" />
    <glyph glyph-name="k" unicode="k" horiz-adv-x="538" 
d="M73 1397h140c7.33301 -1.33301 11 -5.33301 11 -12v-490h6c58 334.667 93 502 105 502h139c6 0 12 -6 18 -18l-99.5 -491.5c-23 -113 -36.5 -174.833 -40.5 -185.5l87.5 -420.5c23 -115 40.5 -206.5 52.5 -274.5l-12 -6h-145c-12.667 0 -47.667 167.333 -105 502h-6v-490
c0 -8 -3.66699 -12 -11 -12h-146c-7.33301 0 -11 4 -11 12v1366c0 5.33301 5.66699 11.333 17 18z" />
    <glyph glyph-name="l" unicode="l" horiz-adv-x="472" 
d="M62 1399h144c8 -1.33301 12 -5.33301 12 -12v-1218h192c8 -1.33301 12 -5.33301 12 -12v-144c0 -8 -4 -12 -12 -12h-348c-8 0 -12 4 -12 12v1374c0.666992 8 4.66699 12 12 12z" />
    <glyph glyph-name="m" unicode="m" horiz-adv-x="694" 
d="M62 1399l144 0.000976562c6.66699 0 18.167 -47.5 34.5 -142.5s38.833 -237.5 67.5 -427.5c9.33301 -64.667 17.833 -112.834 25.5 -144.501s13.167 -47.5 16.5 -47.5c76 508 120 762 132 762h150c8 -1.33301 12 -5.33301 12 -12v-1374c0 -8 -4 -12 -12 -12h-132
c-8 0 -12 4 -12 12v672h-6c-39.333 -456 -63.333 -684 -72 -684h-126c-13.333 0 -39.333 232 -78 696h-6v-684c0 -8 -4 -12 -12 -12h-126c-8 0 -12 4 -12 12v1374c0.666992 8 4.66699 12 12 12z" />
    <glyph glyph-name="n" unicode="n" horiz-adv-x="568" 
d="M68 1402l137.999 -0.000976562c16 0 36 -84 60 -252c12 -36 42 -192 90 -468h6v702c0 4.66699 6 10.667 18 18h120c6 0 12 -6 18 -18v-1368c0 -6.66699 -6 -12 -18 -16h-132c-9.33301 0 -19.5 30.167 -30.5 90.5s-28.833 151.5 -53.5 273.5
c-7.33301 38 -17.666 87.333 -30.999 148s-27 135.334 -41 224.001h-6v-720c0 -6.66699 -6 -12 -18 -16h-120c-7.33301 -0 -13.333 5.33301 -18 16v1368c0 4.66699 6 10.667 18 18z" />
    <glyph glyph-name="o" unicode="o" horiz-adv-x="532" 
d="M224 172h90v1056h-90v-1056zM254 1402h24c100.667 0 164.667 -32 192 -96c8 -26 12 -44 12 -54v-1104c0 -82 -54 -131.333 -162 -148h-66c-136 -0 -204 61.333 -204 184v1032c0 124 68 186 204 186z" />
    <glyph glyph-name="p" unicode="p" horiz-adv-x="538" 
d="M231 777h87v446h-87v-446zM76 1393h248c83.333 0 137 -45 161 -135v-487c-14 -105.333 -60 -158 -138 -158h-116v-597c0 -6.66699 -5.66699 -12 -17 -16h-138c-8 -0 -12 3.33301 -12 10v1371c0.666992 8 4.66699 12 12 12z" />
    <glyph glyph-name="q" unicode="q" horiz-adv-x="628" 
d="M224 172h90v1056h-90v-1056zM254 1402h24c100.667 0 164.667 -32 192 -96c8 -26 12 -44 12 -54v-1104c0 -82 -54 -131.333 -162 -148h-66c-136 -0 -204 61.333 -204 184v1032c0 124 68 186 204 186zM583 140l-69.001 -125.999c-5.33301 -7.33301 -10.666 -9 -15.999 -5
l-192 100c-6.66699 3.33301 -8.33398 8.66602 -5.00098 15.999l69 127c4 7.33301 5.66699 11.5 5 12.5s1.33301 0.833008 6 -0.5l197 -108c6.66699 -4.66699 8.33398 -10 5.00098 -16z" />
    <glyph glyph-name="r" unicode="r" horiz-adv-x="556" 
d="M224 784h90v444h-90v-444zM68 1402h209.999c104.667 0 168.667 -32 192 -96c4.66699 -13.333 7.83398 -24.333 9.50098 -33s2.5 -15.667 2.5 -21v-492c0 -27.333 -16 -63.333 -48 -108c48 -406 72 -622 72 -648l-12 -4h-138c-17.333 -0 -31.333 79.333 -42 238
c-4 0 -20 126 -48 378h-42v-600c0 -6.66699 -6 -12 -18 -16h-138c-7.33301 -0 -13.333 5.33301 -18 16v1368c0 4.66699 6 10.667 18 18z" />
    <glyph glyph-name="s" unicode="s" horiz-adv-x="538" 
d="M197 1401l135.999 -0.000976562c98 -20 147 -69 147 -147v-254c0 -8 -4 -12 -12 -12h-141c-6 0 -12 6 -18 18v224h-94v-448h123c94.667 -24 142 -71 142 -141v-496c-20 -96.667 -69 -145 -147 -145h-136c-98 18.667 -147 65.334 -147 140.001v259
c0.666992 8 4.33398 12 11.001 12h142c8 -1.33301 12 -5.33301 12 -12v-230h94v448h-118c-94 22 -141 69 -141 141v501c0 72.667 49 120 147 142z" />
    <glyph glyph-name="t" unicode="t" horiz-adv-x="580" 
d="M62 1402h456c8 -1.33301 12 -5.33301 12 -12v-150c0 -8 -4 -12 -12 -12h-144v-1212c0 -6.66699 -6 -12 -18 -16h-138c-8 -0 -12 3.33301 -12 10v1218h-144c-8 0 -12 4 -12 12v150c0.666992 8 4.66699 12 12 12z" />
    <glyph glyph-name="u" unicode="u" horiz-adv-x="532" 
d="M68 1402h138c6 0 12 -6 18 -18v-1212h90v1218c0.666992 8 4.66699 12 12 12h144c8 -1.33301 12 -5.33301 12 -12v-1242c0 -88 -58 -137.333 -174 -148h-72c-93.333 -0 -153.333 39.333 -180 118c-4 40.667 -6 72.667 -6 96v1170c0 4.66699 6 10.667 18 18z" />
    <glyph glyph-name="v" unicode="v" horiz-adv-x="610" 
d="M50 1390l18 12h138c12.667 0 24.667 -54 36 -162l60 -570h6c52 484 82 726 90 726l12 6h132c6 0 12 -6 18 -18c-108 -905.333 -166 -1365.33 -174 -1380l-12 -4h-138c-17.333 -0 -31.333 81.333 -42 244c-4 6.66699 -52 388.667 -144 1146z" />
    <glyph glyph-name="w" unicode="w" horiz-adv-x="856" 
d="M50 1390l17.999 12.001h126c9.33301 0 17.333 -29 24 -87s14.667 -147 24 -267c8 -104.667 15 -187.5 21 -248.5s9 -102.167 9 -123.5h6c16 196 40 436 72 720h150c5.33301 0 12.333 -27 21 -81s17.667 -137 27 -249l30 -366c6.66699 0 10.667 4 12 12l54 678l18 12h132
c8.66699 0 12.667 -6 12 -18c-79.333 -920 -123.333 -1380 -132 -1380l-12 -4h-126c-10 0 -17.167 16.5 -21.5 49.5l-20.5 152.5c-9.33301 44 -18.666 104.167 -27.999 180.5s-20 172.166 -32 287.499h-6c-52 -434 -82 -656 -90 -666l-12 -4h-126c-16 6 -24 15.333 -24 28
c0 20 -42 474 -126 1362z" />
    <glyph glyph-name="x" unicode="x" horiz-adv-x="641" 
d="M425 1403h141c6 0 12 -5.66699 18 -17c-86 -432 -133 -659 -141 -681c70 -330 117 -563 141 -699l-12 -6h-147c-13.333 -0 -48.333 168.333 -105 505c-58 -336.667 -94 -505 -108 -505h-147l-12 6c24 136 71 369 141 699c-7.33301 22 -54.333 249 -141 681
c6 11.333 12 17 18 17h141c12 0 47.333 -168.333 106 -505c58 336.667 93.667 505 107 505z" />
    <glyph glyph-name="y" unicode="y" horiz-adv-x="620" 
d="M50 1376l0.000976562 12l12 6h148c9.33301 0 40.666 -153 93.999 -459c5.33301 0 14 30.333 26 91s29 153.667 51 279c11.333 59.333 21 89 29 89h148c8 0 12 -6 12 -18c-118 -579.333 -177 -879 -177 -899v-470c0 -5.33301 -4 -8 -12 -8h-142c-8 0 -12 2.66699 -12 8
v464c0 14 -59 315.667 -177 905z" />
    <glyph glyph-name="z" unicode="z" horiz-adv-x="580" 
d="M62 1402h456c8 -1.33301 12 -5.33301 12 -12v-150c0 -8 -4 -12 -12 -12h-144h-12h-13h-121h-14h-8h-144c-8 0 -12 4 -12 12v150c0.666992 8 4.66699 12 12 12zM62 172h456c8 -1.33301 12 -5.33301 12 -12v-150c0 -6.66699 -4 -10 -12 -10h-144h-12h-13h-121h-14h-8h-144
c-8 -0 -12 3.33301 -12 10v150c0.666992 8 4.66699 12 12 12zM374 1250l143.999 -0.00195312c1.33301 0 3.83301 -1.66699 7.5 -5s5.16699 -5.66602 4.5 -6.99902l-312 -1075c-1.33301 -4 -2.66602 -7 -3.99902 -9s-4 -3 -8 -3h-144c-1.33301 0 -3.83301 1.33301 -7.5 4
s-5.16699 5.33398 -4.5 8.00098l312 1075c0.666992 8 4.66699 12 12 12z" />
    <glyph glyph-name="braceleft" unicode="{" 
 />
    <glyph glyph-name="bar" unicode="|" horiz-adv-x="180" 
d="M52 1402h74c8 -1.33301 12 -5.33301 12 -12v-1453c0 -8 -4 -12 -12 -12h-74c-8 0 -12 4 -12 12v1453c0.666992 8 4.66699 12 12 12z" />
    <glyph glyph-name="braceright" unicode="}" 
 />
    <glyph glyph-name="asciitilde" unicode="~" 
 />
    <glyph glyph-name="uni00A0" unicode="&#xa0;" horiz-adv-x="508" 
 />
    <glyph glyph-name="exclamdown" unicode="&#xa1;" horiz-adv-x="225" 
d="M174 -99h-124c-8 0.666992 -12 4.66699 -12 12l1 1180c0 8 4 12 12 12h124c8 0 12 -4 12 -12l-1 -1180c-1.33301 -8 -5.33301 -12 -12 -12zM175 1264h-122.999c-8 0.666992 -12 4.66699 -12 12v121c0 4 1.16699 7 3.5 9s5.16602 3 8.49902 3h123c8 0 12 -4 12 -12v-121
c-1.33301 -8 -5.33301 -12 -12 -12z" />
    <glyph glyph-name="cent" unicode="&#xa2;" horiz-adv-x="1139" 
 />
    <glyph glyph-name="sterling" unicode="&#xa3;" 
 />
    <glyph glyph-name="currency" unicode="&#xa4;" 
 />
    <glyph glyph-name="yen" unicode="&#xa5;" horiz-adv-x="1262" 
 />
    <glyph glyph-name="brokenbar" unicode="&#xa6;" 
 />
    <glyph glyph-name="section" unicode="&#xa7;" 
 />
    <glyph glyph-name="dieresis" unicode="&#xa8;" horiz-adv-x="1024" 
 />
    <glyph glyph-name="copyright" unicode="&#xa9;" horiz-adv-x="1674" 
 />
    <glyph glyph-name="ordfeminine" unicode="&#xaa;" horiz-adv-x="648" 
 />
    <glyph glyph-name="guillemotleft" unicode="&#xab;" horiz-adv-x="944" 
 />
    <glyph glyph-name="logicalnot" unicode="&#xac;" 
 />
    <glyph glyph-name="uni00AD" unicode="&#xad;" horiz-adv-x="670" 
d="M272 743v-74c-1.33301 -8 -5.33301 -12 -12 -12h-204c-8 0 -12 4 -12 12v74c0 8 4 12 12 12h204c8 -1.33301 12 -5.33301 12 -12z" />
    <glyph glyph-name="registered" unicode="&#xae;" horiz-adv-x="1674" 
 />
    <glyph glyph-name="macron" unicode="&#xaf;" horiz-adv-x="670" 
 />
    <glyph glyph-name="degree" unicode="&#xb0;" horiz-adv-x="674" 
 />
    <glyph glyph-name="plusminus" unicode="&#xb1;" 
 />
    <glyph glyph-name="uni00B2" unicode="&#xb2;" 
 />
    <glyph glyph-name="uni00B3" unicode="&#xb3;" 
 />
    <glyph glyph-name="acute" unicode="&#xb4;" horiz-adv-x="229" 
d="M51 1399h123c8.66699 -1.33301 12.667 -5.33301 12 -12l-20 -151c-1.33301 -8 -5.33301 -12 -12 -12h-103c-8 0 -12 4 -12 12v151c0.666992 8 4.66699 12 12 12z" />
    <glyph glyph-name="mu" unicode="&#xb5;" horiz-adv-x="1180" 
 />
    <glyph glyph-name="paragraph" unicode="&#xb6;" horiz-adv-x="1024" 
 />
    <glyph glyph-name="periodcentered" unicode="&#xb7;" horiz-adv-x="508" 
 />
    <glyph glyph-name="cedilla" unicode="&#xb8;" horiz-adv-x="1024" 
 />
    <glyph glyph-name="uni00B9" unicode="&#xb9;" 
 />
    <glyph glyph-name="ordmasculine" unicode="&#xba;" horiz-adv-x="718" 
 />
    <glyph glyph-name="guillemotright" unicode="&#xbb;" horiz-adv-x="944" 
 />
    <glyph glyph-name="onequarter" unicode="&#xbc;" horiz-adv-x="1708" 
 />
    <glyph glyph-name="onehalf" unicode="&#xbd;" horiz-adv-x="1964" 
 />
    <glyph glyph-name="threequarters" unicode="&#xbe;" horiz-adv-x="1708" 
 />
    <glyph glyph-name="questiondown" unicode="&#xbf;" horiz-adv-x="475" 
d="M261 1011v-326.002h-90c-82.667 -20 -124 -61.333 -124 -124v-435c16.667 -84.667 59.667 -127 129 -127h120c86 16 129 56.667 129 122v228c-0.666992 6.66699 -4 10 -10 10h-125c-6.66699 -1.33301 -10 -4.66602 -10 -9.99902v-202h-83v393h85
c82.667 18.667 124 60.334 124 125.001v303v121c0 8 -3.66699 12 -11 12h-122c-8 0 -12 -4 -12 -12v-119v41zM393 1258h-121c-8 0.666992 -12 4.66699 -12 12v119c0 8 4 12 12 12h121c8 0 12 -4 12 -12v-119c-1.33301 -8 -5.33301 -12 -12 -12z" />
    <glyph glyph-name="Agrave" unicode="&#xc0;" horiz-adv-x="1540" 
 />
    <glyph glyph-name="Aacute" unicode="&#xc1;" horiz-adv-x="1540" 
 />
    <glyph glyph-name="Acircumflex" unicode="&#xc2;" horiz-adv-x="1540" 
 />
    <glyph glyph-name="Atilde" unicode="&#xc3;" horiz-adv-x="1540" 
 />
    <glyph glyph-name="Adieresis" unicode="&#xc4;" horiz-adv-x="1540" 
 />
    <glyph glyph-name="Aring" unicode="&#xc5;" horiz-adv-x="1540" 
 />
    <glyph glyph-name="AE" unicode="&#xc6;" horiz-adv-x="2118" 
 />
    <glyph glyph-name="Ccedilla" unicode="&#xc7;" horiz-adv-x="1399" 
 />
    <glyph glyph-name="Egrave" unicode="&#xc8;" horiz-adv-x="1151" 
 />
    <glyph glyph-name="Eacute" unicode="&#xc9;" horiz-adv-x="1151" 
 />
    <glyph glyph-name="Ecircumflex" unicode="&#xca;" horiz-adv-x="1151" 
 />
    <glyph glyph-name="Edieresis" unicode="&#xcb;" horiz-adv-x="1151" 
 />
    <glyph glyph-name="Igrave" unicode="&#xcc;" horiz-adv-x="657" 
 />
    <glyph glyph-name="Iacute" unicode="&#xcd;" horiz-adv-x="657" 
 />
    <glyph glyph-name="Icircumflex" unicode="&#xce;" horiz-adv-x="657" 
 />
    <glyph glyph-name="Idieresis" unicode="&#xcf;" horiz-adv-x="657" 
 />
    <glyph glyph-name="Eth" unicode="&#xd0;" horiz-adv-x="1518" 
 />
    <glyph glyph-name="Ntilde" unicode="&#xd1;" horiz-adv-x="1554" 
 />
    <glyph glyph-name="Ograve" unicode="&#xd2;" horiz-adv-x="1614" 
 />
    <glyph glyph-name="Oacute" unicode="&#xd3;" horiz-adv-x="1614" 
 />
    <glyph glyph-name="Ocircumflex" unicode="&#xd4;" horiz-adv-x="1614" 
 />
    <glyph glyph-name="Otilde" unicode="&#xd5;" horiz-adv-x="1614" 
 />
    <glyph glyph-name="Odieresis" unicode="&#xd6;" horiz-adv-x="1614" 
 />
    <glyph glyph-name="multiply" unicode="&#xd7;" 
 />
    <glyph glyph-name="Oslash" unicode="&#xd8;" horiz-adv-x="1614" 
 />
    <glyph glyph-name="Ugrave" unicode="&#xd9;" horiz-adv-x="1501" 
 />
    <glyph glyph-name="Uacute" unicode="&#xda;" horiz-adv-x="1501" 
 />
    <glyph glyph-name="Ucircumflex" unicode="&#xdb;" horiz-adv-x="1501" 
 />
    <glyph glyph-name="Udieresis" unicode="&#xdc;" horiz-adv-x="1501" 
 />
    <glyph glyph-name="Yacute" unicode="&#xdd;" horiz-adv-x="1233" 
 />
    <glyph glyph-name="Thorn" unicode="&#xde;" horiz-adv-x="1120" 
 />
    <glyph glyph-name="germandbls" unicode="&#xdf;" horiz-adv-x="1251" 
 />
    <glyph glyph-name="agrave" unicode="&#xe0;" horiz-adv-x="922" 
 />
    <glyph glyph-name="aacute" unicode="&#xe1;" horiz-adv-x="922" 
 />
    <glyph glyph-name="acircumflex" unicode="&#xe2;" horiz-adv-x="922" 
 />
    <glyph glyph-name="atilde" unicode="&#xe3;" horiz-adv-x="922" 
 />
    <glyph glyph-name="adieresis" unicode="&#xe4;" horiz-adv-x="922" 
 />
    <glyph glyph-name="aring" unicode="&#xe5;" horiz-adv-x="922" 
 />
    <glyph glyph-name="ae" unicode="&#xe6;" horiz-adv-x="1454" 
 />
    <glyph glyph-name="ccedilla" unicode="&#xe7;" horiz-adv-x="905" 
 />
    <glyph glyph-name="egrave" unicode="&#xe8;" horiz-adv-x="909" 
 />
    <glyph glyph-name="eacute" unicode="&#xe9;" horiz-adv-x="909" 
 />
    <glyph glyph-name="ecircumflex" unicode="&#xea;" horiz-adv-x="909" 
 />
    <glyph glyph-name="edieresis" unicode="&#xeb;" horiz-adv-x="909" 
 />
    <glyph glyph-name="igrave" unicode="&#xec;" horiz-adv-x="514" 
 />
    <glyph glyph-name="iacute" unicode="&#xed;" horiz-adv-x="514" 
 />
    <glyph glyph-name="icircumflex" unicode="&#xee;" horiz-adv-x="514" 
 />
    <glyph glyph-name="idieresis" unicode="&#xef;" horiz-adv-x="514" 
 />
    <glyph glyph-name="eth" unicode="&#xf0;" horiz-adv-x="1139" 
 />
    <glyph glyph-name="ntilde" unicode="&#xf1;" horiz-adv-x="1108" 
 />
    <glyph glyph-name="ograve" unicode="&#xf2;" horiz-adv-x="1010" 
 />
    <glyph glyph-name="oacute" unicode="&#xf3;" horiz-adv-x="1010" 
 />
    <glyph glyph-name="ocircumflex" unicode="&#xf4;" horiz-adv-x="1010" 
 />
    <glyph glyph-name="otilde" unicode="&#xf5;" horiz-adv-x="1010" 
 />
    <glyph glyph-name="odieresis" unicode="&#xf6;" horiz-adv-x="1010" 
 />
    <glyph glyph-name="divide" unicode="&#xf7;" 
 />
    <glyph glyph-name="oslash" unicode="&#xf8;" horiz-adv-x="1010" 
 />
    <glyph glyph-name="ugrave" unicode="&#xf9;" horiz-adv-x="1059" 
 />
    <glyph glyph-name="uacute" unicode="&#xfa;" horiz-adv-x="1059" 
 />
    <glyph glyph-name="ucircumflex" unicode="&#xfb;" horiz-adv-x="1059" 
 />
    <glyph glyph-name="udieresis" unicode="&#xfc;" horiz-adv-x="1059" 
 />
    <glyph glyph-name="yacute" unicode="&#xfd;" horiz-adv-x="868" 
 />
    <glyph glyph-name="thorn" unicode="&#xfe;" horiz-adv-x="1010" 
 />
    <glyph glyph-name="ydieresis" unicode="&#xff;" horiz-adv-x="868" 
 />
    <glyph glyph-name="dotlessi" unicode="&#x131;" horiz-adv-x="514" 
 />
    <glyph glyph-name="circumflex" unicode="&#x2c6;" horiz-adv-x="1024" 
 />
    <glyph glyph-name="caron" unicode="&#x2c7;" horiz-adv-x="1024" 
 />
    <glyph glyph-name="uni02C9" unicode="&#x2c9;" horiz-adv-x="1024" 
 />
    <glyph glyph-name="breve" unicode="&#x2d8;" horiz-adv-x="1024" 
 />
    <glyph glyph-name="dotaccent" unicode="&#x2d9;" horiz-adv-x="1024" 
 />
    <glyph glyph-name="ring" unicode="&#x2da;" horiz-adv-x="1024" 
 />
    <glyph glyph-name="ogonek" unicode="&#x2db;" horiz-adv-x="1024" 
 />
    <glyph glyph-name="tilde" unicode="&#x2dc;" horiz-adv-x="1024" 
 />
    <glyph glyph-name="hungarumlaut" unicode="&#x2dd;" horiz-adv-x="1024" 
 />
    <glyph glyph-name="uni037E" unicode="&#x37e;" horiz-adv-x="557" 
d="M58 780h123.001c8 -1.33301 12 -5.33301 12 -12v-121c0 -4 -1.33301 -7 -4 -9s-5.33398 -3 -8.00098 -3h-123c-8 0 -12 4 -12 12v121c0.666992 8 4.66699 12 12 12zM113.001 27h-65v168h144v-197c0 -32 -8.83301 -57.667 -26.5 -77s-45.167 -29 -82.5 -29h-16v62h14
c12 0 20.333 2.66699 25 8s7 14.333 7 27v38z" />
    <glyph glyph-name="endash" unicode="&#x2013;" horiz-adv-x="1108" 
 />
    <glyph glyph-name="emdash" unicode="&#x2014;" horiz-adv-x="2048" 
 />
    <glyph glyph-name="quoteleft" unicode="&#x2018;" horiz-adv-x="210" 
d="M107 1178c0 -12.667 2.33301 -21.667 7 -27s13 -8 25 -8h14v-62h-16c-37.333 0 -64.833 9.66699 -82.5 29s-26.5 45 -26.5 77v198h144v-168h-65v-39z" />
    <glyph glyph-name="quoteright" unicode="&#x2019;" horiz-adv-x="235" 
d="M103 1217h-65v168h144v-198c0 -32 -8.83301 -57.667 -26.5 -77s-45.167 -29 -82.5 -29h-16v62h14c12 0 20.333 2.66699 25 8s7 14.333 7 27v39z" />
    <glyph glyph-name="quotesinglbase" unicode="&#x201a;" horiz-adv-x="240" 
d="M113 1217h-65v168h144v-198c0 -32 -8.83301 -57.667 -26.5 -77s-45.167 -29 -82.5 -29h-16v62h14c12 0 20.333 2.66699 25 8s7 14.333 7 27v39z" />
    <glyph glyph-name="quotedblleft" unicode="&#x201c;" horiz-adv-x="384" 
d="M287 1178c0 -12.667 2.33301 -21.667 7 -27s13 -8 25 -8h14v-62h-16c-37.333 0 -64.833 9.66699 -82.5 29s-26.5 45 -26.5 77v198h144v-168h-65v-39zM107 1178c0 -12.667 2.33301 -21.667 7 -27s13 -8 25 -8h14v-62h-16c-37.333 0 -64.833 9.66699 -82.5 29
s-26.5 45 -26.5 77v198h144v-168h-65v-39z" />
    <glyph glyph-name="quotedblright" unicode="&#x201d;" horiz-adv-x="402" 
d="M103 1217h-65v168h144v-198c0 -32 -8.83301 -57.667 -26.5 -77s-45.167 -29 -82.5 -29h-16v62h14c12 0 20.333 2.66699 25 8s7 14.333 7 27v39zM283 1217h-65v168h144v-198c0 -32 -8.83301 -57.667 -26.5 -77s-45.167 -29 -82.5 -29h-16v62h14c12 0 20.333 2.66699 25 8
s7 14.333 7 27v39z" />
    <glyph glyph-name="quotedblbase" unicode="&#x201e;" horiz-adv-x="910" 
 />
    <glyph glyph-name="dagger" unicode="&#x2020;" 
 />
    <glyph glyph-name="daggerdbl" unicode="&#x2021;" 
 />
    <glyph glyph-name="bullet" unicode="&#x2022;" horiz-adv-x="1024" 
 />
    <glyph glyph-name="ellipsis" unicode="&#x2026;" horiz-adv-x="2048" 
 />
    <glyph glyph-name="guilsinglleft" unicode="&#x2039;" horiz-adv-x="631" 
 />
    <glyph glyph-name="guilsinglright" unicode="&#x203a;" horiz-adv-x="631" 
 />
    <glyph glyph-name="fraction" unicode="&#x2044;" horiz-adv-x="342" 
 />
    <glyph glyph-name="franc" unicode="&#x20a3;" 
 />
    <glyph glyph-name="lira" unicode="&#x20a4;" 
 />
    <glyph glyph-name="peseta" unicode="&#x20a7;" horiz-adv-x="2028" 
 />
    <glyph glyph-name="Euro" unicode="&#x20ac;" 
 />
    <glyph glyph-name="afii61352" unicode="&#x2116;" horiz-adv-x="2271" 
 />
    <glyph glyph-name="trademark" unicode="&#x2122;" horiz-adv-x="1497" 
 />
    <glyph glyph-name="partialdiff" unicode="&#x2202;" 
 />
    <glyph glyph-name="Delta" unicode="&#x2206;" horiz-adv-x="1081" 
 />
    <glyph glyph-name="product" unicode="&#x220f;" horiz-adv-x="1515" 
 />
    <glyph glyph-name="summation" unicode="&#x2211;" horiz-adv-x="1206" 
 />
    <glyph glyph-name="minus" unicode="&#x2212;" 
 />
    <glyph glyph-name="uni2215" unicode="&#x2215;" horiz-adv-x="342" 
 />
    <glyph glyph-name="uni2219" unicode="&#x2219;" horiz-adv-x="508" 
 />
    <glyph glyph-name="radical" unicode="&#x221a;" 
 />
    <glyph glyph-name="infinity" unicode="&#x221e;" 
 />
    <glyph glyph-name="integral" unicode="&#x222b;" horiz-adv-x="665" 
 />
    <glyph glyph-name="approxequal" unicode="&#x2248;" 
 />
    <glyph glyph-name="lessequal" unicode="&#x2264;" 
 />
    <glyph glyph-name="greaterequal" unicode="&#x2265;" 
 />
    <glyph glyph-name="uniF001" unicode="&#xf001;" horiz-adv-x="1073" 
 />
    <glyph glyph-name="uniF002" unicode="&#xf002;" horiz-adv-x="1081" 
 />
    <glyph glyph-name="fi" unicode="&#xfb01;" horiz-adv-x="1073" 
 />
    <glyph glyph-name="fl" unicode="&#xfb02;" horiz-adv-x="1081" 
 />
  </font>
</defs>
</svg>
